<mxfile host="app.diagrams.net" agent="Mozilla/5.0 (Windows NT 10.0; Win64; x64) AppleWebKit/537.36 (KHTML, like Gecko) Chrome/134.0.0.0 Safari/537.36" version="26.1.3">
  <diagram name="uml" id="PEG4fmZPOcqcN3tmb9fP">
    <mxGraphModel dx="7199" dy="1440" grid="0" gridSize="10" guides="1" tooltips="1" connect="1" arrows="1" fold="1" page="1" pageScale="1" pageWidth="4681" pageHeight="3300" background="#99CCFF" math="0" shadow="0">
      <root>
        <mxCell id="0" />
        <mxCell id="1" parent="0" />
        <mxCell id="-QC0LfeOqHy5VNt_hiCN-1" value="&lt;font style=&quot;font-size: 40px;&quot;&gt;OffreEmploi&lt;/font&gt;" style="shape=table;startSize=54;container=1;collapsible=0;childLayout=tableLayout;fixedRows=1;rowLines=0;fontStyle=1;align=center;resizeLast=1;html=1;fillColor=#cdeb8b;strokeColor=#36393d;rounded=0;swimlaneLine=1;shadow=0;fontFamily=Courier New;fontSize=16;textShadow=0;labelBorderColor=none;labelBackgroundColor=none;perimeterSpacing=0;swimlaneFillColor=none;strokeWidth=4;" parent="1" vertex="1">
          <mxGeometry x="-2733" y="1478" width="413" height="204" as="geometry" />
        </mxCell>
        <mxCell id="-QC0LfeOqHy5VNt_hiCN-2" value="" style="shape=tableRow;horizontal=0;startSize=0;swimlaneHead=0;swimlaneBody=0;fillColor=none;collapsible=0;dropTarget=0;points=[[0,0.5],[1,0.5]];portConstraint=eastwest;top=0;left=0;right=0;bottom=1;rounded=0;fontFamily=Courier New;fontSize=16;perimeterSpacing=0;shadow=0;swimlaneFillColor=none;strokeColor=#000000;" parent="-QC0LfeOqHy5VNt_hiCN-1" vertex="1">
          <mxGeometry y="54" width="413" height="30" as="geometry" />
        </mxCell>
        <mxCell id="-QC0LfeOqHy5VNt_hiCN-3" value="PK" style="shape=partialRectangle;connectable=0;fillColor=none;top=0;left=0;bottom=0;right=0;fontStyle=1;overflow=hidden;whiteSpace=wrap;html=1;rounded=0;fontFamily=Courier New;fontSize=16;perimeterSpacing=0;shadow=0;swimlaneFillColor=none;strokeColor=#000000;" parent="-QC0LfeOqHy5VNt_hiCN-2" vertex="1">
          <mxGeometry width="30" height="30" as="geometry">
            <mxRectangle width="30" height="30" as="alternateBounds" />
          </mxGeometry>
        </mxCell>
        <mxCell id="-QC0LfeOqHy5VNt_hiCN-4" value="&lt;u style=&quot;background-color: transparent; color: light-dark(rgb(0, 0, 0), rgb(255, 255, 255));&quot;&gt;offre_id&lt;/u&gt;&lt;span style=&quot;background-color: transparent; color: light-dark(rgb(0, 0, 0), rgb(255, 255, 255));&quot;&gt;&amp;nbsp; &amp;nbsp; &amp;nbsp; &amp;nbsp; &amp;nbsp; &amp;nbsp; &amp;nbsp; &amp;nbsp; &amp;nbsp; &amp;nbsp;varchar(7)&lt;/span&gt;" style="shape=partialRectangle;connectable=0;fillColor=none;top=0;left=0;bottom=0;right=0;align=left;spacingLeft=6;fontStyle=1;overflow=hidden;whiteSpace=wrap;html=1;rounded=0;fontFamily=Courier New;fontSize=16;perimeterSpacing=0;shadow=0;swimlaneFillColor=none;strokeColor=#000000;" parent="-QC0LfeOqHy5VNt_hiCN-2" vertex="1">
          <mxGeometry x="30" width="383" height="30" as="geometry">
            <mxRectangle width="383" height="30" as="alternateBounds" />
          </mxGeometry>
        </mxCell>
        <mxCell id="-knFgxo0TVpOT882q4CQ-1" value="" style="shape=tableRow;horizontal=0;startSize=0;swimlaneHead=0;swimlaneBody=0;fillColor=none;collapsible=0;dropTarget=0;points=[[0,0.5],[1,0.5]];portConstraint=eastwest;top=0;left=0;right=0;bottom=0;rounded=0;fontFamily=Courier New;fontSize=16;perimeterSpacing=0;shadow=0;swimlaneFillColor=none;strokeColor=#000000;" vertex="1" parent="-QC0LfeOqHy5VNt_hiCN-1">
          <mxGeometry y="84" width="413" height="30" as="geometry" />
        </mxCell>
        <mxCell id="-knFgxo0TVpOT882q4CQ-2" value="" style="shape=partialRectangle;connectable=0;fillColor=none;top=0;left=0;bottom=0;right=0;editable=1;overflow=hidden;whiteSpace=wrap;html=1;rounded=0;fontFamily=Courier New;fontSize=16;perimeterSpacing=0;shadow=0;swimlaneFillColor=none;strokeColor=#000000;" vertex="1" parent="-knFgxo0TVpOT882q4CQ-1">
          <mxGeometry width="30" height="30" as="geometry">
            <mxRectangle width="30" height="30" as="alternateBounds" />
          </mxGeometry>
        </mxCell>
        <mxCell id="-knFgxo0TVpOT882q4CQ-3" value="&lt;span style=&quot;background-color: rgb(230, 255, 204);&quot;&gt;date_extraction&lt;/span&gt;&amp;nbsp; &amp;nbsp; &amp;nbsp; &amp;nbsp; &amp;nbsp; &amp;nbsp;&amp;nbsp;&lt;span style=&quot;font-weight: 700;&quot;&gt;date&lt;/span&gt;" style="shape=partialRectangle;connectable=0;fillColor=none;top=0;left=0;bottom=0;right=0;align=left;spacingLeft=6;overflow=hidden;whiteSpace=wrap;html=1;rounded=0;fontFamily=Courier New;fontSize=16;perimeterSpacing=0;shadow=0;swimlaneFillColor=none;strokeColor=#000000;" vertex="1" parent="-knFgxo0TVpOT882q4CQ-1">
          <mxGeometry x="30" width="383" height="30" as="geometry">
            <mxRectangle width="383" height="30" as="alternateBounds" />
          </mxGeometry>
        </mxCell>
        <mxCell id="C7LOxqXwbHzqQDy3l2-N-214" value="" style="shape=tableRow;horizontal=0;startSize=0;swimlaneHead=0;swimlaneBody=0;fillColor=none;collapsible=0;dropTarget=0;points=[[0,0.5],[1,0.5]];portConstraint=eastwest;top=0;left=0;right=0;bottom=0;rounded=0;fontFamily=Courier New;fontSize=16;perimeterSpacing=0;shadow=0;swimlaneFillColor=none;strokeColor=#000000;" parent="-QC0LfeOqHy5VNt_hiCN-1" vertex="1">
          <mxGeometry y="114" width="413" height="30" as="geometry" />
        </mxCell>
        <mxCell id="C7LOxqXwbHzqQDy3l2-N-215" value="" style="shape=partialRectangle;connectable=0;fillColor=none;top=0;left=0;bottom=0;right=0;editable=1;overflow=hidden;whiteSpace=wrap;html=1;rounded=0;fontFamily=Courier New;fontSize=16;perimeterSpacing=0;shadow=0;swimlaneFillColor=none;strokeColor=#000000;" parent="C7LOxqXwbHzqQDy3l2-N-214" vertex="1">
          <mxGeometry width="30" height="30" as="geometry">
            <mxRectangle width="30" height="30" as="alternateBounds" />
          </mxGeometry>
        </mxCell>
        <mxCell id="C7LOxqXwbHzqQDy3l2-N-216" value="date_creation&amp;nbsp; &amp;nbsp; &amp;nbsp; &amp;nbsp; &amp;nbsp; &amp;nbsp; &amp;nbsp;&amp;nbsp;&lt;span style=&quot;font-weight: 700;&quot;&gt;date&lt;/span&gt;" style="shape=partialRectangle;connectable=0;fillColor=none;top=0;left=0;bottom=0;right=0;align=left;spacingLeft=6;overflow=hidden;whiteSpace=wrap;html=1;rounded=0;fontFamily=Courier New;fontSize=16;perimeterSpacing=0;shadow=0;swimlaneFillColor=none;strokeColor=#000000;" parent="C7LOxqXwbHzqQDy3l2-N-214" vertex="1">
          <mxGeometry x="30" width="383" height="30" as="geometry">
            <mxRectangle width="383" height="30" as="alternateBounds" />
          </mxGeometry>
        </mxCell>
        <mxCell id="C7LOxqXwbHzqQDy3l2-N-217" value="" style="shape=tableRow;horizontal=0;startSize=0;swimlaneHead=0;swimlaneBody=0;fillColor=none;collapsible=0;dropTarget=0;points=[[0,0.5],[1,0.5]];portConstraint=eastwest;top=0;left=0;right=0;bottom=0;rounded=0;fontFamily=Courier New;fontSize=16;perimeterSpacing=0;shadow=0;swimlaneFillColor=none;strokeColor=#000000;" parent="-QC0LfeOqHy5VNt_hiCN-1" vertex="1">
          <mxGeometry y="144" width="413" height="30" as="geometry" />
        </mxCell>
        <mxCell id="C7LOxqXwbHzqQDy3l2-N-218" value="" style="shape=partialRectangle;connectable=0;fillColor=none;top=0;left=0;bottom=0;right=0;editable=1;overflow=hidden;whiteSpace=wrap;html=1;rounded=0;fontFamily=Courier New;fontSize=16;perimeterSpacing=0;shadow=0;swimlaneFillColor=none;strokeColor=#000000;" parent="C7LOxqXwbHzqQDy3l2-N-217" vertex="1">
          <mxGeometry width="30" height="30" as="geometry">
            <mxRectangle width="30" height="30" as="alternateBounds" />
          </mxGeometry>
        </mxCell>
        <mxCell id="C7LOxqXwbHzqQDy3l2-N-219" value="date_actualisation&amp;nbsp; &amp;nbsp; &amp;nbsp; &amp;nbsp; &amp;nbsp;&lt;span style=&quot;font-weight: 700;&quot;&gt;date&lt;/span&gt;" style="shape=partialRectangle;connectable=0;fillColor=none;top=0;left=0;bottom=0;right=0;align=left;spacingLeft=6;overflow=hidden;whiteSpace=wrap;html=1;rounded=0;fontFamily=Courier New;fontSize=16;perimeterSpacing=0;shadow=0;swimlaneFillColor=none;strokeColor=#000000;" parent="C7LOxqXwbHzqQDy3l2-N-217" vertex="1">
          <mxGeometry x="30" width="383" height="30" as="geometry">
            <mxRectangle width="383" height="30" as="alternateBounds" />
          </mxGeometry>
        </mxCell>
        <mxCell id="-QC0LfeOqHy5VNt_hiCN-11" value="" style="shape=tableRow;horizontal=0;startSize=0;swimlaneHead=0;swimlaneBody=0;fillColor=none;collapsible=0;dropTarget=0;points=[[0,0.5],[1,0.5]];portConstraint=eastwest;top=0;left=0;right=0;bottom=0;rounded=0;fontFamily=Courier New;fontSize=16;perimeterSpacing=0;shadow=0;swimlaneFillColor=none;strokeColor=#000000;" parent="-QC0LfeOqHy5VNt_hiCN-1" vertex="1">
          <mxGeometry y="174" width="413" height="30" as="geometry" />
        </mxCell>
        <mxCell id="-QC0LfeOqHy5VNt_hiCN-12" value="" style="shape=partialRectangle;connectable=0;fillColor=none;top=0;left=0;bottom=0;right=0;editable=1;overflow=hidden;whiteSpace=wrap;html=1;rounded=0;fontFamily=Courier New;fontSize=16;perimeterSpacing=0;shadow=0;swimlaneFillColor=none;strokeColor=#000000;" parent="-QC0LfeOqHy5VNt_hiCN-11" vertex="1">
          <mxGeometry width="30" height="30" as="geometry">
            <mxRectangle width="30" height="30" as="alternateBounds" />
          </mxGeometry>
        </mxCell>
        <mxCell id="-QC0LfeOqHy5VNt_hiCN-13" value="nombre_postes&amp;nbsp; &amp;nbsp; &amp;nbsp; &amp;nbsp; &amp;nbsp; &amp;nbsp; &amp;nbsp; &lt;span style=&quot;font-weight: 700;&quot;&gt;integer&lt;/span&gt;" style="shape=partialRectangle;connectable=0;fillColor=none;top=0;left=0;bottom=0;right=0;align=left;spacingLeft=6;overflow=hidden;whiteSpace=wrap;html=1;rounded=0;fontFamily=Courier New;fontSize=16;perimeterSpacing=0;shadow=0;swimlaneFillColor=none;strokeColor=#000000;" parent="-QC0LfeOqHy5VNt_hiCN-11" vertex="1">
          <mxGeometry x="30" width="383" height="30" as="geometry">
            <mxRectangle width="383" height="30" as="alternateBounds" />
          </mxGeometry>
        </mxCell>
        <mxCell id="C7LOxqXwbHzqQDy3l2-N-77" value="&lt;span style=&quot;font-size: 24px;&quot;&gt;Contrat&lt;/span&gt;" style="shape=table;startSize=35;container=1;collapsible=0;childLayout=tableLayout;fixedRows=1;rowLines=0;fontStyle=1;align=center;resizeLast=1;html=1;fillColor=#ffff88;strokeColor=#36393d;rounded=0;fontFamily=Courier New;fontSize=16;" parent="1" vertex="1">
          <mxGeometry x="-3632" y="1482" width="464" height="550" as="geometry">
            <mxRectangle x="-3632" y="1479" width="136" height="41" as="alternateBounds" />
          </mxGeometry>
        </mxCell>
        <mxCell id="C7LOxqXwbHzqQDy3l2-N-78" value="" style="shape=tableRow;horizontal=0;startSize=0;swimlaneHead=0;swimlaneBody=0;fillColor=none;collapsible=0;dropTarget=0;points=[[0,0.5],[1,0.5]];portConstraint=eastwest;top=0;left=0;right=0;bottom=1;rounded=0;fontFamily=Courier New;fontSize=16;fontStyle=4;strokeColor=#000000;" parent="C7LOxqXwbHzqQDy3l2-N-77" vertex="1">
          <mxGeometry y="35" width="464" height="30" as="geometry" />
        </mxCell>
        <mxCell id="C7LOxqXwbHzqQDy3l2-N-79" value="PK" style="shape=partialRectangle;connectable=0;fillColor=none;top=0;left=0;bottom=0;right=0;fontStyle=1;overflow=hidden;whiteSpace=wrap;html=1;rounded=0;fontFamily=Courier New;fontSize=16;strokeColor=#000000;" parent="C7LOxqXwbHzqQDy3l2-N-78" vertex="1">
          <mxGeometry width="30" height="30" as="geometry">
            <mxRectangle width="30" height="30" as="alternateBounds" />
          </mxGeometry>
        </mxCell>
        <mxCell id="C7LOxqXwbHzqQDy3l2-N-80" value="&lt;u&gt;offre_id&lt;/u&gt;&amp;nbsp; &amp;nbsp; &amp;nbsp; &amp;nbsp; &amp;nbsp; &amp;nbsp; &amp;nbsp; &amp;nbsp; &amp;nbsp; &amp;nbsp; &amp;nbsp; &amp;nbsp; varchar(7)" style="shape=partialRectangle;connectable=0;fillColor=none;top=0;left=0;bottom=0;right=0;align=left;spacingLeft=6;fontStyle=1;overflow=hidden;whiteSpace=wrap;html=1;rounded=0;fontFamily=Courier New;fontSize=16;strokeColor=#000000;" parent="C7LOxqXwbHzqQDy3l2-N-78" vertex="1">
          <mxGeometry x="30" width="434" height="30" as="geometry">
            <mxRectangle width="434" height="30" as="alternateBounds" />
          </mxGeometry>
        </mxCell>
        <mxCell id="C7LOxqXwbHzqQDy3l2-N-199" value="" style="shape=tableRow;horizontal=0;startSize=0;swimlaneHead=0;swimlaneBody=0;fillColor=none;collapsible=0;dropTarget=0;points=[[0,0.5],[1,0.5]];portConstraint=eastwest;top=0;left=0;right=0;bottom=0;rounded=0;fontFamily=Courier New;fontSize=16;strokeColor=#000000;" parent="C7LOxqXwbHzqQDy3l2-N-77" vertex="1">
          <mxGeometry y="65" width="464" height="30" as="geometry" />
        </mxCell>
        <mxCell id="C7LOxqXwbHzqQDy3l2-N-200" value="" style="shape=partialRectangle;connectable=0;fillColor=none;top=0;left=0;bottom=0;right=0;editable=1;overflow=hidden;whiteSpace=wrap;html=1;rounded=0;fontFamily=Courier New;fontSize=16;strokeColor=#000000;" parent="C7LOxqXwbHzqQDy3l2-N-199" vertex="1">
          <mxGeometry width="30" height="30" as="geometry">
            <mxRectangle width="30" height="30" as="alternateBounds" />
          </mxGeometry>
        </mxCell>
        <mxCell id="C7LOxqXwbHzqQDy3l2-N-201" value="type_contrat&amp;nbsp; &amp;nbsp; &amp;nbsp; &amp;nbsp; &amp;nbsp; &amp;nbsp; &amp;nbsp; &amp;nbsp; &amp;nbsp; &amp;nbsp;&amp;nbsp;&lt;b&gt;varchar(10)&lt;/b&gt;" style="shape=partialRectangle;connectable=0;fillColor=none;top=0;left=0;bottom=0;right=0;align=left;spacingLeft=6;overflow=hidden;whiteSpace=wrap;html=1;rounded=0;fontFamily=Courier New;fontSize=16;strokeColor=#000000;" parent="C7LOxqXwbHzqQDy3l2-N-199" vertex="1">
          <mxGeometry x="30" width="434" height="30" as="geometry">
            <mxRectangle width="434" height="30" as="alternateBounds" />
          </mxGeometry>
        </mxCell>
        <mxCell id="C7LOxqXwbHzqQDy3l2-N-667" value="" style="shape=tableRow;horizontal=0;startSize=0;swimlaneHead=0;swimlaneBody=0;fillColor=none;collapsible=0;dropTarget=0;points=[[0,0.5],[1,0.5]];portConstraint=eastwest;top=0;left=0;right=0;bottom=0;rounded=0;fontFamily=Courier New;fontSize=16;strokeColor=#000000;" parent="C7LOxqXwbHzqQDy3l2-N-77" vertex="1">
          <mxGeometry y="95" width="464" height="30" as="geometry" />
        </mxCell>
        <mxCell id="C7LOxqXwbHzqQDy3l2-N-668" value="" style="shape=partialRectangle;connectable=0;fillColor=none;top=0;left=0;bottom=0;right=0;editable=1;overflow=hidden;whiteSpace=wrap;html=1;rounded=0;fontFamily=Courier New;fontSize=16;strokeColor=#000000;" parent="C7LOxqXwbHzqQDy3l2-N-667" vertex="1">
          <mxGeometry width="30" height="30" as="geometry">
            <mxRectangle width="30" height="30" as="alternateBounds" />
          </mxGeometry>
        </mxCell>
        <mxCell id="C7LOxqXwbHzqQDy3l2-N-669" value="type_&lt;span style=&quot;color: light-dark(rgb(0, 0, 0), rgb(255, 255, 255)); background-color: transparent;&quot;&gt;contrat_&lt;/span&gt;libelle&lt;span style=&quot;color: light-dark(rgb(0, 0, 0), rgb(255, 255, 255)); background-color: transparent;&quot;&gt;&amp;nbsp; &amp;nbsp; &amp;nbsp; &amp;nbsp; &amp;nbsp; &amp;nbsp;&amp;nbsp;&lt;/span&gt;&lt;b style=&quot;color: light-dark(rgb(0, 0, 0), rgb(255, 255, 255)); background-color: transparent;&quot;&gt;varchar(100)&lt;/b&gt;" style="shape=partialRectangle;connectable=0;fillColor=none;top=0;left=0;bottom=0;right=0;align=left;spacingLeft=6;overflow=hidden;whiteSpace=wrap;html=1;rounded=0;fontFamily=Courier New;fontSize=16;strokeColor=#000000;" parent="C7LOxqXwbHzqQDy3l2-N-667" vertex="1">
          <mxGeometry x="30" width="434" height="30" as="geometry">
            <mxRectangle width="434" height="30" as="alternateBounds" />
          </mxGeometry>
        </mxCell>
        <mxCell id="jDI96cK5oBP2eikoeisR-64" value="" style="shape=tableRow;horizontal=0;startSize=0;swimlaneHead=0;swimlaneBody=0;fillColor=none;collapsible=0;dropTarget=0;points=[[0,0.5],[1,0.5]];portConstraint=eastwest;top=0;left=0;right=0;bottom=0;rounded=0;fontFamily=Courier New;fontSize=16;strokeColor=#000000;" parent="C7LOxqXwbHzqQDy3l2-N-77" vertex="1">
          <mxGeometry y="125" width="464" height="30" as="geometry" />
        </mxCell>
        <mxCell id="jDI96cK5oBP2eikoeisR-65" value="" style="shape=partialRectangle;connectable=0;fillColor=none;top=0;left=0;bottom=0;right=0;editable=1;overflow=hidden;whiteSpace=wrap;html=1;rounded=0;fontFamily=Courier New;fontSize=16;strokeColor=#000000;" parent="jDI96cK5oBP2eikoeisR-64" vertex="1">
          <mxGeometry width="30" height="30" as="geometry">
            <mxRectangle width="30" height="30" as="alternateBounds" />
          </mxGeometry>
        </mxCell>
        <mxCell id="jDI96cK5oBP2eikoeisR-66" value="duree_travail_l&lt;span style=&quot;color: light-dark(rgb(0, 0, 0), rgb(255, 255, 255)); background-color: transparent;&quot;&gt;ibelle&lt;/span&gt;&lt;span style=&quot;color: light-dark(rgb(0, 0, 0), rgb(255, 255, 255)); background-color: transparent;&quot;&gt;&amp;nbsp; &amp;nbsp; &amp;nbsp; &amp;nbsp; &amp;nbsp; &amp;nbsp;&lt;b&gt;varchar(100)&lt;/b&gt;&lt;/span&gt;" style="shape=partialRectangle;connectable=0;fillColor=none;top=0;left=0;bottom=0;right=0;align=left;spacingLeft=6;overflow=hidden;whiteSpace=wrap;html=1;rounded=0;fontFamily=Courier New;fontSize=16;strokeColor=#000000;" parent="jDI96cK5oBP2eikoeisR-64" vertex="1">
          <mxGeometry x="30" width="434" height="30" as="geometry">
            <mxRectangle width="434" height="30" as="alternateBounds" />
          </mxGeometry>
        </mxCell>
        <mxCell id="jDI96cK5oBP2eikoeisR-67" value="" style="shape=tableRow;horizontal=0;startSize=0;swimlaneHead=0;swimlaneBody=0;fillColor=none;collapsible=0;dropTarget=0;points=[[0,0.5],[1,0.5]];portConstraint=eastwest;top=0;left=0;right=0;bottom=0;rounded=0;fontFamily=Courier New;fontSize=16;strokeColor=#000000;" parent="C7LOxqXwbHzqQDy3l2-N-77" vertex="1">
          <mxGeometry y="155" width="464" height="30" as="geometry" />
        </mxCell>
        <mxCell id="jDI96cK5oBP2eikoeisR-68" value="" style="shape=partialRectangle;connectable=0;fillColor=none;top=0;left=0;bottom=0;right=0;editable=1;overflow=hidden;whiteSpace=wrap;html=1;rounded=0;fontFamily=Courier New;fontSize=16;strokeColor=#000000;" parent="jDI96cK5oBP2eikoeisR-67" vertex="1">
          <mxGeometry width="30" height="30" as="geometry">
            <mxRectangle width="30" height="30" as="alternateBounds" />
          </mxGeometry>
        </mxCell>
        <mxCell id="jDI96cK5oBP2eikoeisR-69" value="duree_travail_libelle_converti&amp;nbsp;&amp;nbsp;&lt;b&gt;varchar(100)&lt;/b&gt;" style="shape=partialRectangle;connectable=0;fillColor=none;top=0;left=0;bottom=0;right=0;align=left;spacingLeft=6;overflow=hidden;whiteSpace=wrap;html=1;rounded=0;fontFamily=Courier New;fontSize=16;strokeColor=#000000;" parent="jDI96cK5oBP2eikoeisR-67" vertex="1">
          <mxGeometry x="30" width="434" height="30" as="geometry">
            <mxRectangle width="434" height="30" as="alternateBounds" />
          </mxGeometry>
        </mxCell>
        <mxCell id="C7LOxqXwbHzqQDy3l2-N-730" value="" style="shape=tableRow;horizontal=0;startSize=0;swimlaneHead=0;swimlaneBody=0;fillColor=none;collapsible=0;dropTarget=0;points=[[0,0.5],[1,0.5]];portConstraint=eastwest;top=0;left=0;right=0;bottom=0;rounded=0;fontFamily=Courier New;fontSize=16;strokeColor=#000000;" parent="C7LOxqXwbHzqQDy3l2-N-77" vertex="1">
          <mxGeometry y="185" width="464" height="30" as="geometry" />
        </mxCell>
        <mxCell id="C7LOxqXwbHzqQDy3l2-N-731" value="" style="shape=partialRectangle;connectable=0;fillColor=none;top=0;left=0;bottom=0;right=0;editable=1;overflow=hidden;whiteSpace=wrap;html=1;rounded=0;fontFamily=Courier New;fontSize=16;strokeColor=#000000;" parent="C7LOxqXwbHzqQDy3l2-N-730" vertex="1">
          <mxGeometry width="30" height="30" as="geometry">
            <mxRectangle width="30" height="30" as="alternateBounds" />
          </mxGeometry>
        </mxCell>
        <mxCell id="C7LOxqXwbHzqQDy3l2-N-732" value="temps_travail&amp;nbsp; &amp;nbsp; &amp;nbsp; &amp;nbsp; &amp;nbsp; &amp;nbsp; &amp;nbsp; &amp;nbsp; &amp;nbsp;&lt;span style=&quot;color: light-dark(rgb(0, 0, 0), rgb(255, 255, 255)); background-color: transparent;&quot;&gt;&amp;nbsp; &lt;/span&gt;&lt;b style=&quot;color: light-dark(rgb(0, 0, 0), rgb(255, 255, 255)); background-color: transparent;&quot;&gt;varchar(&lt;/b&gt;&lt;b&gt;100)&lt;/b&gt;" style="shape=partialRectangle;connectable=0;fillColor=none;top=0;left=0;bottom=0;right=0;align=left;spacingLeft=6;overflow=hidden;whiteSpace=wrap;html=1;rounded=0;fontFamily=Courier New;fontSize=16;strokeColor=#000000;" parent="C7LOxqXwbHzqQDy3l2-N-730" vertex="1">
          <mxGeometry x="30" width="434" height="30" as="geometry">
            <mxRectangle width="434" height="30" as="alternateBounds" />
          </mxGeometry>
        </mxCell>
        <mxCell id="jDI96cK5oBP2eikoeisR-311" value="" style="shape=tableRow;horizontal=0;startSize=0;swimlaneHead=0;swimlaneBody=0;fillColor=none;collapsible=0;dropTarget=0;points=[[0,0.5],[1,0.5]];portConstraint=eastwest;top=0;left=0;right=0;bottom=0;rounded=0;fontFamily=Courier New;fontSize=16;strokeColor=#000000;" parent="C7LOxqXwbHzqQDy3l2-N-77" vertex="1">
          <mxGeometry y="215" width="464" height="30" as="geometry" />
        </mxCell>
        <mxCell id="jDI96cK5oBP2eikoeisR-312" value="" style="shape=partialRectangle;connectable=0;fillColor=none;top=0;left=0;bottom=0;right=0;editable=1;overflow=hidden;whiteSpace=wrap;html=1;rounded=0;fontFamily=Courier New;fontSize=16;strokeColor=#000000;" parent="jDI96cK5oBP2eikoeisR-311" vertex="1">
          <mxGeometry width="30" height="30" as="geometry">
            <mxRectangle width="30" height="30" as="alternateBounds" />
          </mxGeometry>
        </mxCell>
        <mxCell id="jDI96cK5oBP2eikoeisR-313" value="nature_contrat&amp;nbsp; &amp;nbsp; &amp;nbsp; &amp;nbsp; &amp;nbsp; &amp;nbsp; &amp;nbsp; &amp;nbsp;&amp;nbsp;&lt;span style=&quot;color: light-dark(rgb(0, 0, 0), rgb(255, 255, 255)); background-color: transparent;&quot;&gt;&amp;nbsp;&amp;nbsp;&lt;/span&gt;&lt;b style=&quot;color: light-dark(rgb(0, 0, 0), rgb(255, 255, 255)); background-color: transparent;&quot;&gt;varchar(&lt;/b&gt;&lt;b&gt;100)&lt;/b&gt;" style="shape=partialRectangle;connectable=0;fillColor=none;top=0;left=0;bottom=0;right=0;align=left;spacingLeft=6;overflow=hidden;whiteSpace=wrap;html=1;rounded=0;fontFamily=Courier New;fontSize=16;strokeColor=#000000;" parent="jDI96cK5oBP2eikoeisR-311" vertex="1">
          <mxGeometry x="30" width="434" height="30" as="geometry">
            <mxRectangle width="434" height="30" as="alternateBounds" />
          </mxGeometry>
        </mxCell>
        <mxCell id="jDI96cK5oBP2eikoeisR-73" value="" style="shape=tableRow;horizontal=0;startSize=0;swimlaneHead=0;swimlaneBody=0;fillColor=none;collapsible=0;dropTarget=0;points=[[0,0.5],[1,0.5]];portConstraint=eastwest;top=0;left=0;right=0;bottom=0;rounded=0;fontFamily=Courier New;fontSize=16;strokeColor=#000000;" parent="C7LOxqXwbHzqQDy3l2-N-77" vertex="1">
          <mxGeometry y="245" width="464" height="30" as="geometry" />
        </mxCell>
        <mxCell id="jDI96cK5oBP2eikoeisR-74" value="" style="shape=partialRectangle;connectable=0;fillColor=none;top=0;left=0;bottom=0;right=0;editable=1;overflow=hidden;whiteSpace=wrap;html=1;rounded=0;fontFamily=Courier New;fontSize=16;strokeColor=#000000;" parent="jDI96cK5oBP2eikoeisR-73" vertex="1">
          <mxGeometry width="30" height="30" as="geometry">
            <mxRectangle width="30" height="30" as="alternateBounds" />
          </mxGeometry>
        </mxCell>
        <mxCell id="jDI96cK5oBP2eikoeisR-75" value="salaire_libelle&amp;nbsp; &amp;nbsp; &amp;nbsp; &amp;nbsp; &amp;nbsp; &amp;nbsp; &amp;nbsp; &amp;nbsp; &amp;nbsp;&lt;b&gt;varchar(&lt;/b&gt;&lt;b&gt;100)&lt;/b&gt;" style="shape=partialRectangle;connectable=0;fillColor=none;top=0;left=0;bottom=0;right=0;align=left;spacingLeft=6;overflow=hidden;whiteSpace=wrap;html=1;rounded=0;fontFamily=Courier New;fontSize=16;strokeColor=#000000;" parent="jDI96cK5oBP2eikoeisR-73" vertex="1">
          <mxGeometry x="30" width="434" height="30" as="geometry">
            <mxRectangle width="434" height="30" as="alternateBounds" />
          </mxGeometry>
        </mxCell>
        <mxCell id="g42hDst7DQJScSwPhzBg-2" value="" style="shape=tableRow;horizontal=0;startSize=0;swimlaneHead=0;swimlaneBody=0;fillColor=none;collapsible=0;dropTarget=0;points=[[0,0.5],[1,0.5]];portConstraint=eastwest;top=0;left=0;right=0;bottom=0;rounded=0;fontFamily=Courier New;fontSize=16;strokeColor=#000000;" parent="C7LOxqXwbHzqQDy3l2-N-77" vertex="1">
          <mxGeometry y="275" width="464" height="30" as="geometry" />
        </mxCell>
        <mxCell id="g42hDst7DQJScSwPhzBg-3" value="" style="shape=partialRectangle;connectable=0;fillColor=none;top=0;left=0;bottom=0;right=0;editable=1;overflow=hidden;whiteSpace=wrap;html=1;rounded=0;fontFamily=Courier New;fontSize=16;strokeColor=#000000;" parent="g42hDst7DQJScSwPhzBg-2" vertex="1">
          <mxGeometry width="30" height="30" as="geometry">
            <mxRectangle width="30" height="30" as="alternateBounds" />
          </mxGeometry>
        </mxCell>
        <mxCell id="g42hDst7DQJScSwPhzBg-4" value="&lt;span style=&quot;background-color: rgb(230, 255, 204);&quot;&gt;salaire_min&lt;/span&gt;&amp;nbsp; &amp;nbsp; &amp;nbsp; &amp;nbsp; &amp;nbsp; &amp;nbsp; &amp;nbsp; &amp;nbsp; &amp;nbsp; &amp;nbsp; &amp;nbsp;&lt;b&gt;integer&lt;/b&gt;" style="shape=partialRectangle;connectable=0;fillColor=none;top=0;left=0;bottom=0;right=0;align=left;spacingLeft=6;overflow=hidden;whiteSpace=wrap;html=1;rounded=0;fontFamily=Courier New;fontSize=16;strokeColor=#000000;" parent="g42hDst7DQJScSwPhzBg-2" vertex="1">
          <mxGeometry x="30" width="434" height="30" as="geometry">
            <mxRectangle width="434" height="30" as="alternateBounds" />
          </mxGeometry>
        </mxCell>
        <mxCell id="g42hDst7DQJScSwPhzBg-5" value="" style="shape=tableRow;horizontal=0;startSize=0;swimlaneHead=0;swimlaneBody=0;fillColor=none;collapsible=0;dropTarget=0;points=[[0,0.5],[1,0.5]];portConstraint=eastwest;top=0;left=0;right=0;bottom=0;rounded=0;fontFamily=Courier New;fontSize=16;strokeColor=#000000;" parent="C7LOxqXwbHzqQDy3l2-N-77" vertex="1">
          <mxGeometry y="305" width="464" height="30" as="geometry" />
        </mxCell>
        <mxCell id="g42hDst7DQJScSwPhzBg-6" value="" style="shape=partialRectangle;connectable=0;fillColor=none;top=0;left=0;bottom=0;right=0;editable=1;overflow=hidden;whiteSpace=wrap;html=1;rounded=0;fontFamily=Courier New;fontSize=16;strokeColor=#000000;" parent="g42hDst7DQJScSwPhzBg-5" vertex="1">
          <mxGeometry width="30" height="30" as="geometry">
            <mxRectangle width="30" height="30" as="alternateBounds" />
          </mxGeometry>
        </mxCell>
        <mxCell id="g42hDst7DQJScSwPhzBg-7" value="&lt;span style=&quot;background-color: rgb(230, 255, 204);&quot;&gt;salaire_max&lt;/span&gt;&amp;nbsp; &amp;nbsp; &amp;nbsp; &amp;nbsp; &amp;nbsp; &amp;nbsp; &amp;nbsp; &amp;nbsp; &amp;nbsp; &amp;nbsp; &amp;nbsp;&lt;b&gt;integer&lt;/b&gt;" style="shape=partialRectangle;connectable=0;fillColor=none;top=0;left=0;bottom=0;right=0;align=left;spacingLeft=6;overflow=hidden;whiteSpace=wrap;html=1;rounded=0;fontFamily=Courier New;fontSize=16;strokeColor=#000000;" parent="g42hDst7DQJScSwPhzBg-5" vertex="1">
          <mxGeometry x="30" width="434" height="30" as="geometry">
            <mxRectangle width="434" height="30" as="alternateBounds" />
          </mxGeometry>
        </mxCell>
        <mxCell id="jDI96cK5oBP2eikoeisR-76" value="" style="shape=tableRow;horizontal=0;startSize=0;swimlaneHead=0;swimlaneBody=0;fillColor=none;collapsible=0;dropTarget=0;points=[[0,0.5],[1,0.5]];portConstraint=eastwest;top=0;left=0;right=0;bottom=0;rounded=0;fontFamily=Courier New;fontSize=16;strokeColor=#000000;" parent="C7LOxqXwbHzqQDy3l2-N-77" vertex="1">
          <mxGeometry y="335" width="464" height="30" as="geometry" />
        </mxCell>
        <mxCell id="jDI96cK5oBP2eikoeisR-77" value="" style="shape=partialRectangle;connectable=0;fillColor=none;top=0;left=0;bottom=0;right=0;editable=1;overflow=hidden;whiteSpace=wrap;html=1;rounded=0;fontFamily=Courier New;fontSize=16;strokeColor=#000000;" parent="jDI96cK5oBP2eikoeisR-76" vertex="1">
          <mxGeometry width="30" height="30" as="geometry">
            <mxRectangle width="30" height="30" as="alternateBounds" />
          </mxGeometry>
        </mxCell>
        <mxCell id="jDI96cK5oBP2eikoeisR-78" value="salaire_complement_1&amp;nbsp; &amp;nbsp; &amp;nbsp; &amp;nbsp; &amp;nbsp; &amp;nbsp;&amp;nbsp;&lt;b&gt;varchar(&lt;/b&gt;&lt;b&gt;100)&lt;/b&gt;" style="shape=partialRectangle;connectable=0;fillColor=none;top=0;left=0;bottom=0;right=0;align=left;spacingLeft=6;overflow=hidden;whiteSpace=wrap;html=1;rounded=0;fontFamily=Courier New;fontSize=16;strokeColor=#000000;" parent="jDI96cK5oBP2eikoeisR-76" vertex="1">
          <mxGeometry x="30" width="434" height="30" as="geometry">
            <mxRectangle width="434" height="30" as="alternateBounds" />
          </mxGeometry>
        </mxCell>
        <mxCell id="jDI96cK5oBP2eikoeisR-79" value="" style="shape=tableRow;horizontal=0;startSize=0;swimlaneHead=0;swimlaneBody=0;fillColor=none;collapsible=0;dropTarget=0;points=[[0,0.5],[1,0.5]];portConstraint=eastwest;top=0;left=0;right=0;bottom=0;rounded=0;fontFamily=Courier New;fontSize=16;strokeColor=#000000;" parent="C7LOxqXwbHzqQDy3l2-N-77" vertex="1">
          <mxGeometry y="365" width="464" height="30" as="geometry" />
        </mxCell>
        <mxCell id="jDI96cK5oBP2eikoeisR-80" value="" style="shape=partialRectangle;connectable=0;fillColor=none;top=0;left=0;bottom=0;right=0;editable=1;overflow=hidden;whiteSpace=wrap;html=1;rounded=0;fontFamily=Courier New;fontSize=16;strokeColor=#000000;" parent="jDI96cK5oBP2eikoeisR-79" vertex="1">
          <mxGeometry width="30" height="30" as="geometry">
            <mxRectangle width="30" height="30" as="alternateBounds" />
          </mxGeometry>
        </mxCell>
        <mxCell id="jDI96cK5oBP2eikoeisR-81" value="salaire_complement_2&amp;nbsp; &amp;nbsp; &amp;nbsp; &amp;nbsp; &amp;nbsp; &amp;nbsp;&amp;nbsp;&lt;b&gt;varchar(&lt;/b&gt;&lt;b&gt;100)&lt;/b&gt;" style="shape=partialRectangle;connectable=0;fillColor=none;top=0;left=0;bottom=0;right=0;align=left;spacingLeft=6;overflow=hidden;whiteSpace=wrap;html=1;rounded=0;fontFamily=Courier New;fontSize=16;strokeColor=#000000;" parent="jDI96cK5oBP2eikoeisR-79" vertex="1">
          <mxGeometry x="30" width="434" height="30" as="geometry">
            <mxRectangle width="434" height="30" as="alternateBounds" />
          </mxGeometry>
        </mxCell>
        <mxCell id="jDI96cK5oBP2eikoeisR-70" value="" style="shape=tableRow;horizontal=0;startSize=0;swimlaneHead=0;swimlaneBody=0;fillColor=none;collapsible=0;dropTarget=0;points=[[0,0.5],[1,0.5]];portConstraint=eastwest;top=0;left=0;right=0;bottom=0;rounded=0;fontFamily=Courier New;fontSize=16;strokeColor=#000000;" parent="C7LOxqXwbHzqQDy3l2-N-77" vertex="1">
          <mxGeometry y="395" width="464" height="30" as="geometry" />
        </mxCell>
        <mxCell id="jDI96cK5oBP2eikoeisR-71" value="" style="shape=partialRectangle;connectable=0;fillColor=none;top=0;left=0;bottom=0;right=0;editable=1;overflow=hidden;whiteSpace=wrap;html=1;rounded=0;fontFamily=Courier New;fontSize=16;strokeColor=#000000;" parent="jDI96cK5oBP2eikoeisR-70" vertex="1">
          <mxGeometry width="30" height="30" as="geometry">
            <mxRectangle width="30" height="30" as="alternateBounds" />
          </mxGeometry>
        </mxCell>
        <mxCell id="jDI96cK5oBP2eikoeisR-72" value="salaire_commentaire&amp;nbsp; &amp;nbsp; &amp;nbsp; &amp;nbsp; &amp;nbsp; &amp;nbsp; &amp;nbsp;&lt;b&gt;varchar(&lt;/b&gt;&lt;b&gt;100)&lt;/b&gt;" style="shape=partialRectangle;connectable=0;fillColor=none;top=0;left=0;bottom=0;right=0;align=left;spacingLeft=6;overflow=hidden;whiteSpace=wrap;html=1;rounded=0;fontFamily=Courier New;fontSize=16;strokeColor=#000000;" parent="jDI96cK5oBP2eikoeisR-70" vertex="1">
          <mxGeometry x="30" width="434" height="30" as="geometry">
            <mxRectangle width="434" height="30" as="alternateBounds" />
          </mxGeometry>
        </mxCell>
        <mxCell id="jDI96cK5oBP2eikoeisR-82" value="" style="shape=tableRow;horizontal=0;startSize=0;swimlaneHead=0;swimlaneBody=0;fillColor=none;collapsible=0;dropTarget=0;points=[[0,0.5],[1,0.5]];portConstraint=eastwest;top=0;left=0;right=0;bottom=0;rounded=0;fontFamily=Courier New;fontSize=16;strokeColor=#000000;" parent="C7LOxqXwbHzqQDy3l2-N-77" vertex="1">
          <mxGeometry y="425" width="464" height="30" as="geometry" />
        </mxCell>
        <mxCell id="jDI96cK5oBP2eikoeisR-83" value="" style="shape=partialRectangle;connectable=0;fillColor=none;top=0;left=0;bottom=0;right=0;editable=1;overflow=hidden;whiteSpace=wrap;html=1;rounded=0;fontFamily=Courier New;fontSize=16;strokeColor=#000000;" parent="jDI96cK5oBP2eikoeisR-82" vertex="1">
          <mxGeometry width="30" height="30" as="geometry">
            <mxRectangle width="30" height="30" as="alternateBounds" />
          </mxGeometry>
        </mxCell>
        <mxCell id="jDI96cK5oBP2eikoeisR-84" value="alternance&amp;nbsp; &amp;nbsp; &amp;nbsp; &amp;nbsp; &amp;nbsp; &amp;nbsp; &amp;nbsp; &amp;nbsp; &amp;nbsp; &amp;nbsp; &amp;nbsp;&amp;nbsp;&lt;b&gt;boolean&lt;/b&gt;" style="shape=partialRectangle;connectable=0;fillColor=none;top=0;left=0;bottom=0;right=0;align=left;spacingLeft=6;overflow=hidden;whiteSpace=wrap;html=1;rounded=0;fontFamily=Courier New;fontSize=16;strokeColor=#000000;" parent="jDI96cK5oBP2eikoeisR-82" vertex="1">
          <mxGeometry x="30" width="434" height="30" as="geometry">
            <mxRectangle width="434" height="30" as="alternateBounds" />
          </mxGeometry>
        </mxCell>
        <mxCell id="jDI96cK5oBP2eikoeisR-85" value="" style="shape=tableRow;horizontal=0;startSize=0;swimlaneHead=0;swimlaneBody=0;fillColor=none;collapsible=0;dropTarget=0;points=[[0,0.5],[1,0.5]];portConstraint=eastwest;top=0;left=0;right=0;bottom=0;rounded=0;fontFamily=Courier New;fontSize=16;strokeColor=#000000;" parent="C7LOxqXwbHzqQDy3l2-N-77" vertex="1">
          <mxGeometry y="455" width="464" height="30" as="geometry" />
        </mxCell>
        <mxCell id="jDI96cK5oBP2eikoeisR-86" value="" style="shape=partialRectangle;connectable=0;fillColor=none;top=0;left=0;bottom=0;right=0;editable=1;overflow=hidden;whiteSpace=wrap;html=1;rounded=0;fontFamily=Courier New;fontSize=16;strokeColor=#000000;" parent="jDI96cK5oBP2eikoeisR-85" vertex="1">
          <mxGeometry width="30" height="30" as="geometry">
            <mxRectangle width="30" height="30" as="alternateBounds" />
          </mxGeometry>
        </mxCell>
        <mxCell id="jDI96cK5oBP2eikoeisR-87" value="deplacement_code&amp;nbsp; &amp;nbsp; &amp;nbsp; &amp;nbsp; &amp;nbsp; &amp;nbsp; &amp;nbsp; &amp;nbsp;&amp;nbsp;&lt;b&gt;integer&lt;/b&gt;" style="shape=partialRectangle;connectable=0;fillColor=none;top=0;left=0;bottom=0;right=0;align=left;spacingLeft=6;overflow=hidden;whiteSpace=wrap;html=1;rounded=0;fontFamily=Courier New;fontSize=16;strokeColor=#000000;" parent="jDI96cK5oBP2eikoeisR-85" vertex="1">
          <mxGeometry x="30" width="434" height="30" as="geometry">
            <mxRectangle width="434" height="30" as="alternateBounds" />
          </mxGeometry>
        </mxCell>
        <mxCell id="jDI96cK5oBP2eikoeisR-88" value="" style="shape=tableRow;horizontal=0;startSize=0;swimlaneHead=0;swimlaneBody=0;fillColor=none;collapsible=0;dropTarget=0;points=[[0,0.5],[1,0.5]];portConstraint=eastwest;top=0;left=0;right=0;bottom=0;rounded=0;fontFamily=Courier New;fontSize=16;strokeColor=#000000;" parent="C7LOxqXwbHzqQDy3l2-N-77" vertex="1">
          <mxGeometry y="485" width="464" height="30" as="geometry" />
        </mxCell>
        <mxCell id="jDI96cK5oBP2eikoeisR-89" value="" style="shape=partialRectangle;connectable=0;fillColor=none;top=0;left=0;bottom=0;right=0;editable=1;overflow=hidden;whiteSpace=wrap;html=1;rounded=0;fontFamily=Courier New;fontSize=16;strokeColor=#000000;" parent="jDI96cK5oBP2eikoeisR-88" vertex="1">
          <mxGeometry width="30" height="30" as="geometry">
            <mxRectangle width="30" height="30" as="alternateBounds" />
          </mxGeometry>
        </mxCell>
        <mxCell id="jDI96cK5oBP2eikoeisR-90" value="deplacement_libelle&amp;nbsp; &amp;nbsp; &amp;nbsp; &amp;nbsp; &amp;nbsp; &amp;nbsp; &amp;nbsp;&lt;b&gt;varchar(&lt;/b&gt;&lt;b&gt;100)&lt;/b&gt;" style="shape=partialRectangle;connectable=0;fillColor=none;top=0;left=0;bottom=0;right=0;align=left;spacingLeft=6;overflow=hidden;whiteSpace=wrap;html=1;rounded=0;fontFamily=Courier New;fontSize=16;strokeColor=#000000;" parent="jDI96cK5oBP2eikoeisR-88" vertex="1">
          <mxGeometry x="30" width="434" height="30" as="geometry">
            <mxRectangle width="434" height="30" as="alternateBounds" />
          </mxGeometry>
        </mxCell>
        <mxCell id="C7LOxqXwbHzqQDy3l2-N-661" value="" style="shape=tableRow;horizontal=0;startSize=0;swimlaneHead=0;swimlaneBody=0;fillColor=none;collapsible=0;dropTarget=0;points=[[0,0.5],[1,0.5]];portConstraint=eastwest;top=0;left=0;right=0;bottom=0;rounded=0;fontFamily=Courier New;fontSize=16;strokeColor=#000000;" parent="C7LOxqXwbHzqQDy3l2-N-77" vertex="1">
          <mxGeometry y="515" width="464" height="30" as="geometry" />
        </mxCell>
        <mxCell id="C7LOxqXwbHzqQDy3l2-N-662" value="" style="shape=partialRectangle;connectable=0;fillColor=none;top=0;left=0;bottom=0;right=0;editable=1;overflow=hidden;whiteSpace=wrap;html=1;rounded=0;fontFamily=Courier New;fontSize=16;strokeColor=#000000;" parent="C7LOxqXwbHzqQDy3l2-N-661" vertex="1">
          <mxGeometry width="30" height="30" as="geometry">
            <mxRectangle width="30" height="30" as="alternateBounds" />
          </mxGeometry>
        </mxCell>
        <mxCell id="C7LOxqXwbHzqQDy3l2-N-663" value="condition_specifique&amp;nbsp; &amp;nbsp; &amp;nbsp; &amp;nbsp; &amp;nbsp; &amp;nbsp;&amp;nbsp;&lt;b&gt;varchar(&lt;/b&gt;&lt;b&gt;100)&lt;/b&gt;" style="shape=partialRectangle;connectable=0;fillColor=none;top=0;left=0;bottom=0;right=0;align=left;spacingLeft=6;overflow=hidden;whiteSpace=wrap;html=1;rounded=0;fontFamily=Courier New;fontSize=16;strokeColor=#000000;" parent="C7LOxqXwbHzqQDy3l2-N-661" vertex="1">
          <mxGeometry x="30" width="434" height="30" as="geometry">
            <mxRectangle width="434" height="30" as="alternateBounds" />
          </mxGeometry>
        </mxCell>
        <mxCell id="a-MxpuJv2dlms3FZHuWc-1" value="" style="endArrow=none;html=1;rounded=0;entryX=0.065;entryY=0.02;entryDx=0;entryDy=0;entryPerimeter=0;exitX=0.999;exitY=1.007;exitDx=0;exitDy=0;exitPerimeter=0;dashed=1;dashPattern=1 4;" parent="C7LOxqXwbHzqQDy3l2-N-77" source="C7LOxqXwbHzqQDy3l2-N-667" target="jDI96cK5oBP2eikoeisR-64" edge="1">
          <mxGeometry width="50" height="50" relative="1" as="geometry">
            <mxPoint x="464" y="134" as="sourcePoint" />
            <mxPoint x="514" y="84" as="targetPoint" />
          </mxGeometry>
        </mxCell>
        <mxCell id="C7LOxqXwbHzqQDy3l2-N-353" value="&lt;font style=&quot;font-size: 18px;&quot;&gt;Offre_Formation&lt;/font&gt;" style="shape=table;startSize=30;container=1;collapsible=0;childLayout=tableLayout;fixedRows=1;rowLines=0;fontStyle=1;align=center;resizeLast=1;html=1;whiteSpace=wrap;fillColor=#eeeeee;strokeColor=#36393d;fontFamily=Courier New;fontSize=16;" parent="1" vertex="1">
          <mxGeometry x="-1642" y="1299" width="195" height="90" as="geometry" />
        </mxCell>
        <mxCell id="C7LOxqXwbHzqQDy3l2-N-354" value="" style="shape=tableRow;horizontal=0;startSize=0;swimlaneHead=0;swimlaneBody=0;fillColor=none;collapsible=0;dropTarget=0;points=[[0,0.5],[1,0.5]];portConstraint=eastwest;top=0;left=0;right=0;bottom=0;html=1;fontFamily=Courier New;fontSize=16;strokeColor=#000000;" parent="C7LOxqXwbHzqQDy3l2-N-353" vertex="1">
          <mxGeometry y="30" width="195" height="30" as="geometry" />
        </mxCell>
        <mxCell id="C7LOxqXwbHzqQDy3l2-N-355" value="PK,FK1" style="shape=partialRectangle;connectable=0;fillColor=none;top=0;left=0;bottom=0;right=0;fontStyle=1;overflow=hidden;html=1;whiteSpace=wrap;fontFamily=Courier New;fontSize=16;strokeColor=#000000;" parent="C7LOxqXwbHzqQDy3l2-N-354" vertex="1">
          <mxGeometry width="60" height="30" as="geometry">
            <mxRectangle width="60" height="30" as="alternateBounds" />
          </mxGeometry>
        </mxCell>
        <mxCell id="C7LOxqXwbHzqQDy3l2-N-356" value="offre_id" style="shape=partialRectangle;connectable=0;fillColor=none;top=0;left=0;bottom=0;right=0;align=left;spacingLeft=6;fontStyle=5;overflow=hidden;html=1;whiteSpace=wrap;fontFamily=Courier New;fontSize=16;strokeColor=#000000;" parent="C7LOxqXwbHzqQDy3l2-N-354" vertex="1">
          <mxGeometry x="60" width="135" height="30" as="geometry">
            <mxRectangle width="135" height="30" as="alternateBounds" />
          </mxGeometry>
        </mxCell>
        <mxCell id="C7LOxqXwbHzqQDy3l2-N-357" value="" style="shape=tableRow;horizontal=0;startSize=0;swimlaneHead=0;swimlaneBody=0;fillColor=none;collapsible=0;dropTarget=0;points=[[0,0.5],[1,0.5]];portConstraint=eastwest;top=0;left=0;right=0;bottom=1;html=1;fontFamily=Courier New;fontSize=16;strokeColor=#000000;" parent="C7LOxqXwbHzqQDy3l2-N-353" vertex="1">
          <mxGeometry y="60" width="195" height="30" as="geometry" />
        </mxCell>
        <mxCell id="C7LOxqXwbHzqQDy3l2-N-358" value="PK,FK2" style="shape=partialRectangle;connectable=0;fillColor=none;top=0;left=0;bottom=0;right=0;fontStyle=1;overflow=hidden;html=1;whiteSpace=wrap;fontFamily=Courier New;fontSize=16;strokeColor=#000000;" parent="C7LOxqXwbHzqQDy3l2-N-357" vertex="1">
          <mxGeometry width="60" height="30" as="geometry">
            <mxRectangle width="60" height="30" as="alternateBounds" />
          </mxGeometry>
        </mxCell>
        <mxCell id="C7LOxqXwbHzqQDy3l2-N-359" value="&lt;u&gt;formation_id&lt;/u&gt;" style="shape=partialRectangle;connectable=0;fillColor=none;top=0;left=0;bottom=0;right=0;align=left;spacingLeft=6;fontStyle=5;overflow=hidden;html=1;whiteSpace=wrap;fontFamily=Courier New;fontSize=16;strokeColor=#000000;" parent="C7LOxqXwbHzqQDy3l2-N-357" vertex="1">
          <mxGeometry x="60" width="135" height="30" as="geometry">
            <mxRectangle width="135" height="30" as="alternateBounds" />
          </mxGeometry>
        </mxCell>
        <mxCell id="jDI96cK5oBP2eikoeisR-46" style="edgeStyle=none;rounded=0;orthogonalLoop=1;jettySize=auto;html=1;" parent="1" source="C7LOxqXwbHzqQDy3l2-N-360" target="C7LOxqXwbHzqQDy3l2-N-353" edge="1">
          <mxGeometry relative="1" as="geometry" />
        </mxCell>
        <mxCell id="C7LOxqXwbHzqQDy3l2-N-360" value="&lt;font style=&quot;font-size: 24px;&quot;&gt;Formation&lt;/font&gt;" style="shape=table;startSize=30;container=1;collapsible=0;childLayout=tableLayout;fixedRows=1;rowLines=0;fontStyle=1;align=center;resizeLast=1;html=1;fillColor=#ffff88;strokeColor=#36393d;rounded=0;fontFamily=Courier New;fontSize=16;" parent="1" vertex="1">
          <mxGeometry x="-1753" y="1020" width="417" height="210" as="geometry" />
        </mxCell>
        <mxCell id="C7LOxqXwbHzqQDy3l2-N-361" value="" style="shape=tableRow;horizontal=0;startSize=0;swimlaneHead=0;swimlaneBody=0;fillColor=none;collapsible=0;dropTarget=0;points=[[0,0.5],[1,0.5]];portConstraint=eastwest;top=0;left=0;right=0;bottom=1;rounded=0;fontFamily=Courier New;fontSize=16;strokeColor=#000000;" parent="C7LOxqXwbHzqQDy3l2-N-360" vertex="1">
          <mxGeometry y="30" width="417" height="30" as="geometry" />
        </mxCell>
        <mxCell id="C7LOxqXwbHzqQDy3l2-N-362" value="PK" style="shape=partialRectangle;connectable=0;fillColor=none;top=0;left=0;bottom=0;right=0;fontStyle=1;overflow=hidden;whiteSpace=wrap;html=1;rounded=0;fontFamily=Courier New;fontSize=16;strokeColor=#000000;" parent="C7LOxqXwbHzqQDy3l2-N-361" vertex="1">
          <mxGeometry width="30" height="30" as="geometry">
            <mxRectangle width="30" height="30" as="alternateBounds" />
          </mxGeometry>
        </mxCell>
        <mxCell id="C7LOxqXwbHzqQDy3l2-N-363" value="&lt;u&gt;formation_id&lt;/u&gt;&amp;nbsp; &amp;nbsp; &amp;nbsp; &amp;nbsp; &amp;nbsp; &amp;nbsp; &amp;nbsp; &amp;nbsp;serial" style="shape=partialRectangle;connectable=0;fillColor=none;top=0;left=0;bottom=0;right=0;align=left;spacingLeft=6;fontStyle=1;overflow=hidden;whiteSpace=wrap;html=1;rounded=0;fontFamily=Courier New;fontSize=16;strokeColor=#000000;" parent="C7LOxqXwbHzqQDy3l2-N-361" vertex="1">
          <mxGeometry x="30" width="387" height="30" as="geometry">
            <mxRectangle width="387" height="30" as="alternateBounds" />
          </mxGeometry>
        </mxCell>
        <mxCell id="XXJla8c7RjyffmKd3PL7-7" value="" style="shape=tableRow;horizontal=0;startSize=0;swimlaneHead=0;swimlaneBody=0;fillColor=none;collapsible=0;dropTarget=0;points=[[0,0.5],[1,0.5]];portConstraint=eastwest;top=0;left=0;right=0;bottom=0;rounded=0;fontFamily=Courier New;fontSize=16;strokeColor=#000000;" parent="C7LOxqXwbHzqQDy3l2-N-360" vertex="1">
          <mxGeometry y="60" width="417" height="30" as="geometry" />
        </mxCell>
        <mxCell id="XXJla8c7RjyffmKd3PL7-8" value="" style="shape=partialRectangle;connectable=0;fillColor=none;top=0;left=0;bottom=0;right=0;editable=1;overflow=hidden;whiteSpace=wrap;html=1;rounded=0;fontFamily=Courier New;fontSize=16;strokeColor=#000000;" parent="XXJla8c7RjyffmKd3PL7-7" vertex="1">
          <mxGeometry width="30" height="30" as="geometry">
            <mxRectangle width="30" height="30" as="alternateBounds" />
          </mxGeometry>
        </mxCell>
        <mxCell id="XXJla8c7RjyffmKd3PL7-9" value="&lt;span style=&quot;background-color: transparent;&quot;&gt;formation_&lt;/span&gt;code&lt;span style=&quot;background-color: transparent;&quot;&gt;&amp;nbsp; &amp;nbsp; &amp;nbsp; &amp;nbsp; &amp;nbsp; &amp;nbsp; &amp;nbsp;&lt;/span&gt;&lt;b&gt;integer&lt;/b&gt;" style="shape=partialRectangle;connectable=0;fillColor=none;top=0;left=0;bottom=0;right=0;align=left;spacingLeft=6;overflow=hidden;whiteSpace=wrap;html=1;rounded=0;fontFamily=Courier New;fontSize=16;strokeColor=#000000;" parent="XXJla8c7RjyffmKd3PL7-7" vertex="1">
          <mxGeometry x="30" width="387" height="30" as="geometry">
            <mxRectangle width="387" height="30" as="alternateBounds" />
          </mxGeometry>
        </mxCell>
        <mxCell id="jDI96cK5oBP2eikoeisR-314" value="" style="shape=tableRow;horizontal=0;startSize=0;swimlaneHead=0;swimlaneBody=0;fillColor=none;collapsible=0;dropTarget=0;points=[[0,0.5],[1,0.5]];portConstraint=eastwest;top=0;left=0;right=0;bottom=0;rounded=0;fontFamily=Courier New;fontSize=16;strokeColor=#000000;" parent="C7LOxqXwbHzqQDy3l2-N-360" vertex="1">
          <mxGeometry y="90" width="417" height="30" as="geometry" />
        </mxCell>
        <mxCell id="jDI96cK5oBP2eikoeisR-315" value="" style="shape=partialRectangle;connectable=0;fillColor=none;top=0;left=0;bottom=0;right=0;editable=1;overflow=hidden;whiteSpace=wrap;html=1;rounded=0;fontFamily=Courier New;fontSize=16;strokeColor=#000000;" parent="jDI96cK5oBP2eikoeisR-314" vertex="1">
          <mxGeometry width="30" height="30" as="geometry">
            <mxRectangle width="30" height="30" as="alternateBounds" />
          </mxGeometry>
        </mxCell>
        <mxCell id="jDI96cK5oBP2eikoeisR-316" value="formation_&lt;span style=&quot;background-color: transparent;&quot;&gt;domaine_libelle&amp;nbsp;&amp;nbsp;&lt;/span&gt;&lt;b&gt;varchar(100)&lt;/b&gt;" style="shape=partialRectangle;connectable=0;fillColor=none;top=0;left=0;bottom=0;right=0;align=left;spacingLeft=6;overflow=hidden;whiteSpace=wrap;html=1;rounded=0;fontFamily=Courier New;fontSize=16;strokeColor=#000000;" parent="jDI96cK5oBP2eikoeisR-314" vertex="1">
          <mxGeometry x="30" width="387" height="30" as="geometry">
            <mxRectangle width="387" height="30" as="alternateBounds" />
          </mxGeometry>
        </mxCell>
        <mxCell id="jDI96cK5oBP2eikoeisR-317" value="" style="shape=tableRow;horizontal=0;startSize=0;swimlaneHead=0;swimlaneBody=0;fillColor=none;collapsible=0;dropTarget=0;points=[[0,0.5],[1,0.5]];portConstraint=eastwest;top=0;left=0;right=0;bottom=0;rounded=0;fontFamily=Courier New;fontSize=16;strokeColor=#000000;" parent="C7LOxqXwbHzqQDy3l2-N-360" vertex="1">
          <mxGeometry y="120" width="417" height="30" as="geometry" />
        </mxCell>
        <mxCell id="jDI96cK5oBP2eikoeisR-318" value="" style="shape=partialRectangle;connectable=0;fillColor=none;top=0;left=0;bottom=0;right=0;editable=1;overflow=hidden;whiteSpace=wrap;html=1;rounded=0;fontFamily=Courier New;fontSize=16;strokeColor=#000000;" parent="jDI96cK5oBP2eikoeisR-317" vertex="1">
          <mxGeometry width="30" height="30" as="geometry">
            <mxRectangle width="30" height="30" as="alternateBounds" />
          </mxGeometry>
        </mxCell>
        <mxCell id="jDI96cK5oBP2eikoeisR-319" value="formation_&lt;span style=&quot;background-color: transparent;&quot;&gt;niveau_libelle&amp;nbsp; &amp;nbsp;&lt;/span&gt;&lt;b&gt;varchar(30)&lt;/b&gt;" style="shape=partialRectangle;connectable=0;fillColor=none;top=0;left=0;bottom=0;right=0;align=left;spacingLeft=6;overflow=hidden;whiteSpace=wrap;html=1;rounded=0;fontFamily=Courier New;fontSize=16;strokeColor=#000000;" parent="jDI96cK5oBP2eikoeisR-317" vertex="1">
          <mxGeometry x="30" width="387" height="30" as="geometry">
            <mxRectangle width="387" height="30" as="alternateBounds" />
          </mxGeometry>
        </mxCell>
        <mxCell id="jDI96cK5oBP2eikoeisR-320" value="" style="shape=tableRow;horizontal=0;startSize=0;swimlaneHead=0;swimlaneBody=0;fillColor=none;collapsible=0;dropTarget=0;points=[[0,0.5],[1,0.5]];portConstraint=eastwest;top=0;left=0;right=0;bottom=0;rounded=0;fontFamily=Courier New;fontSize=16;strokeColor=#000000;" parent="C7LOxqXwbHzqQDy3l2-N-360" vertex="1">
          <mxGeometry y="150" width="417" height="30" as="geometry" />
        </mxCell>
        <mxCell id="jDI96cK5oBP2eikoeisR-321" value="" style="shape=partialRectangle;connectable=0;fillColor=none;top=0;left=0;bottom=0;right=0;editable=1;overflow=hidden;whiteSpace=wrap;html=1;rounded=0;fontFamily=Courier New;fontSize=16;strokeColor=#000000;" parent="jDI96cK5oBP2eikoeisR-320" vertex="1">
          <mxGeometry width="30" height="30" as="geometry">
            <mxRectangle width="30" height="30" as="alternateBounds" />
          </mxGeometry>
        </mxCell>
        <mxCell id="jDI96cK5oBP2eikoeisR-322" value="&lt;span style=&quot;background-color: transparent;&quot;&gt;formation_commentaire&amp;nbsp; &amp;nbsp; &amp;nbsp;&amp;nbsp;&lt;/span&gt;&lt;b&gt;varchar(100)&lt;/b&gt;" style="shape=partialRectangle;connectable=0;fillColor=none;top=0;left=0;bottom=0;right=0;align=left;spacingLeft=6;overflow=hidden;whiteSpace=wrap;html=1;rounded=0;fontFamily=Courier New;fontSize=16;strokeColor=#000000;" parent="jDI96cK5oBP2eikoeisR-320" vertex="1">
          <mxGeometry x="30" width="387" height="30" as="geometry">
            <mxRectangle width="387" height="30" as="alternateBounds" />
          </mxGeometry>
        </mxCell>
        <mxCell id="C7LOxqXwbHzqQDy3l2-N-463" value="" style="shape=tableRow;horizontal=0;startSize=0;swimlaneHead=0;swimlaneBody=0;fillColor=none;collapsible=0;dropTarget=0;points=[[0,0.5],[1,0.5]];portConstraint=eastwest;top=0;left=0;right=0;bottom=0;rounded=0;fontFamily=Courier New;fontSize=16;strokeColor=#000000;" parent="C7LOxqXwbHzqQDy3l2-N-360" vertex="1">
          <mxGeometry y="180" width="417" height="30" as="geometry" />
        </mxCell>
        <mxCell id="C7LOxqXwbHzqQDy3l2-N-464" value="" style="shape=partialRectangle;connectable=0;fillColor=none;top=0;left=0;bottom=0;right=0;editable=1;overflow=hidden;whiteSpace=wrap;html=1;rounded=0;fontFamily=Courier New;fontSize=16;strokeColor=#000000;" parent="C7LOxqXwbHzqQDy3l2-N-463" vertex="1">
          <mxGeometry width="30" height="30" as="geometry">
            <mxRectangle width="30" height="30" as="alternateBounds" />
          </mxGeometry>
        </mxCell>
        <mxCell id="C7LOxqXwbHzqQDy3l2-N-465" value="formation_code_exigence&amp;nbsp; &amp;nbsp; &lt;b&gt;varchar(1)&lt;/b&gt;" style="shape=partialRectangle;connectable=0;fillColor=none;top=0;left=0;bottom=0;right=0;align=left;spacingLeft=6;overflow=hidden;whiteSpace=wrap;html=1;rounded=0;fontFamily=Courier New;fontSize=16;strokeColor=#000000;" parent="C7LOxqXwbHzqQDy3l2-N-463" vertex="1">
          <mxGeometry x="30" width="387" height="30" as="geometry">
            <mxRectangle width="387" height="30" as="alternateBounds" />
          </mxGeometry>
        </mxCell>
        <mxCell id="C7LOxqXwbHzqQDy3l2-N-383" value="&lt;font style=&quot;font-size: 18px;&quot;&gt;Offre_Qualification&lt;/font&gt;" style="shape=table;startSize=30;container=1;collapsible=0;childLayout=tableLayout;fixedRows=1;rowLines=0;fontStyle=1;align=center;resizeLast=1;html=1;whiteSpace=wrap;fillColor=#eeeeee;strokeColor=#36393d;fontFamily=Courier New;fontSize=16;" parent="1" vertex="1">
          <mxGeometry x="-2123" y="1246" width="270" height="90" as="geometry" />
        </mxCell>
        <mxCell id="C7LOxqXwbHzqQDy3l2-N-384" value="" style="shape=tableRow;horizontal=0;startSize=0;swimlaneHead=0;swimlaneBody=0;fillColor=none;collapsible=0;dropTarget=0;points=[[0,0.5],[1,0.5]];portConstraint=eastwest;top=0;left=0;right=0;bottom=0;html=1;fontFamily=Courier New;fontSize=16;strokeColor=#000000;" parent="C7LOxqXwbHzqQDy3l2-N-383" vertex="1">
          <mxGeometry y="30" width="270" height="30" as="geometry" />
        </mxCell>
        <mxCell id="C7LOxqXwbHzqQDy3l2-N-385" value="PK,FK1" style="shape=partialRectangle;connectable=0;fillColor=none;top=0;left=0;bottom=0;right=0;fontStyle=1;overflow=hidden;html=1;whiteSpace=wrap;fontFamily=Courier New;fontSize=16;strokeColor=#000000;" parent="C7LOxqXwbHzqQDy3l2-N-384" vertex="1">
          <mxGeometry width="60" height="30" as="geometry">
            <mxRectangle width="60" height="30" as="alternateBounds" />
          </mxGeometry>
        </mxCell>
        <mxCell id="C7LOxqXwbHzqQDy3l2-N-386" value="offre_id" style="shape=partialRectangle;connectable=0;fillColor=none;top=0;left=0;bottom=0;right=0;align=left;spacingLeft=6;fontStyle=5;overflow=hidden;html=1;whiteSpace=wrap;fontFamily=Courier New;fontSize=16;strokeColor=#000000;" parent="C7LOxqXwbHzqQDy3l2-N-384" vertex="1">
          <mxGeometry x="60" width="210" height="30" as="geometry">
            <mxRectangle width="210" height="30" as="alternateBounds" />
          </mxGeometry>
        </mxCell>
        <mxCell id="C7LOxqXwbHzqQDy3l2-N-387" value="" style="shape=tableRow;horizontal=0;startSize=0;swimlaneHead=0;swimlaneBody=0;fillColor=none;collapsible=0;dropTarget=0;points=[[0,0.5],[1,0.5]];portConstraint=eastwest;top=0;left=0;right=0;bottom=1;html=1;fontFamily=Courier New;fontSize=16;strokeColor=#000000;" parent="C7LOxqXwbHzqQDy3l2-N-383" vertex="1">
          <mxGeometry y="60" width="270" height="30" as="geometry" />
        </mxCell>
        <mxCell id="C7LOxqXwbHzqQDy3l2-N-388" value="PK,FK2" style="shape=partialRectangle;connectable=0;fillColor=none;top=0;left=0;bottom=0;right=0;fontStyle=1;overflow=hidden;html=1;whiteSpace=wrap;fontFamily=Courier New;fontSize=16;strokeColor=#000000;" parent="C7LOxqXwbHzqQDy3l2-N-387" vertex="1">
          <mxGeometry width="60" height="30" as="geometry">
            <mxRectangle width="60" height="30" as="alternateBounds" />
          </mxGeometry>
        </mxCell>
        <mxCell id="C7LOxqXwbHzqQDy3l2-N-389" value="qualification_code" style="shape=partialRectangle;connectable=0;fillColor=none;top=0;left=0;bottom=0;right=0;align=left;spacingLeft=6;fontStyle=5;overflow=hidden;html=1;whiteSpace=wrap;fontFamily=Courier New;fontSize=16;strokeColor=#000000;" parent="C7LOxqXwbHzqQDy3l2-N-387" vertex="1">
          <mxGeometry x="60" width="210" height="30" as="geometry">
            <mxRectangle width="210" height="30" as="alternateBounds" />
          </mxGeometry>
        </mxCell>
        <mxCell id="jDI96cK5oBP2eikoeisR-49" style="edgeStyle=none;rounded=0;orthogonalLoop=1;jettySize=auto;html=1;entryX=-0.089;entryY=0.742;entryDx=0;entryDy=0;entryPerimeter=0;" parent="1" source="C7LOxqXwbHzqQDy3l2-N-390" target="jDI96cK5oBP2eikoeisR-259" edge="1">
          <mxGeometry relative="1" as="geometry">
            <mxPoint x="-1986.5357142857138" y="1230" as="targetPoint" />
          </mxGeometry>
        </mxCell>
        <mxCell id="C7LOxqXwbHzqQDy3l2-N-390" value="&lt;font style=&quot;font-size: 24px;&quot;&gt;Qualification&lt;/font&gt;" style="shape=table;startSize=30;container=1;collapsible=0;childLayout=tableLayout;fixedRows=1;rowLines=0;fontStyle=1;align=center;resizeLast=1;html=1;fillColor=#ffff88;strokeColor=#36393d;rounded=0;fontFamily=Courier New;fontSize=16;" parent="1" vertex="1">
          <mxGeometry x="-2179" y="1021" width="381" height="90" as="geometry" />
        </mxCell>
        <mxCell id="C7LOxqXwbHzqQDy3l2-N-391" value="" style="shape=tableRow;horizontal=0;startSize=0;swimlaneHead=0;swimlaneBody=0;fillColor=none;collapsible=0;dropTarget=0;points=[[0,0.5],[1,0.5]];portConstraint=eastwest;top=0;left=0;right=0;bottom=1;rounded=0;fontFamily=Courier New;fontSize=16;strokeColor=#000000;" parent="C7LOxqXwbHzqQDy3l2-N-390" vertex="1">
          <mxGeometry y="30" width="381" height="30" as="geometry" />
        </mxCell>
        <mxCell id="C7LOxqXwbHzqQDy3l2-N-392" value="PK" style="shape=partialRectangle;connectable=0;fillColor=none;top=0;left=0;bottom=0;right=0;fontStyle=1;overflow=hidden;whiteSpace=wrap;html=1;rounded=0;fontFamily=Courier New;fontSize=16;strokeColor=#000000;" parent="C7LOxqXwbHzqQDy3l2-N-391" vertex="1">
          <mxGeometry width="30" height="30" as="geometry">
            <mxRectangle width="30" height="30" as="alternateBounds" />
          </mxGeometry>
        </mxCell>
        <mxCell id="C7LOxqXwbHzqQDy3l2-N-393" value="&lt;b&gt;&lt;u&gt;qualification_code&lt;/u&gt;&lt;/b&gt;&lt;span style=&quot;font-weight: 400;&quot;&gt;&amp;nbsp; &amp;nbsp; &amp;nbsp;&lt;/span&gt;&lt;b&gt;integer&lt;/b&gt;" style="shape=partialRectangle;connectable=0;fillColor=none;top=0;left=0;bottom=0;right=0;align=left;spacingLeft=6;fontStyle=1;overflow=hidden;whiteSpace=wrap;html=1;rounded=0;fontFamily=Courier New;fontSize=16;strokeColor=#000000;" parent="C7LOxqXwbHzqQDy3l2-N-391" vertex="1">
          <mxGeometry x="30" width="351" height="30" as="geometry">
            <mxRectangle width="351" height="30" as="alternateBounds" />
          </mxGeometry>
        </mxCell>
        <mxCell id="jDI96cK5oBP2eikoeisR-26" value="" style="shape=tableRow;horizontal=0;startSize=0;swimlaneHead=0;swimlaneBody=0;fillColor=none;collapsible=0;dropTarget=0;points=[[0,0.5],[1,0.5]];portConstraint=eastwest;top=0;left=0;right=0;bottom=0;rounded=0;fontFamily=Courier New;fontSize=16;strokeColor=#000000;" parent="C7LOxqXwbHzqQDy3l2-N-390" vertex="1">
          <mxGeometry y="60" width="381" height="30" as="geometry" />
        </mxCell>
        <mxCell id="jDI96cK5oBP2eikoeisR-27" value="" style="shape=partialRectangle;connectable=0;fillColor=none;top=0;left=0;bottom=0;right=0;editable=1;overflow=hidden;whiteSpace=wrap;html=1;rounded=0;fontFamily=Courier New;fontSize=16;strokeColor=#000000;" parent="jDI96cK5oBP2eikoeisR-26" vertex="1">
          <mxGeometry width="30" height="30" as="geometry">
            <mxRectangle width="30" height="30" as="alternateBounds" />
          </mxGeometry>
        </mxCell>
        <mxCell id="jDI96cK5oBP2eikoeisR-28" value="qualification_libelle&amp;nbsp; &lt;b&gt;varchar(100)&lt;/b&gt;" style="shape=partialRectangle;connectable=0;fillColor=none;top=0;left=0;bottom=0;right=0;align=left;spacingLeft=6;overflow=hidden;whiteSpace=wrap;html=1;rounded=0;fontFamily=Courier New;fontSize=16;strokeColor=#000000;" parent="jDI96cK5oBP2eikoeisR-26" vertex="1">
          <mxGeometry x="30" width="351" height="30" as="geometry">
            <mxRectangle width="351" height="30" as="alternateBounds" />
          </mxGeometry>
        </mxCell>
        <mxCell id="C7LOxqXwbHzqQDy3l2-N-423" value="&lt;font style=&quot;font-size: 18px;&quot;&gt;Offre_Competence&lt;/font&gt;" style="shape=table;startSize=30;container=1;collapsible=0;childLayout=tableLayout;fixedRows=1;rowLines=0;fontStyle=1;align=center;resizeLast=1;html=1;whiteSpace=wrap;fillColor=#eeeeee;strokeColor=#36393d;fontFamily=Courier New;fontSize=16;" parent="1" vertex="1">
          <mxGeometry x="-3542.75" y="1248" width="244.5" height="90" as="geometry" />
        </mxCell>
        <mxCell id="C7LOxqXwbHzqQDy3l2-N-424" value="" style="shape=tableRow;horizontal=0;startSize=0;swimlaneHead=0;swimlaneBody=0;fillColor=none;collapsible=0;dropTarget=0;points=[[0,0.5],[1,0.5]];portConstraint=eastwest;top=0;left=0;right=0;bottom=0;html=1;fontFamily=Courier New;fontSize=16;strokeColor=#000000;" parent="C7LOxqXwbHzqQDy3l2-N-423" vertex="1">
          <mxGeometry y="30" width="244.5" height="30" as="geometry" />
        </mxCell>
        <mxCell id="C7LOxqXwbHzqQDy3l2-N-425" value="PK,FK1" style="shape=partialRectangle;connectable=0;fillColor=none;top=0;left=0;bottom=0;right=0;fontStyle=1;overflow=hidden;html=1;whiteSpace=wrap;fontFamily=Courier New;fontSize=16;strokeColor=#000000;" parent="C7LOxqXwbHzqQDy3l2-N-424" vertex="1">
          <mxGeometry width="60" height="30" as="geometry">
            <mxRectangle width="60" height="30" as="alternateBounds" />
          </mxGeometry>
        </mxCell>
        <mxCell id="C7LOxqXwbHzqQDy3l2-N-426" value="offre_id" style="shape=partialRectangle;connectable=0;fillColor=none;top=0;left=0;bottom=0;right=0;align=left;spacingLeft=6;fontStyle=5;overflow=hidden;html=1;whiteSpace=wrap;fontFamily=Courier New;fontSize=16;strokeColor=#000000;" parent="C7LOxqXwbHzqQDy3l2-N-424" vertex="1">
          <mxGeometry x="60" width="184.5" height="30" as="geometry">
            <mxRectangle width="184.5" height="30" as="alternateBounds" />
          </mxGeometry>
        </mxCell>
        <mxCell id="C7LOxqXwbHzqQDy3l2-N-427" value="" style="shape=tableRow;horizontal=0;startSize=0;swimlaneHead=0;swimlaneBody=0;fillColor=none;collapsible=0;dropTarget=0;points=[[0,0.5],[1,0.5]];portConstraint=eastwest;top=0;left=0;right=0;bottom=1;html=1;fontFamily=Courier New;fontSize=16;strokeColor=#000000;" parent="C7LOxqXwbHzqQDy3l2-N-423" vertex="1">
          <mxGeometry y="60" width="244.5" height="30" as="geometry" />
        </mxCell>
        <mxCell id="C7LOxqXwbHzqQDy3l2-N-428" value="PK,FK2" style="shape=partialRectangle;connectable=0;fillColor=none;top=0;left=0;bottom=0;right=0;fontStyle=1;overflow=hidden;html=1;whiteSpace=wrap;fontFamily=Courier New;fontSize=16;strokeColor=#000000;" parent="C7LOxqXwbHzqQDy3l2-N-427" vertex="1">
          <mxGeometry width="60" height="30" as="geometry">
            <mxRectangle width="60" height="30" as="alternateBounds" />
          </mxGeometry>
        </mxCell>
        <mxCell id="C7LOxqXwbHzqQDy3l2-N-429" value="competence_id" style="shape=partialRectangle;connectable=0;fillColor=none;top=0;left=0;bottom=0;right=0;align=left;spacingLeft=6;fontStyle=5;overflow=hidden;html=1;whiteSpace=wrap;fontFamily=Courier New;fontSize=16;strokeColor=#000000;" parent="C7LOxqXwbHzqQDy3l2-N-427" vertex="1">
          <mxGeometry x="60" width="184.5" height="30" as="geometry">
            <mxRectangle width="184.5" height="30" as="alternateBounds" />
          </mxGeometry>
        </mxCell>
        <mxCell id="jDI96cK5oBP2eikoeisR-41" style="edgeStyle=none;rounded=0;orthogonalLoop=1;jettySize=auto;html=1;" parent="1" source="C7LOxqXwbHzqQDy3l2-N-430" target="C7LOxqXwbHzqQDy3l2-N-423" edge="1">
          <mxGeometry relative="1" as="geometry" />
        </mxCell>
        <mxCell id="C7LOxqXwbHzqQDy3l2-N-430" value="&lt;span style=&quot;font-size: 24px;&quot;&gt;Competence&lt;/span&gt;" style="shape=table;startSize=30;container=1;collapsible=0;childLayout=tableLayout;fixedRows=1;rowLines=0;fontStyle=1;align=center;resizeLast=1;html=1;rounded=0;fontFamily=Courier New;fontSize=16;fillColor=#ffff88;strokeColor=#36393d;" parent="1" vertex="1">
          <mxGeometry x="-3622" y="1018" width="403" height="150" as="geometry" />
        </mxCell>
        <mxCell id="C7LOxqXwbHzqQDy3l2-N-431" value="" style="shape=tableRow;horizontal=0;startSize=0;swimlaneHead=0;swimlaneBody=0;fillColor=none;collapsible=0;dropTarget=0;points=[[0,0.5],[1,0.5]];portConstraint=eastwest;top=0;left=0;right=0;bottom=1;rounded=0;fontFamily=Courier New;fontSize=16;strokeColor=#000000;" parent="C7LOxqXwbHzqQDy3l2-N-430" vertex="1">
          <mxGeometry y="30" width="403" height="30" as="geometry" />
        </mxCell>
        <mxCell id="C7LOxqXwbHzqQDy3l2-N-432" value="PK" style="shape=partialRectangle;connectable=0;fillColor=none;top=0;left=0;bottom=0;right=0;fontStyle=1;overflow=hidden;whiteSpace=wrap;html=1;rounded=0;fontFamily=Courier New;fontSize=16;strokeColor=#000000;" parent="C7LOxqXwbHzqQDy3l2-N-431" vertex="1">
          <mxGeometry width="30" height="30" as="geometry">
            <mxRectangle width="30" height="30" as="alternateBounds" />
          </mxGeometry>
        </mxCell>
        <mxCell id="C7LOxqXwbHzqQDy3l2-N-433" value="&lt;u&gt;competence_id&lt;/u&gt;&amp;nbsp; &amp;nbsp; &amp;nbsp; &amp;nbsp; &amp;nbsp; &amp;nbsp; &amp;nbsp;serial" style="shape=partialRectangle;connectable=0;fillColor=none;top=0;left=0;bottom=0;right=0;align=left;spacingLeft=6;fontStyle=1;overflow=hidden;whiteSpace=wrap;html=1;rounded=0;fontFamily=Courier New;fontSize=16;strokeColor=#000000;" parent="C7LOxqXwbHzqQDy3l2-N-431" vertex="1">
          <mxGeometry x="30" width="373" height="30" as="geometry">
            <mxRectangle width="373" height="30" as="alternateBounds" />
          </mxGeometry>
        </mxCell>
        <mxCell id="C7LOxqXwbHzqQDy3l2-N-437" value="" style="shape=tableRow;horizontal=0;startSize=0;swimlaneHead=0;swimlaneBody=0;fillColor=none;collapsible=0;dropTarget=0;points=[[0,0.5],[1,0.5]];portConstraint=eastwest;top=0;left=0;right=0;bottom=0;rounded=0;fontFamily=Courier New;fontSize=16;strokeColor=#000000;" parent="C7LOxqXwbHzqQDy3l2-N-430" vertex="1">
          <mxGeometry y="60" width="403" height="30" as="geometry" />
        </mxCell>
        <mxCell id="C7LOxqXwbHzqQDy3l2-N-438" value="" style="shape=partialRectangle;connectable=0;fillColor=none;top=0;left=0;bottom=0;right=0;editable=1;overflow=hidden;whiteSpace=wrap;html=1;rounded=0;fontFamily=Courier New;fontSize=16;strokeColor=#000000;" parent="C7LOxqXwbHzqQDy3l2-N-437" vertex="1">
          <mxGeometry width="30" height="30" as="geometry">
            <mxRectangle width="30" height="30" as="alternateBounds" />
          </mxGeometry>
        </mxCell>
        <mxCell id="C7LOxqXwbHzqQDy3l2-N-439" value="competence_code&amp;nbsp; &amp;nbsp; &amp;nbsp; &amp;nbsp; &amp;nbsp; &amp;nbsp;&lt;b&gt;integer&lt;/b&gt;" style="shape=partialRectangle;connectable=0;fillColor=none;top=0;left=0;bottom=0;right=0;align=left;spacingLeft=6;overflow=hidden;whiteSpace=wrap;html=1;rounded=0;fontFamily=Courier New;fontSize=16;strokeColor=#000000;" parent="C7LOxqXwbHzqQDy3l2-N-437" vertex="1">
          <mxGeometry x="30" width="373" height="30" as="geometry">
            <mxRectangle width="373" height="30" as="alternateBounds" />
          </mxGeometry>
        </mxCell>
        <mxCell id="C7LOxqXwbHzqQDy3l2-N-457" value="" style="shape=tableRow;horizontal=0;startSize=0;swimlaneHead=0;swimlaneBody=0;fillColor=none;collapsible=0;dropTarget=0;points=[[0,0.5],[1,0.5]];portConstraint=eastwest;top=0;left=0;right=0;bottom=0;rounded=0;fontFamily=Courier New;fontSize=16;strokeColor=#000000;" parent="C7LOxqXwbHzqQDy3l2-N-430" vertex="1">
          <mxGeometry y="90" width="403" height="30" as="geometry" />
        </mxCell>
        <mxCell id="C7LOxqXwbHzqQDy3l2-N-458" value="" style="shape=partialRectangle;connectable=0;fillColor=none;top=0;left=0;bottom=0;right=0;editable=1;overflow=hidden;whiteSpace=wrap;html=1;rounded=0;fontFamily=Courier New;fontSize=16;strokeColor=#000000;" parent="C7LOxqXwbHzqQDy3l2-N-457" vertex="1">
          <mxGeometry width="30" height="30" as="geometry">
            <mxRectangle width="30" height="30" as="alternateBounds" />
          </mxGeometry>
        </mxCell>
        <mxCell id="C7LOxqXwbHzqQDy3l2-N-459" value="&lt;div&gt;&lt;span style=&quot;background-color: transparent;&quot;&gt;competence_libelle&lt;/span&gt;&lt;span style=&quot;background-color: transparent;&quot;&gt;&amp;nbsp; &amp;nbsp; &amp;nbsp; &amp;nbsp; &lt;/span&gt;&lt;b&gt;varchar(100&lt;/b&gt;&lt;b style=&quot;background-color: transparent; color: light-dark(rgb(0, 0, 0), rgb(255, 255, 255));&quot;&gt;)&lt;/b&gt;&lt;/div&gt;" style="shape=partialRectangle;connectable=0;fillColor=none;top=0;left=0;bottom=0;right=0;align=left;spacingLeft=6;overflow=hidden;whiteSpace=wrap;html=1;rounded=0;fontFamily=Courier New;fontSize=16;strokeColor=#000000;" parent="C7LOxqXwbHzqQDy3l2-N-457" vertex="1">
          <mxGeometry x="30" width="373" height="30" as="geometry">
            <mxRectangle width="373" height="30" as="alternateBounds" />
          </mxGeometry>
        </mxCell>
        <mxCell id="C7LOxqXwbHzqQDy3l2-N-472" value="" style="shape=tableRow;horizontal=0;startSize=0;swimlaneHead=0;swimlaneBody=0;fillColor=none;collapsible=0;dropTarget=0;points=[[0,0.5],[1,0.5]];portConstraint=eastwest;top=0;left=0;right=0;bottom=0;rounded=0;fontFamily=Courier New;fontSize=16;strokeColor=#000000;" parent="C7LOxqXwbHzqQDy3l2-N-430" vertex="1">
          <mxGeometry y="120" width="403" height="30" as="geometry" />
        </mxCell>
        <mxCell id="C7LOxqXwbHzqQDy3l2-N-473" value="" style="shape=partialRectangle;connectable=0;fillColor=none;top=0;left=0;bottom=0;right=0;editable=1;overflow=hidden;whiteSpace=wrap;html=1;rounded=0;fontFamily=Courier New;fontSize=16;strokeColor=#000000;" parent="C7LOxqXwbHzqQDy3l2-N-472" vertex="1">
          <mxGeometry width="30" height="30" as="geometry">
            <mxRectangle width="30" height="30" as="alternateBounds" />
          </mxGeometry>
        </mxCell>
        <mxCell id="C7LOxqXwbHzqQDy3l2-N-474" value="&lt;div&gt;competence_code_exigence&amp;nbsp;&amp;nbsp;&lt;b&gt;varchar(1)&lt;/b&gt;&lt;/div&gt;" style="shape=partialRectangle;connectable=0;fillColor=none;top=0;left=0;bottom=0;right=0;align=left;spacingLeft=6;overflow=hidden;whiteSpace=wrap;html=1;rounded=0;fontFamily=Courier New;fontSize=16;strokeColor=#000000;" parent="C7LOxqXwbHzqQDy3l2-N-472" vertex="1">
          <mxGeometry x="30" width="373" height="30" as="geometry">
            <mxRectangle width="373" height="30" as="alternateBounds" />
          </mxGeometry>
        </mxCell>
        <mxCell id="C7LOxqXwbHzqQDy3l2-N-478" value="&lt;font style=&quot;font-size: 18px;&quot;&gt;Offre_QualiteProfessionnelle&lt;/font&gt;" style="shape=table;startSize=30;container=1;collapsible=0;childLayout=tableLayout;fixedRows=1;rowLines=0;fontStyle=1;align=center;resizeLast=1;html=1;whiteSpace=wrap;fillColor=#eeeeee;strokeColor=#36393d;fontFamily=Courier New;fontSize=16;" parent="1" vertex="1">
          <mxGeometry x="-2639" y="1248" width="330" height="90" as="geometry" />
        </mxCell>
        <mxCell id="C7LOxqXwbHzqQDy3l2-N-479" value="" style="shape=tableRow;horizontal=0;startSize=0;swimlaneHead=0;swimlaneBody=0;fillColor=none;collapsible=0;dropTarget=0;points=[[0,0.5],[1,0.5]];portConstraint=eastwest;top=0;left=0;right=0;bottom=0;html=1;fontFamily=Courier New;fontSize=16;strokeColor=#000000;" parent="C7LOxqXwbHzqQDy3l2-N-478" vertex="1">
          <mxGeometry y="30" width="330" height="30" as="geometry" />
        </mxCell>
        <mxCell id="C7LOxqXwbHzqQDy3l2-N-480" value="PK,FK1" style="shape=partialRectangle;connectable=0;fillColor=none;top=0;left=0;bottom=0;right=0;fontStyle=1;overflow=hidden;html=1;whiteSpace=wrap;fontFamily=Courier New;fontSize=16;strokeColor=#000000;" parent="C7LOxqXwbHzqQDy3l2-N-479" vertex="1">
          <mxGeometry width="60" height="30" as="geometry">
            <mxRectangle width="60" height="30" as="alternateBounds" />
          </mxGeometry>
        </mxCell>
        <mxCell id="C7LOxqXwbHzqQDy3l2-N-481" value="offre_id" style="shape=partialRectangle;connectable=0;fillColor=none;top=0;left=0;bottom=0;right=0;align=left;spacingLeft=6;fontStyle=5;overflow=hidden;html=1;whiteSpace=wrap;fontFamily=Courier New;fontSize=16;strokeColor=#000000;" parent="C7LOxqXwbHzqQDy3l2-N-479" vertex="1">
          <mxGeometry x="60" width="270" height="30" as="geometry">
            <mxRectangle width="270" height="30" as="alternateBounds" />
          </mxGeometry>
        </mxCell>
        <mxCell id="C7LOxqXwbHzqQDy3l2-N-482" value="" style="shape=tableRow;horizontal=0;startSize=0;swimlaneHead=0;swimlaneBody=0;fillColor=none;collapsible=0;dropTarget=0;points=[[0,0.5],[1,0.5]];portConstraint=eastwest;top=0;left=0;right=0;bottom=1;html=1;fontFamily=Courier New;fontSize=16;strokeColor=#000000;" parent="C7LOxqXwbHzqQDy3l2-N-478" vertex="1">
          <mxGeometry y="60" width="330" height="30" as="geometry" />
        </mxCell>
        <mxCell id="C7LOxqXwbHzqQDy3l2-N-483" value="PK,FK2" style="shape=partialRectangle;connectable=0;fillColor=none;top=0;left=0;bottom=0;right=0;fontStyle=1;overflow=hidden;html=1;whiteSpace=wrap;fontFamily=Courier New;fontSize=16;strokeColor=#000000;" parent="C7LOxqXwbHzqQDy3l2-N-482" vertex="1">
          <mxGeometry width="60" height="30" as="geometry">
            <mxRectangle width="60" height="30" as="alternateBounds" />
          </mxGeometry>
        </mxCell>
        <mxCell id="C7LOxqXwbHzqQDy3l2-N-484" value="&lt;u style=&quot;color: light-dark(rgb(0, 0, 0), rgb(255, 255, 255)); background-color: transparent;&quot;&gt;qualite_professionnelle_id&lt;/u&gt;" style="shape=partialRectangle;connectable=0;fillColor=none;top=0;left=0;bottom=0;right=0;align=left;spacingLeft=6;fontStyle=5;overflow=hidden;html=1;whiteSpace=wrap;fontFamily=Courier New;fontSize=16;strokeColor=#000000;" parent="C7LOxqXwbHzqQDy3l2-N-482" vertex="1">
          <mxGeometry x="60" width="270" height="30" as="geometry">
            <mxRectangle width="270" height="30" as="alternateBounds" />
          </mxGeometry>
        </mxCell>
        <mxCell id="C7LOxqXwbHzqQDy3l2-N-498" value="&lt;font style=&quot;font-size: 18px;&quot;&gt;Offre_PermisConduire&lt;/font&gt;" style="shape=table;startSize=30;container=1;collapsible=0;childLayout=tableLayout;fixedRows=1;rowLines=0;fontStyle=1;align=center;resizeLast=1;html=1;whiteSpace=wrap;fillColor=#eeeeee;strokeColor=#36393d;fontFamily=Courier New;fontSize=16;" parent="1" vertex="1">
          <mxGeometry x="-2084" y="1480" width="270" height="90" as="geometry" />
        </mxCell>
        <mxCell id="C7LOxqXwbHzqQDy3l2-N-499" value="" style="shape=tableRow;horizontal=0;startSize=0;swimlaneHead=0;swimlaneBody=0;fillColor=none;collapsible=0;dropTarget=0;points=[[0,0.5],[1,0.5]];portConstraint=eastwest;top=0;left=0;right=0;bottom=0;html=1;fontFamily=Courier New;fontSize=16;strokeColor=#000000;" parent="C7LOxqXwbHzqQDy3l2-N-498" vertex="1">
          <mxGeometry y="30" width="270" height="30" as="geometry" />
        </mxCell>
        <mxCell id="C7LOxqXwbHzqQDy3l2-N-500" value="PK,FK1" style="shape=partialRectangle;connectable=0;fillColor=none;top=0;left=0;bottom=0;right=0;fontStyle=1;overflow=hidden;html=1;whiteSpace=wrap;fontFamily=Courier New;fontSize=16;strokeColor=#000000;" parent="C7LOxqXwbHzqQDy3l2-N-499" vertex="1">
          <mxGeometry width="60" height="30" as="geometry">
            <mxRectangle width="60" height="30" as="alternateBounds" />
          </mxGeometry>
        </mxCell>
        <mxCell id="C7LOxqXwbHzqQDy3l2-N-501" value="offre_id" style="shape=partialRectangle;connectable=0;fillColor=none;top=0;left=0;bottom=0;right=0;align=left;spacingLeft=6;fontStyle=5;overflow=hidden;html=1;whiteSpace=wrap;fontFamily=Courier New;fontSize=16;strokeColor=#000000;" parent="C7LOxqXwbHzqQDy3l2-N-499" vertex="1">
          <mxGeometry x="60" width="210" height="30" as="geometry">
            <mxRectangle width="210" height="30" as="alternateBounds" />
          </mxGeometry>
        </mxCell>
        <mxCell id="C7LOxqXwbHzqQDy3l2-N-502" value="" style="shape=tableRow;horizontal=0;startSize=0;swimlaneHead=0;swimlaneBody=0;fillColor=none;collapsible=0;dropTarget=0;points=[[0,0.5],[1,0.5]];portConstraint=eastwest;top=0;left=0;right=0;bottom=1;html=1;fontFamily=Courier New;fontSize=16;strokeColor=#000000;" parent="C7LOxqXwbHzqQDy3l2-N-498" vertex="1">
          <mxGeometry y="60" width="270" height="30" as="geometry" />
        </mxCell>
        <mxCell id="C7LOxqXwbHzqQDy3l2-N-503" value="PK,FK2" style="shape=partialRectangle;connectable=0;fillColor=none;top=0;left=0;bottom=0;right=0;fontStyle=1;overflow=hidden;html=1;whiteSpace=wrap;fontFamily=Courier New;fontSize=16;strokeColor=#000000;" parent="C7LOxqXwbHzqQDy3l2-N-502" vertex="1">
          <mxGeometry width="60" height="30" as="geometry">
            <mxRectangle width="60" height="30" as="alternateBounds" />
          </mxGeometry>
        </mxCell>
        <mxCell id="C7LOxqXwbHzqQDy3l2-N-504" value="permis_conduire_id" style="shape=partialRectangle;connectable=0;fillColor=none;top=0;left=0;bottom=0;right=0;align=left;spacingLeft=6;fontStyle=5;overflow=hidden;html=1;whiteSpace=wrap;fontFamily=Courier New;fontSize=16;strokeColor=#000000;" parent="C7LOxqXwbHzqQDy3l2-N-502" vertex="1">
          <mxGeometry x="60" width="210" height="30" as="geometry">
            <mxRectangle width="210" height="30" as="alternateBounds" />
          </mxGeometry>
        </mxCell>
        <mxCell id="C7LOxqXwbHzqQDy3l2-N-505" value="&lt;font style=&quot;font-size: 24px;&quot;&gt;PermisConduire&lt;/font&gt;" style="shape=table;startSize=30;container=1;collapsible=0;childLayout=tableLayout;fixedRows=1;rowLines=0;fontStyle=1;align=center;resizeLast=1;html=1;fillColor=#ffff88;strokeColor=#36393d;rounded=0;fontFamily=Courier New;fontSize=16;" parent="1" vertex="1">
          <mxGeometry x="-1702" y="1476.5" width="368" height="120" as="geometry" />
        </mxCell>
        <mxCell id="C7LOxqXwbHzqQDy3l2-N-506" value="" style="shape=tableRow;horizontal=0;startSize=0;swimlaneHead=0;swimlaneBody=0;fillColor=none;collapsible=0;dropTarget=0;points=[[0,0.5],[1,0.5]];portConstraint=eastwest;top=0;left=0;right=0;bottom=1;rounded=0;fontFamily=Courier New;fontSize=16;strokeColor=#000000;" parent="C7LOxqXwbHzqQDy3l2-N-505" vertex="1">
          <mxGeometry y="30" width="368" height="30" as="geometry" />
        </mxCell>
        <mxCell id="C7LOxqXwbHzqQDy3l2-N-507" value="PK" style="shape=partialRectangle;connectable=0;fillColor=none;top=0;left=0;bottom=0;right=0;fontStyle=1;overflow=hidden;whiteSpace=wrap;html=1;rounded=0;fontFamily=Courier New;fontSize=16;strokeColor=#000000;" parent="C7LOxqXwbHzqQDy3l2-N-506" vertex="1">
          <mxGeometry width="30" height="30" as="geometry">
            <mxRectangle width="30" height="30" as="alternateBounds" />
          </mxGeometry>
        </mxCell>
        <mxCell id="C7LOxqXwbHzqQDy3l2-N-508" value="&lt;u&gt;permis_id&lt;/u&gt;&amp;nbsp; &amp;nbsp; &amp;nbsp; &amp;nbsp; &amp;nbsp; &amp;nbsp; &amp;nbsp;serial" style="shape=partialRectangle;connectable=0;fillColor=none;top=0;left=0;bottom=0;right=0;align=left;spacingLeft=6;fontStyle=1;overflow=hidden;whiteSpace=wrap;html=1;rounded=0;fontFamily=Courier New;fontSize=16;strokeColor=#000000;" parent="C7LOxqXwbHzqQDy3l2-N-506" vertex="1">
          <mxGeometry x="30" width="338" height="30" as="geometry">
            <mxRectangle width="338" height="30" as="alternateBounds" />
          </mxGeometry>
        </mxCell>
        <mxCell id="C7LOxqXwbHzqQDy3l2-N-509" value="" style="shape=tableRow;horizontal=0;startSize=0;swimlaneHead=0;swimlaneBody=0;fillColor=none;collapsible=0;dropTarget=0;points=[[0,0.5],[1,0.5]];portConstraint=eastwest;top=0;left=0;right=0;bottom=0;rounded=0;fontFamily=Courier New;fontSize=16;strokeColor=#000000;" parent="C7LOxqXwbHzqQDy3l2-N-505" vertex="1">
          <mxGeometry y="60" width="368" height="30" as="geometry" />
        </mxCell>
        <mxCell id="C7LOxqXwbHzqQDy3l2-N-510" value="" style="shape=partialRectangle;connectable=0;fillColor=none;top=0;left=0;bottom=0;right=0;editable=1;overflow=hidden;whiteSpace=wrap;html=1;rounded=0;fontFamily=Courier New;fontSize=16;strokeColor=#000000;" parent="C7LOxqXwbHzqQDy3l2-N-509" vertex="1">
          <mxGeometry width="30" height="30" as="geometry">
            <mxRectangle width="30" height="30" as="alternateBounds" />
          </mxGeometry>
        </mxCell>
        <mxCell id="C7LOxqXwbHzqQDy3l2-N-511" value="permis_libelle&amp;nbsp; &amp;nbsp; &amp;nbsp; &amp;nbsp; &lt;b&gt;varchar(100)&lt;/b&gt;" style="shape=partialRectangle;connectable=0;fillColor=none;top=0;left=0;bottom=0;right=0;align=left;spacingLeft=6;overflow=hidden;whiteSpace=wrap;html=1;rounded=0;fontFamily=Courier New;fontSize=16;strokeColor=#000000;" parent="C7LOxqXwbHzqQDy3l2-N-509" vertex="1">
          <mxGeometry x="30" width="338" height="30" as="geometry">
            <mxRectangle width="338" height="30" as="alternateBounds" />
          </mxGeometry>
        </mxCell>
        <mxCell id="C7LOxqXwbHzqQDy3l2-N-512" value="" style="shape=tableRow;horizontal=0;startSize=0;swimlaneHead=0;swimlaneBody=0;fillColor=none;collapsible=0;dropTarget=0;points=[[0,0.5],[1,0.5]];portConstraint=eastwest;top=0;left=0;right=0;bottom=0;rounded=0;fontFamily=Courier New;fontSize=16;strokeColor=#000000;" parent="C7LOxqXwbHzqQDy3l2-N-505" vertex="1">
          <mxGeometry y="90" width="368" height="30" as="geometry" />
        </mxCell>
        <mxCell id="C7LOxqXwbHzqQDy3l2-N-513" value="" style="shape=partialRectangle;connectable=0;fillColor=none;top=0;left=0;bottom=0;right=0;editable=1;overflow=hidden;whiteSpace=wrap;html=1;rounded=0;fontFamily=Courier New;fontSize=16;strokeColor=#000000;" parent="C7LOxqXwbHzqQDy3l2-N-512" vertex="1">
          <mxGeometry width="30" height="30" as="geometry">
            <mxRectangle width="30" height="30" as="alternateBounds" />
          </mxGeometry>
        </mxCell>
        <mxCell id="C7LOxqXwbHzqQDy3l2-N-514" value="permis_code_exigence&lt;span style=&quot;color: light-dark(rgb(0, 0, 0), rgb(255, 255, 255)); background-color: transparent;&quot;&gt;&amp;nbsp; &lt;/span&gt;&lt;b style=&quot;color: light-dark(rgb(0, 0, 0), rgb(255, 255, 255)); background-color: transparent;&quot;&gt;varchar(1)&lt;/b&gt;" style="shape=partialRectangle;connectable=0;fillColor=none;top=0;left=0;bottom=0;right=0;align=left;spacingLeft=6;overflow=hidden;whiteSpace=wrap;html=1;rounded=0;fontFamily=Courier New;fontSize=16;strokeColor=#000000;" parent="C7LOxqXwbHzqQDy3l2-N-512" vertex="1">
          <mxGeometry x="30" width="338" height="30" as="geometry">
            <mxRectangle width="338" height="30" as="alternateBounds" />
          </mxGeometry>
        </mxCell>
        <mxCell id="jDI96cK5oBP2eikoeisR-57" style="edgeStyle=none;rounded=1;orthogonalLoop=1;jettySize=auto;html=1;startArrow=classic;startFill=1;endArrow=none;curved=0;" parent="1" source="C7LOxqXwbHzqQDy3l2-N-516" edge="1">
          <mxGeometry relative="1" as="geometry">
            <mxPoint x="-2581" y="1477" as="targetPoint" />
            <Array as="points">
              <mxPoint x="-2973" y="1402" />
              <mxPoint x="-2582" y="1406" />
            </Array>
          </mxGeometry>
        </mxCell>
        <mxCell id="C7LOxqXwbHzqQDy3l2-N-516" value="&lt;font style=&quot;font-size: 18px;&quot;&gt;Offre_Experience&lt;/font&gt;" style="shape=table;startSize=30;container=1;collapsible=0;childLayout=tableLayout;fixedRows=1;rowLines=0;fontStyle=1;align=center;resizeLast=1;html=1;whiteSpace=wrap;fillColor=#eeeeee;strokeColor=#36393d;fontFamily=Courier New;fontSize=16;" parent="1" vertex="1">
          <mxGeometry x="-3090.5" y="1245" width="235" height="90" as="geometry" />
        </mxCell>
        <mxCell id="C7LOxqXwbHzqQDy3l2-N-517" value="" style="shape=tableRow;horizontal=0;startSize=0;swimlaneHead=0;swimlaneBody=0;fillColor=none;collapsible=0;dropTarget=0;points=[[0,0.5],[1,0.5]];portConstraint=eastwest;top=0;left=0;right=0;bottom=0;html=1;fontFamily=Courier New;fontSize=16;strokeColor=#000000;" parent="C7LOxqXwbHzqQDy3l2-N-516" vertex="1">
          <mxGeometry y="30" width="235" height="30" as="geometry" />
        </mxCell>
        <mxCell id="C7LOxqXwbHzqQDy3l2-N-518" value="PK,FK1" style="shape=partialRectangle;connectable=0;fillColor=none;top=0;left=0;bottom=0;right=0;fontStyle=1;overflow=hidden;html=1;whiteSpace=wrap;fontFamily=Courier New;fontSize=16;strokeColor=#000000;" parent="C7LOxqXwbHzqQDy3l2-N-517" vertex="1">
          <mxGeometry width="60" height="30" as="geometry">
            <mxRectangle width="60" height="30" as="alternateBounds" />
          </mxGeometry>
        </mxCell>
        <mxCell id="C7LOxqXwbHzqQDy3l2-N-519" value="offre_id" style="shape=partialRectangle;connectable=0;fillColor=none;top=0;left=0;bottom=0;right=0;align=left;spacingLeft=6;fontStyle=5;overflow=hidden;html=1;whiteSpace=wrap;fontFamily=Courier New;fontSize=16;strokeColor=#000000;" parent="C7LOxqXwbHzqQDy3l2-N-517" vertex="1">
          <mxGeometry x="60" width="175" height="30" as="geometry">
            <mxRectangle width="175" height="30" as="alternateBounds" />
          </mxGeometry>
        </mxCell>
        <mxCell id="C7LOxqXwbHzqQDy3l2-N-520" value="" style="shape=tableRow;horizontal=0;startSize=0;swimlaneHead=0;swimlaneBody=0;fillColor=none;collapsible=0;dropTarget=0;points=[[0,0.5],[1,0.5]];portConstraint=eastwest;top=0;left=0;right=0;bottom=1;html=1;fontFamily=Courier New;fontSize=16;strokeColor=#000000;" parent="C7LOxqXwbHzqQDy3l2-N-516" vertex="1">
          <mxGeometry y="60" width="235" height="30" as="geometry" />
        </mxCell>
        <mxCell id="C7LOxqXwbHzqQDy3l2-N-521" value="PK,FK2" style="shape=partialRectangle;connectable=0;fillColor=none;top=0;left=0;bottom=0;right=0;fontStyle=1;overflow=hidden;html=1;whiteSpace=wrap;fontFamily=Courier New;fontSize=16;strokeColor=#000000;" parent="C7LOxqXwbHzqQDy3l2-N-520" vertex="1">
          <mxGeometry width="60" height="30" as="geometry">
            <mxRectangle width="60" height="30" as="alternateBounds" />
          </mxGeometry>
        </mxCell>
        <mxCell id="C7LOxqXwbHzqQDy3l2-N-522" value="experience_id" style="shape=partialRectangle;connectable=0;fillColor=none;top=0;left=0;bottom=0;right=0;align=left;spacingLeft=6;fontStyle=5;overflow=hidden;html=1;whiteSpace=wrap;fontFamily=Courier New;fontSize=16;strokeColor=#000000;" parent="C7LOxqXwbHzqQDy3l2-N-520" vertex="1">
          <mxGeometry x="60" width="175" height="30" as="geometry">
            <mxRectangle width="175" height="30" as="alternateBounds" />
          </mxGeometry>
        </mxCell>
        <mxCell id="jDI96cK5oBP2eikoeisR-44" style="edgeStyle=none;rounded=0;orthogonalLoop=1;jettySize=auto;html=1;" parent="1" source="C7LOxqXwbHzqQDy3l2-N-523" target="C7LOxqXwbHzqQDy3l2-N-516" edge="1">
          <mxGeometry relative="1" as="geometry" />
        </mxCell>
        <mxCell id="C7LOxqXwbHzqQDy3l2-N-523" value="&lt;font style=&quot;font-size: 24px;&quot;&gt;Experience&lt;/font&gt;" style="shape=table;startSize=30;container=1;collapsible=0;childLayout=tableLayout;fixedRows=1;rowLines=0;fontStyle=1;align=center;resizeLast=1;html=1;fillColor=#ffff88;strokeColor=#36393d;rounded=0;fontFamily=Courier New;fontSize=16;" parent="1" vertex="1">
          <mxGeometry x="-3178" y="1018" width="404" height="150" as="geometry" />
        </mxCell>
        <mxCell id="C7LOxqXwbHzqQDy3l2-N-524" value="" style="shape=tableRow;horizontal=0;startSize=0;swimlaneHead=0;swimlaneBody=0;fillColor=none;collapsible=0;dropTarget=0;points=[[0,0.5],[1,0.5]];portConstraint=eastwest;top=0;left=0;right=0;bottom=1;rounded=0;fontFamily=Courier New;fontSize=16;strokeColor=#000000;" parent="C7LOxqXwbHzqQDy3l2-N-523" vertex="1">
          <mxGeometry y="30" width="404" height="30" as="geometry" />
        </mxCell>
        <mxCell id="C7LOxqXwbHzqQDy3l2-N-525" value="PK" style="shape=partialRectangle;connectable=0;fillColor=none;top=0;left=0;bottom=0;right=0;fontStyle=1;overflow=hidden;whiteSpace=wrap;html=1;rounded=0;fontFamily=Courier New;fontSize=16;strokeColor=#000000;" parent="C7LOxqXwbHzqQDy3l2-N-524" vertex="1">
          <mxGeometry width="30" height="30" as="geometry">
            <mxRectangle width="30" height="30" as="alternateBounds" />
          </mxGeometry>
        </mxCell>
        <mxCell id="C7LOxqXwbHzqQDy3l2-N-526" value="&lt;u&gt;experience_id&lt;/u&gt;&amp;nbsp; &amp;nbsp; &amp;nbsp; &amp;nbsp; &amp;nbsp; &amp;nbsp; &amp;nbsp;serial" style="shape=partialRectangle;connectable=0;fillColor=none;top=0;left=0;bottom=0;right=0;align=left;spacingLeft=6;fontStyle=1;overflow=hidden;whiteSpace=wrap;html=1;rounded=0;fontFamily=Courier New;fontSize=16;strokeColor=#000000;" parent="C7LOxqXwbHzqQDy3l2-N-524" vertex="1">
          <mxGeometry x="30" width="374" height="30" as="geometry">
            <mxRectangle width="374" height="30" as="alternateBounds" />
          </mxGeometry>
        </mxCell>
        <mxCell id="C7LOxqXwbHzqQDy3l2-N-527" value="" style="shape=tableRow;horizontal=0;startSize=0;swimlaneHead=0;swimlaneBody=0;fillColor=none;collapsible=0;dropTarget=0;points=[[0,0.5],[1,0.5]];portConstraint=eastwest;top=0;left=0;right=0;bottom=0;rounded=0;fontFamily=Courier New;fontSize=16;strokeColor=#000000;" parent="C7LOxqXwbHzqQDy3l2-N-523" vertex="1">
          <mxGeometry y="60" width="404" height="30" as="geometry" />
        </mxCell>
        <mxCell id="C7LOxqXwbHzqQDy3l2-N-528" value="" style="shape=partialRectangle;connectable=0;fillColor=none;top=0;left=0;bottom=0;right=0;editable=1;overflow=hidden;whiteSpace=wrap;html=1;rounded=0;fontFamily=Courier New;fontSize=16;strokeColor=#000000;" parent="C7LOxqXwbHzqQDy3l2-N-527" vertex="1">
          <mxGeometry width="30" height="30" as="geometry">
            <mxRectangle width="30" height="30" as="alternateBounds" />
          </mxGeometry>
        </mxCell>
        <mxCell id="C7LOxqXwbHzqQDy3l2-N-529" value="experience_libelle&amp;nbsp; &amp;nbsp; &amp;nbsp; &amp;nbsp;&amp;nbsp;&lt;b&gt;varchar(10&lt;/b&gt;&lt;b style=&quot;background-color: transparent; color: light-dark(rgb(0, 0, 0), rgb(255, 255, 255));&quot;&gt;0)&lt;/b&gt;" style="shape=partialRectangle;connectable=0;fillColor=none;top=0;left=0;bottom=0;right=0;align=left;spacingLeft=6;overflow=hidden;whiteSpace=wrap;html=1;rounded=0;fontFamily=Courier New;fontSize=16;strokeColor=#000000;" parent="C7LOxqXwbHzqQDy3l2-N-527" vertex="1">
          <mxGeometry x="30" width="374" height="30" as="geometry">
            <mxRectangle width="374" height="30" as="alternateBounds" />
          </mxGeometry>
        </mxCell>
        <mxCell id="C7LOxqXwbHzqQDy3l2-N-530" value="" style="shape=tableRow;horizontal=0;startSize=0;swimlaneHead=0;swimlaneBody=0;fillColor=none;collapsible=0;dropTarget=0;points=[[0,0.5],[1,0.5]];portConstraint=eastwest;top=0;left=0;right=0;bottom=0;rounded=0;fontFamily=Courier New;fontSize=16;strokeColor=#000000;" parent="C7LOxqXwbHzqQDy3l2-N-523" vertex="1">
          <mxGeometry y="90" width="404" height="30" as="geometry" />
        </mxCell>
        <mxCell id="C7LOxqXwbHzqQDy3l2-N-531" value="" style="shape=partialRectangle;connectable=0;fillColor=none;top=0;left=0;bottom=0;right=0;editable=1;overflow=hidden;whiteSpace=wrap;html=1;rounded=0;fontFamily=Courier New;fontSize=16;strokeColor=#000000;" parent="C7LOxqXwbHzqQDy3l2-N-530" vertex="1">
          <mxGeometry width="30" height="30" as="geometry">
            <mxRectangle width="30" height="30" as="alternateBounds" />
          </mxGeometry>
        </mxCell>
        <mxCell id="C7LOxqXwbHzqQDy3l2-N-532" value="experience_code_exigence&amp;nbsp; &lt;b&gt;varchar(1)&lt;/b&gt;" style="shape=partialRectangle;connectable=0;fillColor=none;top=0;left=0;bottom=0;right=0;align=left;spacingLeft=6;overflow=hidden;whiteSpace=wrap;html=1;rounded=0;fontFamily=Courier New;fontSize=16;strokeColor=#000000;" parent="C7LOxqXwbHzqQDy3l2-N-530" vertex="1">
          <mxGeometry x="30" width="374" height="30" as="geometry">
            <mxRectangle width="374" height="30" as="alternateBounds" />
          </mxGeometry>
        </mxCell>
        <mxCell id="C7LOxqXwbHzqQDy3l2-N-533" value="" style="shape=tableRow;horizontal=0;startSize=0;swimlaneHead=0;swimlaneBody=0;fillColor=none;collapsible=0;dropTarget=0;points=[[0,0.5],[1,0.5]];portConstraint=eastwest;top=0;left=0;right=0;bottom=0;rounded=0;fontFamily=Courier New;fontSize=16;strokeColor=#000000;" parent="C7LOxqXwbHzqQDy3l2-N-523" vertex="1">
          <mxGeometry y="120" width="404" height="30" as="geometry" />
        </mxCell>
        <mxCell id="C7LOxqXwbHzqQDy3l2-N-534" value="" style="shape=partialRectangle;connectable=0;fillColor=none;top=0;left=0;bottom=0;right=0;editable=1;overflow=hidden;whiteSpace=wrap;html=1;rounded=0;fontFamily=Courier New;fontSize=16;strokeColor=#000000;" parent="C7LOxqXwbHzqQDy3l2-N-533" vertex="1">
          <mxGeometry width="30" height="30" as="geometry">
            <mxRectangle width="30" height="30" as="alternateBounds" />
          </mxGeometry>
        </mxCell>
        <mxCell id="C7LOxqXwbHzqQDy3l2-N-535" value="experience_commentaire&amp;nbsp; &amp;nbsp;&amp;nbsp;&lt;b&gt;varchar(200)&lt;/b&gt;" style="shape=partialRectangle;connectable=0;fillColor=none;top=0;left=0;bottom=0;right=0;align=left;spacingLeft=6;overflow=hidden;whiteSpace=wrap;html=1;rounded=0;fontFamily=Courier New;fontSize=16;strokeColor=#000000;" parent="C7LOxqXwbHzqQDy3l2-N-533" vertex="1">
          <mxGeometry x="30" width="374" height="30" as="geometry">
            <mxRectangle width="374" height="30" as="alternateBounds" />
          </mxGeometry>
        </mxCell>
        <mxCell id="jDI96cK5oBP2eikoeisR-48" style="edgeStyle=none;rounded=0;orthogonalLoop=1;jettySize=auto;html=1;" parent="1" source="C7LOxqXwbHzqQDy3l2-N-485" target="C7LOxqXwbHzqQDy3l2-N-478" edge="1">
          <mxGeometry relative="1" as="geometry" />
        </mxCell>
        <mxCell id="C7LOxqXwbHzqQDy3l2-N-485" value="&lt;font style=&quot;font-size: 22px;&quot;&gt;QualiteProfessionnelle&lt;/font&gt;" style="shape=table;startSize=30;container=1;collapsible=0;childLayout=tableLayout;fixedRows=1;rowLines=0;fontStyle=1;align=center;resizeLast=1;html=1;fillColor=#ffff88;strokeColor=#36393d;rounded=0;fontFamily=Courier New;fontSize=16;" parent="1" vertex="1">
          <mxGeometry x="-2736" y="1020" width="522" height="120" as="geometry" />
        </mxCell>
        <mxCell id="C7LOxqXwbHzqQDy3l2-N-486" value="" style="shape=tableRow;horizontal=0;startSize=0;swimlaneHead=0;swimlaneBody=0;fillColor=none;collapsible=0;dropTarget=0;points=[[0,0.5],[1,0.5]];portConstraint=eastwest;top=0;left=0;right=0;bottom=1;rounded=0;fontFamily=Courier New;fontSize=16;strokeColor=#000000;" parent="C7LOxqXwbHzqQDy3l2-N-485" vertex="1">
          <mxGeometry y="30" width="522" height="30" as="geometry" />
        </mxCell>
        <mxCell id="C7LOxqXwbHzqQDy3l2-N-487" value="PK" style="shape=partialRectangle;connectable=0;fillColor=none;top=0;left=0;bottom=0;right=0;fontStyle=1;overflow=hidden;whiteSpace=wrap;html=1;rounded=0;fontFamily=Courier New;fontSize=16;strokeColor=#000000;" parent="C7LOxqXwbHzqQDy3l2-N-486" vertex="1">
          <mxGeometry width="30" height="30" as="geometry">
            <mxRectangle width="30" height="30" as="alternateBounds" />
          </mxGeometry>
        </mxCell>
        <mxCell id="C7LOxqXwbHzqQDy3l2-N-488" value="&lt;div&gt;&lt;u style=&quot;background-color: transparent; color: light-dark(rgb(0, 0, 0), rgb(255, 255, 255));&quot;&gt;qualite_professionnelle_id&lt;/u&gt;&lt;span style=&quot;background-color: transparent; color: light-dark(rgb(0, 0, 0), rgb(255, 255, 255));&quot;&gt;&amp;nbsp; &amp;nbsp; &amp;nbsp; &amp;nbsp; &amp;nbsp; &amp;nbsp;serial&lt;/span&gt;&lt;/div&gt;" style="shape=partialRectangle;connectable=0;fillColor=none;top=0;left=0;bottom=0;right=0;align=left;spacingLeft=6;fontStyle=1;overflow=hidden;whiteSpace=wrap;html=1;rounded=0;fontFamily=Courier New;fontSize=16;strokeColor=#000000;" parent="C7LOxqXwbHzqQDy3l2-N-486" vertex="1">
          <mxGeometry x="30" width="492" height="30" as="geometry">
            <mxRectangle width="492" height="30" as="alternateBounds" />
          </mxGeometry>
        </mxCell>
        <mxCell id="C7LOxqXwbHzqQDy3l2-N-489" value="" style="shape=tableRow;horizontal=0;startSize=0;swimlaneHead=0;swimlaneBody=0;fillColor=none;collapsible=0;dropTarget=0;points=[[0,0.5],[1,0.5]];portConstraint=eastwest;top=0;left=0;right=0;bottom=0;rounded=0;fontFamily=Courier New;fontSize=16;strokeColor=#000000;" parent="C7LOxqXwbHzqQDy3l2-N-485" vertex="1">
          <mxGeometry y="60" width="522" height="30" as="geometry" />
        </mxCell>
        <mxCell id="C7LOxqXwbHzqQDy3l2-N-490" value="" style="shape=partialRectangle;connectable=0;fillColor=none;top=0;left=0;bottom=0;right=0;editable=1;overflow=hidden;whiteSpace=wrap;html=1;rounded=0;fontFamily=Courier New;fontSize=16;strokeColor=#000000;" parent="C7LOxqXwbHzqQDy3l2-N-489" vertex="1">
          <mxGeometry width="30" height="30" as="geometry">
            <mxRectangle width="30" height="30" as="alternateBounds" />
          </mxGeometry>
        </mxCell>
        <mxCell id="C7LOxqXwbHzqQDy3l2-N-491" value="&lt;span style=&quot;background-color: transparent;&quot;&gt;qualite_professionnelle_libelle&lt;/span&gt;&amp;nbsp; &amp;nbsp; &amp;nbsp;&amp;nbsp;&lt;b&gt;varchar(100)&lt;/b&gt;" style="shape=partialRectangle;connectable=0;fillColor=none;top=0;left=0;bottom=0;right=0;align=left;spacingLeft=6;overflow=hidden;whiteSpace=wrap;html=1;rounded=0;fontFamily=Courier New;fontSize=16;strokeColor=#000000;" parent="C7LOxqXwbHzqQDy3l2-N-489" vertex="1">
          <mxGeometry x="30" width="492" height="30" as="geometry">
            <mxRectangle width="492" height="30" as="alternateBounds" />
          </mxGeometry>
        </mxCell>
        <mxCell id="jDI96cK5oBP2eikoeisR-29" value="" style="shape=tableRow;horizontal=0;startSize=0;swimlaneHead=0;swimlaneBody=0;fillColor=none;collapsible=0;dropTarget=0;points=[[0,0.5],[1,0.5]];portConstraint=eastwest;top=0;left=0;right=0;bottom=0;rounded=0;fontFamily=Courier New;fontSize=16;strokeColor=#000000;" parent="C7LOxqXwbHzqQDy3l2-N-485" vertex="1">
          <mxGeometry y="90" width="522" height="30" as="geometry" />
        </mxCell>
        <mxCell id="jDI96cK5oBP2eikoeisR-30" value="" style="shape=partialRectangle;connectable=0;fillColor=none;top=0;left=0;bottom=0;right=0;editable=1;overflow=hidden;whiteSpace=wrap;html=1;rounded=0;fontFamily=Courier New;fontSize=16;strokeColor=#000000;" parent="jDI96cK5oBP2eikoeisR-29" vertex="1">
          <mxGeometry width="30" height="30" as="geometry">
            <mxRectangle width="30" height="30" as="alternateBounds" />
          </mxGeometry>
        </mxCell>
        <mxCell id="jDI96cK5oBP2eikoeisR-31" value="&lt;div&gt;&lt;span style=&quot;background-color: transparent;&quot;&gt;qualite_professionnelle_description&lt;/span&gt;&lt;span style=&quot;background-color: transparent; color: light-dark(rgb(0, 0, 0), rgb(255, 255, 255));&quot;&gt;&amp;nbsp;&amp;nbsp;&lt;/span&gt;&lt;b style=&quot;background-color: transparent; color: light-dark(rgb(0, 0, 0), rgb(255, 255, 255));&quot;&gt;varchar(1000)&lt;/b&gt;&lt;/div&gt;" style="shape=partialRectangle;connectable=0;fillColor=none;top=0;left=0;bottom=0;right=0;align=left;spacingLeft=6;overflow=hidden;whiteSpace=wrap;html=1;rounded=0;fontFamily=Courier New;fontSize=16;strokeColor=#000000;" parent="jDI96cK5oBP2eikoeisR-29" vertex="1">
          <mxGeometry x="30" width="492" height="30" as="geometry">
            <mxRectangle width="492" height="30" as="alternateBounds" />
          </mxGeometry>
        </mxCell>
        <mxCell id="C7LOxqXwbHzqQDy3l2-N-573" style="edgeStyle=none;rounded=0;orthogonalLoop=1;jettySize=auto;html=1;exitX=0.5;exitY=0;exitDx=0;exitDy=0;strokeColor=#000000;" parent="1" source="C7LOxqXwbHzqQDy3l2-N-353" target="C7LOxqXwbHzqQDy3l2-N-353" edge="1">
          <mxGeometry relative="1" as="geometry" />
        </mxCell>
        <mxCell id="jDI96cK5oBP2eikoeisR-52" style="edgeStyle=none;rounded=0;orthogonalLoop=1;jettySize=auto;html=1;exitX=0.001;exitY=0.14;exitDx=0;exitDy=0;exitPerimeter=0;" parent="1" edge="1">
          <mxGeometry relative="1" as="geometry">
            <mxPoint x="-1815" y="1494" as="targetPoint" />
            <mxPoint x="-1701.6319999999996" y="1493.3000000000002" as="sourcePoint" />
          </mxGeometry>
        </mxCell>
        <mxCell id="jDI96cK5oBP2eikoeisR-56" style="edgeStyle=none;rounded=1;orthogonalLoop=1;jettySize=auto;html=1;curved=0;strokeColor=default;startArrow=classic;startFill=1;endArrow=none;" parent="1" source="C7LOxqXwbHzqQDy3l2-N-423" edge="1">
          <mxGeometry relative="1" as="geometry">
            <mxPoint x="-2645" y="1476" as="targetPoint" />
            <Array as="points">
              <mxPoint x="-3420" y="1433" />
              <mxPoint x="-2646" y="1436" />
            </Array>
          </mxGeometry>
        </mxCell>
        <mxCell id="jDI96cK5oBP2eikoeisR-58" style="edgeStyle=none;rounded=1;orthogonalLoop=1;jettySize=auto;html=1;startArrow=classic;startFill=1;endArrow=none;curved=0;exitX=0.501;exitY=0.997;exitDx=0;exitDy=0;exitPerimeter=0;" parent="1" source="C7LOxqXwbHzqQDy3l2-N-357" edge="1">
          <mxGeometry relative="1" as="geometry">
            <mxPoint x="-3011" y="1409" as="sourcePoint" />
            <mxPoint x="-2413" y="1476" as="targetPoint" />
            <Array as="points">
              <mxPoint x="-1544" y="1434" />
              <mxPoint x="-2413" y="1434" />
            </Array>
          </mxGeometry>
        </mxCell>
        <mxCell id="jDI96cK5oBP2eikoeisR-59" style="edgeStyle=none;rounded=1;orthogonalLoop=1;jettySize=auto;html=1;startArrow=classic;startFill=1;endArrow=none;curved=0;entryX=0.5;entryY=0;entryDx=0;entryDy=0;" parent="1" source="C7LOxqXwbHzqQDy3l2-N-478" target="-QC0LfeOqHy5VNt_hiCN-1" edge="1">
          <mxGeometry relative="1" as="geometry">
            <mxPoint x="-2937.566" y="1479.652" as="targetPoint" />
            <Array as="points">
              <mxPoint x="-2473" y="1387" />
              <mxPoint x="-2526" y="1387" />
            </Array>
          </mxGeometry>
        </mxCell>
        <mxCell id="jDI96cK5oBP2eikoeisR-61" style="edgeStyle=none;rounded=1;orthogonalLoop=1;jettySize=auto;html=1;curved=0;startArrow=classic;startFill=1;endArrow=none;" parent="1" source="C7LOxqXwbHzqQDy3l2-N-383" edge="1">
          <mxGeometry relative="1" as="geometry">
            <mxPoint x="-2470" y="1476" as="targetPoint" />
            <Array as="points">
              <mxPoint x="-1986" y="1407" />
              <mxPoint x="-2470" y="1407" />
            </Array>
          </mxGeometry>
        </mxCell>
        <mxCell id="jDI96cK5oBP2eikoeisR-63" style="edgeStyle=none;rounded=1;orthogonalLoop=1;jettySize=auto;html=1;startArrow=classic;startFill=1;endArrow=none;curved=0;exitX=0;exitY=0.184;exitDx=0;exitDy=0;exitPerimeter=0;" parent="1" source="C7LOxqXwbHzqQDy3l2-N-498" edge="1">
          <mxGeometry relative="1" as="geometry">
            <mxPoint x="-2322" y="1496" as="targetPoint" />
            <Array as="points">
              <mxPoint x="-2139" y="1496" />
            </Array>
            <mxPoint x="-2129" y="1494" as="sourcePoint" />
          </mxGeometry>
        </mxCell>
        <mxCell id="jDI96cK5oBP2eikoeisR-231" style="edgeStyle=none;rounded=1;orthogonalLoop=1;jettySize=auto;html=1;curved=0;entryX=0.502;entryY=1.036;entryDx=0;entryDy=0;entryPerimeter=0;exitX=0.5;exitY=0;exitDx=0;exitDy=0;" parent="1" source="jDI96cK5oBP2eikoeisR-137" target="-QC0LfeOqHy5VNt_hiCN-11" edge="1">
          <mxGeometry relative="1" as="geometry">
            <mxPoint x="-2581" y="1654" as="targetPoint" />
            <Array as="points">
              <mxPoint x="-2259" y="1818" />
              <mxPoint x="-2525" y="1819" />
            </Array>
          </mxGeometry>
        </mxCell>
        <mxCell id="jDI96cK5oBP2eikoeisR-137" value="&lt;span style=&quot;font-size: 24px;&quot;&gt;Entreprise&lt;/span&gt;" style="shape=table;startSize=35;container=1;collapsible=0;childLayout=tableLayout;fixedRows=1;rowLines=0;fontStyle=1;align=center;resizeLast=1;html=1;fillColor=#ffff88;strokeColor=#36393d;rounded=0;fontFamily=Courier New;fontSize=16;" parent="1" vertex="1">
          <mxGeometry x="-2465" y="1871" width="410" height="220" as="geometry" />
        </mxCell>
        <mxCell id="jDI96cK5oBP2eikoeisR-138" value="" style="shape=tableRow;horizontal=0;startSize=0;swimlaneHead=0;swimlaneBody=0;fillColor=none;collapsible=0;dropTarget=0;points=[[0,0.5],[1,0.5]];portConstraint=eastwest;top=0;left=0;right=0;bottom=1;rounded=0;fontFamily=Courier New;fontSize=16;fontStyle=4;strokeColor=#000000;" parent="jDI96cK5oBP2eikoeisR-137" vertex="1">
          <mxGeometry y="35" width="410" height="30" as="geometry" />
        </mxCell>
        <mxCell id="jDI96cK5oBP2eikoeisR-139" value="PK" style="shape=partialRectangle;connectable=0;fillColor=none;top=0;left=0;bottom=0;right=0;fontStyle=1;overflow=hidden;whiteSpace=wrap;html=1;rounded=0;fontFamily=Courier New;fontSize=16;strokeColor=#000000;" parent="jDI96cK5oBP2eikoeisR-138" vertex="1">
          <mxGeometry width="30" height="30" as="geometry">
            <mxRectangle width="30" height="30" as="alternateBounds" />
          </mxGeometry>
        </mxCell>
        <mxCell id="jDI96cK5oBP2eikoeisR-140" value="&lt;u&gt;offre_id&lt;/u&gt;&amp;nbsp; &amp;nbsp; &amp;nbsp; &amp;nbsp; &amp;nbsp; &amp;nbsp; &amp;nbsp; &amp;nbsp; &amp;nbsp; varchar(7)" style="shape=partialRectangle;connectable=0;fillColor=none;top=0;left=0;bottom=0;right=0;align=left;spacingLeft=6;fontStyle=1;overflow=hidden;whiteSpace=wrap;html=1;rounded=0;fontFamily=Courier New;fontSize=16;strokeColor=#000000;" parent="jDI96cK5oBP2eikoeisR-138" vertex="1">
          <mxGeometry x="30" width="380" height="30" as="geometry">
            <mxRectangle width="380" height="30" as="alternateBounds" />
          </mxGeometry>
        </mxCell>
        <mxCell id="jDI96cK5oBP2eikoeisR-141" value="" style="shape=tableRow;horizontal=0;startSize=0;swimlaneHead=0;swimlaneBody=0;fillColor=none;collapsible=0;dropTarget=0;points=[[0,0.5],[1,0.5]];portConstraint=eastwest;top=0;left=0;right=0;bottom=0;rounded=0;fontFamily=Courier New;fontSize=16;strokeColor=#000000;" parent="jDI96cK5oBP2eikoeisR-137" vertex="1">
          <mxGeometry y="65" width="410" height="30" as="geometry" />
        </mxCell>
        <mxCell id="jDI96cK5oBP2eikoeisR-142" value="" style="shape=partialRectangle;connectable=0;fillColor=none;top=0;left=0;bottom=0;right=0;editable=1;overflow=hidden;whiteSpace=wrap;html=1;rounded=0;fontFamily=Courier New;fontSize=16;strokeColor=#000000;" parent="jDI96cK5oBP2eikoeisR-141" vertex="1">
          <mxGeometry width="30" height="30" as="geometry">
            <mxRectangle width="30" height="30" as="alternateBounds" />
          </mxGeometry>
        </mxCell>
        <mxCell id="jDI96cK5oBP2eikoeisR-143" value="nom_entreprise&amp;nbsp; &amp;nbsp; &amp;nbsp; &amp;nbsp; &amp;nbsp; &amp;nbsp; &lt;b&gt;varchar(100)&lt;/b&gt;" style="shape=partialRectangle;connectable=0;fillColor=none;top=0;left=0;bottom=0;right=0;align=left;spacingLeft=6;overflow=hidden;whiteSpace=wrap;html=1;rounded=0;fontFamily=Courier New;fontSize=16;strokeColor=#000000;" parent="jDI96cK5oBP2eikoeisR-141" vertex="1">
          <mxGeometry x="30" width="380" height="30" as="geometry">
            <mxRectangle width="380" height="30" as="alternateBounds" />
          </mxGeometry>
        </mxCell>
        <mxCell id="jDI96cK5oBP2eikoeisR-144" value="" style="shape=tableRow;horizontal=0;startSize=0;swimlaneHead=0;swimlaneBody=0;fillColor=none;collapsible=0;dropTarget=0;points=[[0,0.5],[1,0.5]];portConstraint=eastwest;top=0;left=0;right=0;bottom=0;rounded=0;fontFamily=Courier New;fontSize=16;strokeColor=#000000;" parent="jDI96cK5oBP2eikoeisR-137" vertex="1">
          <mxGeometry y="95" width="410" height="30" as="geometry" />
        </mxCell>
        <mxCell id="jDI96cK5oBP2eikoeisR-145" value="" style="shape=partialRectangle;connectable=0;fillColor=none;top=0;left=0;bottom=0;right=0;editable=1;overflow=hidden;whiteSpace=wrap;html=1;rounded=0;fontFamily=Courier New;fontSize=16;strokeColor=#000000;" parent="jDI96cK5oBP2eikoeisR-144" vertex="1">
          <mxGeometry width="30" height="30" as="geometry">
            <mxRectangle width="30" height="30" as="alternateBounds" />
          </mxGeometry>
        </mxCell>
        <mxCell id="jDI96cK5oBP2eikoeisR-146" value="&lt;span style=&quot;background-color: transparent;&quot;&gt;description_entreprise&amp;nbsp; &amp;nbsp; &lt;b style=&quot;color: light-dark(rgb(0, 0, 0), rgb(255, 255, 255));&quot;&gt;varchar(100)&lt;/b&gt;&lt;/span&gt;" style="shape=partialRectangle;connectable=0;fillColor=none;top=0;left=0;bottom=0;right=0;align=left;spacingLeft=6;overflow=hidden;whiteSpace=wrap;html=1;rounded=0;fontFamily=Courier New;fontSize=16;strokeColor=#000000;" parent="jDI96cK5oBP2eikoeisR-144" vertex="1">
          <mxGeometry x="30" width="380" height="30" as="geometry">
            <mxRectangle width="380" height="30" as="alternateBounds" />
          </mxGeometry>
        </mxCell>
        <mxCell id="jDI96cK5oBP2eikoeisR-147" value="" style="shape=tableRow;horizontal=0;startSize=0;swimlaneHead=0;swimlaneBody=0;fillColor=none;collapsible=0;dropTarget=0;points=[[0,0.5],[1,0.5]];portConstraint=eastwest;top=0;left=0;right=0;bottom=0;rounded=0;fontFamily=Courier New;fontSize=16;strokeColor=#000000;" parent="jDI96cK5oBP2eikoeisR-137" vertex="1">
          <mxGeometry y="125" width="410" height="30" as="geometry" />
        </mxCell>
        <mxCell id="jDI96cK5oBP2eikoeisR-148" value="" style="shape=partialRectangle;connectable=0;fillColor=none;top=0;left=0;bottom=0;right=0;editable=1;overflow=hidden;whiteSpace=wrap;html=1;rounded=0;fontFamily=Courier New;fontSize=16;strokeColor=#000000;" parent="jDI96cK5oBP2eikoeisR-147" vertex="1">
          <mxGeometry width="30" height="30" as="geometry">
            <mxRectangle width="30" height="30" as="alternateBounds" />
          </mxGeometry>
        </mxCell>
        <mxCell id="jDI96cK5oBP2eikoeisR-149" value="&lt;span style=&quot;background-color: transparent;&quot;&gt;entreprise_adaptee&amp;nbsp;&amp;nbsp;&lt;font color=&quot;rgba(0, 0, 0, 0)&quot;&gt;&amp;nbsp; &amp;nbsp; &amp;nbsp; &lt;/font&gt;&lt;b style=&quot;color: light-dark(rgb(0, 0, 0), rgb(255, 255, 255));&quot;&gt;boolean&lt;/b&gt;&lt;/span&gt;" style="shape=partialRectangle;connectable=0;fillColor=none;top=0;left=0;bottom=0;right=0;align=left;spacingLeft=6;overflow=hidden;whiteSpace=wrap;html=1;rounded=0;fontFamily=Courier New;fontSize=16;strokeColor=#000000;" parent="jDI96cK5oBP2eikoeisR-147" vertex="1">
          <mxGeometry x="30" width="380" height="30" as="geometry">
            <mxRectangle width="380" height="30" as="alternateBounds" />
          </mxGeometry>
        </mxCell>
        <mxCell id="jDI96cK5oBP2eikoeisR-150" value="" style="shape=tableRow;horizontal=0;startSize=0;swimlaneHead=0;swimlaneBody=0;fillColor=none;collapsible=0;dropTarget=0;points=[[0,0.5],[1,0.5]];portConstraint=eastwest;top=0;left=0;right=0;bottom=0;rounded=0;fontFamily=Courier New;fontSize=16;strokeColor=#000000;" parent="jDI96cK5oBP2eikoeisR-137" vertex="1">
          <mxGeometry y="155" width="410" height="30" as="geometry" />
        </mxCell>
        <mxCell id="jDI96cK5oBP2eikoeisR-151" value="" style="shape=partialRectangle;connectable=0;fillColor=none;top=0;left=0;bottom=0;right=0;editable=1;overflow=hidden;whiteSpace=wrap;html=1;rounded=0;fontFamily=Courier New;fontSize=16;strokeColor=#000000;" parent="jDI96cK5oBP2eikoeisR-150" vertex="1">
          <mxGeometry width="30" height="30" as="geometry">
            <mxRectangle width="30" height="30" as="alternateBounds" />
          </mxGeometry>
        </mxCell>
        <mxCell id="jDI96cK5oBP2eikoeisR-152" value="code_naf&amp;nbsp; &amp;nbsp; &amp;nbsp; &amp;nbsp; &amp;nbsp; &amp;nbsp; &amp;nbsp; &amp;nbsp; &amp;nbsp; &lt;b&gt;varchar(6)&lt;/b&gt;" style="shape=partialRectangle;connectable=0;fillColor=none;top=0;left=0;bottom=0;right=0;align=left;spacingLeft=6;overflow=hidden;whiteSpace=wrap;html=1;rounded=0;fontFamily=Courier New;fontSize=16;strokeColor=#000000;" parent="jDI96cK5oBP2eikoeisR-150" vertex="1">
          <mxGeometry x="30" width="380" height="30" as="geometry">
            <mxRectangle width="380" height="30" as="alternateBounds" />
          </mxGeometry>
        </mxCell>
        <mxCell id="jDI96cK5oBP2eikoeisR-153" value="" style="shape=tableRow;horizontal=0;startSize=0;swimlaneHead=0;swimlaneBody=0;fillColor=none;collapsible=0;dropTarget=0;points=[[0,0.5],[1,0.5]];portConstraint=eastwest;top=0;left=0;right=0;bottom=0;rounded=0;fontFamily=Courier New;fontSize=16;strokeColor=#000000;" parent="jDI96cK5oBP2eikoeisR-137" vertex="1">
          <mxGeometry y="185" width="410" height="30" as="geometry" />
        </mxCell>
        <mxCell id="jDI96cK5oBP2eikoeisR-154" value="" style="shape=partialRectangle;connectable=0;fillColor=none;top=0;left=0;bottom=0;right=0;editable=1;overflow=hidden;whiteSpace=wrap;html=1;rounded=0;fontFamily=Courier New;fontSize=16;strokeColor=#000000;" parent="jDI96cK5oBP2eikoeisR-153" vertex="1">
          <mxGeometry width="30" height="30" as="geometry">
            <mxRectangle width="30" height="30" as="alternateBounds" />
          </mxGeometry>
        </mxCell>
        <mxCell id="jDI96cK5oBP2eikoeisR-155" value="secteur_activite_libelle&amp;nbsp; &lt;b style=&quot;color: light-dark(rgb(0, 0, 0), rgb(255, 255, 255)); background-color: transparent;&quot;&gt;varchar(200)&lt;/b&gt;" style="shape=partialRectangle;connectable=0;fillColor=none;top=0;left=0;bottom=0;right=0;align=left;spacingLeft=6;overflow=hidden;whiteSpace=wrap;html=1;rounded=0;fontFamily=Courier New;fontSize=16;strokeColor=#000000;" parent="jDI96cK5oBP2eikoeisR-153" vertex="1">
          <mxGeometry x="30" width="380" height="30" as="geometry">
            <mxRectangle width="380" height="30" as="alternateBounds" />
          </mxGeometry>
        </mxCell>
        <mxCell id="jDI96cK5oBP2eikoeisR-183" value="&lt;span style=&quot;font-size: 24px;&quot;&gt;Localisation&lt;/span&gt;" style="shape=table;startSize=35;container=1;collapsible=0;childLayout=tableLayout;fixedRows=1;rowLines=0;fontStyle=1;align=center;resizeLast=1;html=1;fillColor=#ffff88;strokeColor=#36393d;rounded=0;fontFamily=Courier New;fontSize=16;" parent="1" vertex="1">
          <mxGeometry x="-1969.5" y="1809" width="330.5" height="310" as="geometry" />
        </mxCell>
        <mxCell id="jDI96cK5oBP2eikoeisR-184" value="" style="shape=tableRow;horizontal=0;startSize=0;swimlaneHead=0;swimlaneBody=0;fillColor=none;collapsible=0;dropTarget=0;points=[[0,0.5],[1,0.5]];portConstraint=eastwest;top=0;left=0;right=0;bottom=1;rounded=0;fontFamily=Courier New;fontSize=16;fontStyle=4;strokeColor=#000000;" parent="jDI96cK5oBP2eikoeisR-183" vertex="1">
          <mxGeometry y="35" width="330.5" height="30" as="geometry" />
        </mxCell>
        <mxCell id="jDI96cK5oBP2eikoeisR-185" value="PK" style="shape=partialRectangle;connectable=0;fillColor=none;top=0;left=0;bottom=0;right=0;fontStyle=1;overflow=hidden;whiteSpace=wrap;html=1;rounded=0;fontFamily=Courier New;fontSize=16;strokeColor=#000000;" parent="jDI96cK5oBP2eikoeisR-184" vertex="1">
          <mxGeometry width="30" height="30" as="geometry">
            <mxRectangle width="30" height="30" as="alternateBounds" />
          </mxGeometry>
        </mxCell>
        <mxCell id="jDI96cK5oBP2eikoeisR-186" value="&lt;u&gt;offre_id&lt;/u&gt;&amp;nbsp; &amp;nbsp; &amp;nbsp; &amp;nbsp; &amp;nbsp; varchar(7)" style="shape=partialRectangle;connectable=0;fillColor=none;top=0;left=0;bottom=0;right=0;align=left;spacingLeft=6;fontStyle=1;overflow=hidden;whiteSpace=wrap;html=1;rounded=0;fontFamily=Courier New;fontSize=16;strokeColor=#000000;" parent="jDI96cK5oBP2eikoeisR-184" vertex="1">
          <mxGeometry x="30" width="300.5" height="30" as="geometry">
            <mxRectangle width="300.5" height="30" as="alternateBounds" />
          </mxGeometry>
        </mxCell>
        <mxCell id="jDI96cK5oBP2eikoeisR-190" value="" style="shape=tableRow;horizontal=0;startSize=0;swimlaneHead=0;swimlaneBody=0;fillColor=none;collapsible=0;dropTarget=0;points=[[0,0.5],[1,0.5]];portConstraint=eastwest;top=0;left=0;right=0;bottom=0;rounded=0;fontFamily=Courier New;fontSize=16;strokeColor=#000000;" parent="jDI96cK5oBP2eikoeisR-183" vertex="1">
          <mxGeometry y="65" width="330.5" height="30" as="geometry" />
        </mxCell>
        <mxCell id="jDI96cK5oBP2eikoeisR-191" value="" style="shape=partialRectangle;connectable=0;fillColor=none;top=0;left=0;bottom=0;right=0;editable=1;overflow=hidden;whiteSpace=wrap;html=1;rounded=0;fontFamily=Courier New;fontSize=16;strokeColor=#000000;" parent="jDI96cK5oBP2eikoeisR-190" vertex="1">
          <mxGeometry width="30" height="30" as="geometry">
            <mxRectangle width="30" height="30" as="alternateBounds" />
          </mxGeometry>
        </mxCell>
        <mxCell id="jDI96cK5oBP2eikoeisR-192" value="&lt;span style=&quot;background-color: transparent;&quot;&gt;code_insee&amp;nbsp; &amp;nbsp; &amp;nbsp; &amp;nbsp;&amp;nbsp;&lt;b style=&quot;color: light-dark(rgb(0, 0, 0), rgb(255, 255, 255));&quot;&gt;varchar(5)&lt;/b&gt;&lt;/span&gt;" style="shape=partialRectangle;connectable=0;fillColor=none;top=0;left=0;bottom=0;right=0;align=left;spacingLeft=6;overflow=hidden;whiteSpace=wrap;html=1;rounded=0;fontFamily=Courier New;fontSize=16;strokeColor=#000000;" parent="jDI96cK5oBP2eikoeisR-190" vertex="1">
          <mxGeometry x="30" width="300.5" height="30" as="geometry">
            <mxRectangle width="300.5" height="30" as="alternateBounds" />
          </mxGeometry>
        </mxCell>
        <mxCell id="eq7bmqrXvHVogV1owovV-32" value="" style="shape=tableRow;horizontal=0;startSize=0;swimlaneHead=0;swimlaneBody=0;fillColor=none;collapsible=0;dropTarget=0;points=[[0,0.5],[1,0.5]];portConstraint=eastwest;top=0;left=0;right=0;bottom=0;rounded=0;fontFamily=Courier New;fontSize=16;strokeColor=#000000;" parent="jDI96cK5oBP2eikoeisR-183" vertex="1">
          <mxGeometry y="95" width="330.5" height="30" as="geometry" />
        </mxCell>
        <mxCell id="eq7bmqrXvHVogV1owovV-33" value="" style="shape=partialRectangle;connectable=0;fillColor=none;top=0;left=0;bottom=0;right=0;editable=1;overflow=hidden;whiteSpace=wrap;html=1;rounded=0;fontFamily=Courier New;fontSize=16;strokeColor=#000000;" parent="eq7bmqrXvHVogV1owovV-32" vertex="1">
          <mxGeometry width="30" height="30" as="geometry">
            <mxRectangle width="30" height="30" as="alternateBounds" />
          </mxGeometry>
        </mxCell>
        <mxCell id="eq7bmqrXvHVogV1owovV-34" value="&lt;font style=&quot;color: rgb(0, 0, 0); background-color: rgb(230, 255, 204);&quot;&gt;nom_commune&lt;/font&gt;&amp;nbsp; &amp;nbsp; &amp;nbsp; &amp;nbsp;&lt;b style=&quot;background-color: transparent; color: light-dark(rgb(0, 0, 0), rgb(255, 255, 255));&quot;&gt;varchar(200)&lt;/b&gt;" style="shape=partialRectangle;connectable=0;fillColor=none;top=0;left=0;bottom=0;right=0;align=left;spacingLeft=6;overflow=hidden;whiteSpace=wrap;html=1;rounded=0;fontFamily=Courier New;fontSize=16;strokeColor=#000000;" parent="eq7bmqrXvHVogV1owovV-32" vertex="1">
          <mxGeometry x="30" width="300.5" height="30" as="geometry">
            <mxRectangle width="300.5" height="30" as="alternateBounds" />
          </mxGeometry>
        </mxCell>
        <mxCell id="eq7bmqrXvHVogV1owovV-35" value="" style="shape=tableRow;horizontal=0;startSize=0;swimlaneHead=0;swimlaneBody=0;fillColor=none;collapsible=0;dropTarget=0;points=[[0,0.5],[1,0.5]];portConstraint=eastwest;top=0;left=0;right=0;bottom=0;rounded=0;fontFamily=Courier New;fontSize=16;strokeColor=#000000;" parent="jDI96cK5oBP2eikoeisR-183" vertex="1">
          <mxGeometry y="125" width="330.5" height="30" as="geometry" />
        </mxCell>
        <mxCell id="eq7bmqrXvHVogV1owovV-36" value="" style="shape=partialRectangle;connectable=0;fillColor=none;top=0;left=0;bottom=0;right=0;editable=1;overflow=hidden;whiteSpace=wrap;html=1;rounded=0;fontFamily=Courier New;fontSize=16;strokeColor=#000000;" parent="eq7bmqrXvHVogV1owovV-35" vertex="1">
          <mxGeometry width="30" height="30" as="geometry">
            <mxRectangle width="30" height="30" as="alternateBounds" />
          </mxGeometry>
        </mxCell>
        <mxCell id="eq7bmqrXvHVogV1owovV-37" value="&lt;span style=&quot;background-color: transparent;&quot;&gt;code_postal&amp;nbsp; &amp;nbsp; &amp;nbsp; &amp;nbsp;&lt;b style=&quot;color: light-dark(rgb(0, 0, 0), rgb(255, 255, 255));&quot;&gt;varchar(5)&lt;/b&gt;&lt;/span&gt;" style="shape=partialRectangle;connectable=0;fillColor=none;top=0;left=0;bottom=0;right=0;align=left;spacingLeft=6;overflow=hidden;whiteSpace=wrap;html=1;rounded=0;fontFamily=Courier New;fontSize=16;strokeColor=#000000;" parent="eq7bmqrXvHVogV1owovV-35" vertex="1">
          <mxGeometry x="30" width="300.5" height="30" as="geometry">
            <mxRectangle width="300.5" height="30" as="alternateBounds" />
          </mxGeometry>
        </mxCell>
        <mxCell id="eq7bmqrXvHVogV1owovV-38" value="" style="shape=tableRow;horizontal=0;startSize=0;swimlaneHead=0;swimlaneBody=0;fillColor=none;collapsible=0;dropTarget=0;points=[[0,0.5],[1,0.5]];portConstraint=eastwest;top=0;left=0;right=0;bottom=0;rounded=0;fontFamily=Courier New;fontSize=16;strokeColor=#000000;" parent="jDI96cK5oBP2eikoeisR-183" vertex="1">
          <mxGeometry y="155" width="330.5" height="30" as="geometry" />
        </mxCell>
        <mxCell id="eq7bmqrXvHVogV1owovV-39" value="" style="shape=partialRectangle;connectable=0;fillColor=none;top=0;left=0;bottom=0;right=0;editable=1;overflow=hidden;whiteSpace=wrap;html=1;rounded=0;fontFamily=Courier New;fontSize=16;strokeColor=#000000;" parent="eq7bmqrXvHVogV1owovV-38" vertex="1">
          <mxGeometry width="30" height="30" as="geometry">
            <mxRectangle width="30" height="30" as="alternateBounds" />
          </mxGeometry>
        </mxCell>
        <mxCell id="eq7bmqrXvHVogV1owovV-40" value="&lt;font style=&quot;color: rgb(0, 0, 0); background-color: rgb(230, 255, 204);&quot;&gt;nom_ville&lt;/font&gt;&amp;nbsp; &amp;nbsp; &amp;nbsp; &amp;nbsp; &amp;nbsp;&lt;b style=&quot;background-color: transparent; color: light-dark(rgb(0, 0, 0), rgb(255, 255, 255));&quot;&gt;varchar(200)&lt;/b&gt;" style="shape=partialRectangle;connectable=0;fillColor=none;top=0;left=0;bottom=0;right=0;align=left;spacingLeft=6;overflow=hidden;whiteSpace=wrap;html=1;rounded=0;fontFamily=Courier New;fontSize=16;strokeColor=#000000;" parent="eq7bmqrXvHVogV1owovV-38" vertex="1">
          <mxGeometry x="30" width="300.5" height="30" as="geometry">
            <mxRectangle width="300.5" height="30" as="alternateBounds" />
          </mxGeometry>
        </mxCell>
        <mxCell id="eq7bmqrXvHVogV1owovV-41" value="" style="shape=tableRow;horizontal=0;startSize=0;swimlaneHead=0;swimlaneBody=0;fillColor=none;collapsible=0;dropTarget=0;points=[[0,0.5],[1,0.5]];portConstraint=eastwest;top=0;left=0;right=0;bottom=0;rounded=0;fontFamily=Courier New;fontSize=16;strokeColor=#000000;" parent="jDI96cK5oBP2eikoeisR-183" vertex="1">
          <mxGeometry y="185" width="330.5" height="30" as="geometry" />
        </mxCell>
        <mxCell id="eq7bmqrXvHVogV1owovV-42" value="" style="shape=partialRectangle;connectable=0;fillColor=none;top=0;left=0;bottom=0;right=0;editable=1;overflow=hidden;whiteSpace=wrap;html=1;rounded=0;fontFamily=Courier New;fontSize=16;strokeColor=#000000;" parent="eq7bmqrXvHVogV1owovV-41" vertex="1">
          <mxGeometry width="30" height="30" as="geometry">
            <mxRectangle width="30" height="30" as="alternateBounds" />
          </mxGeometry>
        </mxCell>
        <mxCell id="eq7bmqrXvHVogV1owovV-43" value="&lt;font style=&quot;color: rgb(0, 0, 0); background-color: rgb(230, 255, 204);&quot;&gt;code_departement&lt;/font&gt;&amp;nbsp;&amp;nbsp;&lt;b style=&quot;background-color: transparent; color: light-dark(rgb(0, 0, 0), rgb(255, 255, 255));&quot;&gt;varchar(3)&lt;/b&gt;" style="shape=partialRectangle;connectable=0;fillColor=none;top=0;left=0;bottom=0;right=0;align=left;spacingLeft=6;overflow=hidden;whiteSpace=wrap;html=1;rounded=0;fontFamily=Courier New;fontSize=16;strokeColor=#000000;" parent="eq7bmqrXvHVogV1owovV-41" vertex="1">
          <mxGeometry x="30" width="300.5" height="30" as="geometry">
            <mxRectangle width="300.5" height="30" as="alternateBounds" />
          </mxGeometry>
        </mxCell>
        <mxCell id="jDI96cK5oBP2eikoeisR-193" value="" style="shape=tableRow;horizontal=0;startSize=0;swimlaneHead=0;swimlaneBody=0;fillColor=none;collapsible=0;dropTarget=0;points=[[0,0.5],[1,0.5]];portConstraint=eastwest;top=0;left=0;right=0;bottom=0;rounded=0;fontFamily=Courier New;fontSize=16;strokeColor=#000000;" parent="jDI96cK5oBP2eikoeisR-183" vertex="1">
          <mxGeometry y="215" width="330.5" height="30" as="geometry" />
        </mxCell>
        <mxCell id="jDI96cK5oBP2eikoeisR-194" value="" style="shape=partialRectangle;connectable=0;fillColor=none;top=0;left=0;bottom=0;right=0;editable=1;overflow=hidden;whiteSpace=wrap;html=1;rounded=0;fontFamily=Courier New;fontSize=16;strokeColor=#000000;" parent="jDI96cK5oBP2eikoeisR-193" vertex="1">
          <mxGeometry width="30" height="30" as="geometry">
            <mxRectangle width="30" height="30" as="alternateBounds" />
          </mxGeometry>
        </mxCell>
        <mxCell id="jDI96cK5oBP2eikoeisR-195" value="&lt;font style=&quot;color: rgb(0, 0, 0); background-color: rgb(230, 255, 204);&quot;&gt;nom_departement&lt;/font&gt;&amp;nbsp;&amp;nbsp;&lt;font style=&quot;background-color: transparent; color: rgb(0, 0, 255);&quot;&gt;&amp;nbsp;&lt;/font&gt;&lt;b style=&quot;background-color: transparent; color: light-dark(rgb(0, 0, 0), rgb(255, 255, 255));&quot;&gt;varchar(200)&lt;/b&gt;" style="shape=partialRectangle;connectable=0;fillColor=none;top=0;left=0;bottom=0;right=0;align=left;spacingLeft=6;overflow=hidden;whiteSpace=wrap;html=1;rounded=0;fontFamily=Courier New;fontSize=16;strokeColor=#000000;" parent="jDI96cK5oBP2eikoeisR-193" vertex="1">
          <mxGeometry x="30" width="300.5" height="30" as="geometry">
            <mxRectangle width="300.5" height="30" as="alternateBounds" />
          </mxGeometry>
        </mxCell>
        <mxCell id="fP_85rfDHPlp7LyQyppl-1" value="" style="shape=tableRow;horizontal=0;startSize=0;swimlaneHead=0;swimlaneBody=0;fillColor=none;collapsible=0;dropTarget=0;points=[[0,0.5],[1,0.5]];portConstraint=eastwest;top=0;left=0;right=0;bottom=0;rounded=0;fontFamily=Courier New;fontSize=16;strokeColor=#000000;" parent="jDI96cK5oBP2eikoeisR-183" vertex="1">
          <mxGeometry y="245" width="330.5" height="30" as="geometry" />
        </mxCell>
        <mxCell id="fP_85rfDHPlp7LyQyppl-2" value="" style="shape=partialRectangle;connectable=0;fillColor=none;top=0;left=0;bottom=0;right=0;editable=1;overflow=hidden;whiteSpace=wrap;html=1;rounded=0;fontFamily=Courier New;fontSize=16;strokeColor=#000000;" parent="fP_85rfDHPlp7LyQyppl-1" vertex="1">
          <mxGeometry width="30" height="30" as="geometry">
            <mxRectangle width="30" height="30" as="alternateBounds" />
          </mxGeometry>
        </mxCell>
        <mxCell id="fP_85rfDHPlp7LyQyppl-3" value="&lt;font style=&quot;color: rgb(0, 0, 0); background-color: rgb(230, 255, 204);&quot;&gt;code_region&lt;/font&gt;&amp;nbsp; &amp;nbsp; &amp;nbsp; &amp;nbsp;&lt;b style=&quot;background-color: transparent;&quot;&gt;varchar(2)&lt;/b&gt;" style="shape=partialRectangle;connectable=0;fillColor=none;top=0;left=0;bottom=0;right=0;align=left;spacingLeft=6;overflow=hidden;whiteSpace=wrap;html=1;rounded=0;fontFamily=Courier New;fontSize=16;strokeColor=#000000;" parent="fP_85rfDHPlp7LyQyppl-1" vertex="1">
          <mxGeometry x="30" width="300.5" height="30" as="geometry">
            <mxRectangle width="300.5" height="30" as="alternateBounds" />
          </mxGeometry>
        </mxCell>
        <mxCell id="fP_85rfDHPlp7LyQyppl-4" value="" style="shape=tableRow;horizontal=0;startSize=0;swimlaneHead=0;swimlaneBody=0;fillColor=none;collapsible=0;dropTarget=0;points=[[0,0.5],[1,0.5]];portConstraint=eastwest;top=0;left=0;right=0;bottom=0;rounded=0;fontFamily=Courier New;fontSize=16;strokeColor=#000000;" parent="jDI96cK5oBP2eikoeisR-183" vertex="1">
          <mxGeometry y="275" width="330.5" height="30" as="geometry" />
        </mxCell>
        <mxCell id="fP_85rfDHPlp7LyQyppl-5" value="" style="shape=partialRectangle;connectable=0;fillColor=none;top=0;left=0;bottom=0;right=0;editable=1;overflow=hidden;whiteSpace=wrap;html=1;rounded=0;fontFamily=Courier New;fontSize=16;strokeColor=#000000;" parent="fP_85rfDHPlp7LyQyppl-4" vertex="1">
          <mxGeometry width="30" height="30" as="geometry">
            <mxRectangle width="30" height="30" as="alternateBounds" />
          </mxGeometry>
        </mxCell>
        <mxCell id="fP_85rfDHPlp7LyQyppl-6" value="&lt;font style=&quot;color: rgb(0, 0, 0); background-color: rgb(230, 255, 204);&quot;&gt;nom_region&lt;/font&gt;&amp;nbsp; &amp;nbsp;&amp;nbsp;&lt;font&gt;&amp;nbsp; &amp;nbsp;&amp;nbsp;&lt;b&gt;varchar(200)&lt;/b&gt;&lt;/font&gt;" style="shape=partialRectangle;connectable=0;fillColor=none;top=0;left=0;bottom=0;right=0;align=left;spacingLeft=6;overflow=hidden;whiteSpace=wrap;html=1;rounded=0;fontFamily=Courier New;fontSize=16;strokeColor=#000000;" parent="fP_85rfDHPlp7LyQyppl-4" vertex="1">
          <mxGeometry x="30" width="300.5" height="30" as="geometry">
            <mxRectangle width="300.5" height="30" as="alternateBounds" />
          </mxGeometry>
        </mxCell>
        <mxCell id="jDI96cK5oBP2eikoeisR-202" value="&lt;span style=&quot;font-size: 24px;&quot;&gt;DescriptionOffre&lt;/span&gt;" style="shape=table;startSize=35;container=1;collapsible=0;childLayout=tableLayout;fixedRows=1;rowLines=0;fontStyle=1;align=center;resizeLast=1;html=1;fillColor=#ffff88;strokeColor=#36393d;rounded=0;fontFamily=Courier New;fontSize=16;" parent="1" vertex="1">
          <mxGeometry x="-3073" y="1770" width="517" height="340" as="geometry" />
        </mxCell>
        <mxCell id="jDI96cK5oBP2eikoeisR-203" value="" style="shape=tableRow;horizontal=0;startSize=0;swimlaneHead=0;swimlaneBody=0;fillColor=none;collapsible=0;dropTarget=0;points=[[0,0.5],[1,0.5]];portConstraint=eastwest;top=0;left=0;right=0;bottom=1;rounded=0;fontFamily=Courier New;fontSize=16;fontStyle=4;strokeColor=#000000;" parent="jDI96cK5oBP2eikoeisR-202" vertex="1">
          <mxGeometry y="35" width="517" height="30" as="geometry" />
        </mxCell>
        <mxCell id="jDI96cK5oBP2eikoeisR-204" value="PK" style="shape=partialRectangle;connectable=0;fillColor=none;top=0;left=0;bottom=0;right=0;fontStyle=1;overflow=hidden;whiteSpace=wrap;html=1;rounded=0;fontFamily=Courier New;fontSize=16;strokeColor=#000000;" parent="jDI96cK5oBP2eikoeisR-203" vertex="1">
          <mxGeometry width="30" height="30" as="geometry">
            <mxRectangle width="30" height="30" as="alternateBounds" />
          </mxGeometry>
        </mxCell>
        <mxCell id="jDI96cK5oBP2eikoeisR-205" value="&lt;u&gt;offre_id&lt;/u&gt;&amp;nbsp; &amp;nbsp; &amp;nbsp; &amp;nbsp; &amp;nbsp; &amp;nbsp; &amp;nbsp; &amp;nbsp; &amp;nbsp; &amp;nbsp; &amp;nbsp; &amp;nbsp; &amp;nbsp; &amp;nbsp; varchar(7)" style="shape=partialRectangle;connectable=0;fillColor=none;top=0;left=0;bottom=0;right=0;align=left;spacingLeft=6;fontStyle=1;overflow=hidden;whiteSpace=wrap;html=1;rounded=0;fontFamily=Courier New;fontSize=16;strokeColor=#000000;" parent="jDI96cK5oBP2eikoeisR-203" vertex="1">
          <mxGeometry x="30" width="487" height="30" as="geometry">
            <mxRectangle width="487" height="30" as="alternateBounds" />
          </mxGeometry>
        </mxCell>
        <mxCell id="jDI96cK5oBP2eikoeisR-206" value="" style="shape=tableRow;horizontal=0;startSize=0;swimlaneHead=0;swimlaneBody=0;fillColor=none;collapsible=0;dropTarget=0;points=[[0,0.5],[1,0.5]];portConstraint=eastwest;top=0;left=0;right=0;bottom=0;rounded=0;fontFamily=Courier New;fontSize=16;strokeColor=#000000;" parent="jDI96cK5oBP2eikoeisR-202" vertex="1">
          <mxGeometry y="65" width="517" height="30" as="geometry" />
        </mxCell>
        <mxCell id="jDI96cK5oBP2eikoeisR-207" value="" style="shape=partialRectangle;connectable=0;fillColor=none;top=0;left=0;bottom=0;right=0;editable=1;overflow=hidden;whiteSpace=wrap;html=1;rounded=0;fontFamily=Courier New;fontSize=16;strokeColor=#000000;" parent="jDI96cK5oBP2eikoeisR-206" vertex="1">
          <mxGeometry width="30" height="30" as="geometry">
            <mxRectangle width="30" height="30" as="alternateBounds" />
          </mxGeometry>
        </mxCell>
        <mxCell id="jDI96cK5oBP2eikoeisR-208" value="intitule_offre&amp;nbsp; &amp;nbsp; &amp;nbsp; &amp;nbsp; &amp;nbsp; &amp;nbsp; &amp;nbsp; &amp;nbsp; &amp;nbsp; &amp;nbsp; &amp;nbsp;&amp;nbsp;&lt;b&gt;varchar(200)&lt;/b&gt;" style="shape=partialRectangle;connectable=0;fillColor=none;top=0;left=0;bottom=0;right=0;align=left;spacingLeft=6;overflow=hidden;whiteSpace=wrap;html=1;rounded=0;fontFamily=Courier New;fontSize=16;strokeColor=#000000;" parent="jDI96cK5oBP2eikoeisR-206" vertex="1">
          <mxGeometry x="30" width="487" height="30" as="geometry">
            <mxRectangle width="487" height="30" as="alternateBounds" />
          </mxGeometry>
        </mxCell>
        <mxCell id="jDI96cK5oBP2eikoeisR-209" value="" style="shape=tableRow;horizontal=0;startSize=0;swimlaneHead=0;swimlaneBody=0;fillColor=none;collapsible=0;dropTarget=0;points=[[0,0.5],[1,0.5]];portConstraint=eastwest;top=0;left=0;right=0;bottom=0;rounded=0;fontFamily=Courier New;fontSize=16;strokeColor=#000000;" parent="jDI96cK5oBP2eikoeisR-202" vertex="1">
          <mxGeometry y="95" width="517" height="30" as="geometry" />
        </mxCell>
        <mxCell id="jDI96cK5oBP2eikoeisR-210" value="" style="shape=partialRectangle;connectable=0;fillColor=none;top=0;left=0;bottom=0;right=0;editable=1;overflow=hidden;whiteSpace=wrap;html=1;rounded=0;fontFamily=Courier New;fontSize=16;strokeColor=#000000;" parent="jDI96cK5oBP2eikoeisR-209" vertex="1">
          <mxGeometry width="30" height="30" as="geometry">
            <mxRectangle width="30" height="30" as="alternateBounds" />
          </mxGeometry>
        </mxCell>
        <mxCell id="jDI96cK5oBP2eikoeisR-211" value="&lt;span style=&quot;background-color: transparent;&quot;&gt;description_offre&amp;nbsp; &amp;nbsp; &amp;nbsp; &amp;nbsp; &amp;nbsp; &amp;nbsp; &amp;nbsp; &amp;nbsp; &amp;nbsp; &amp;nbsp;&lt;b style=&quot;color: light-dark(rgb(0, 0, 0), rgb(255, 255, 255));&quot;&gt;varchar(5000)&lt;/b&gt;&lt;/span&gt;" style="shape=partialRectangle;connectable=0;fillColor=none;top=0;left=0;bottom=0;right=0;align=left;spacingLeft=6;overflow=hidden;whiteSpace=wrap;html=1;rounded=0;fontFamily=Courier New;fontSize=16;strokeColor=#000000;" parent="jDI96cK5oBP2eikoeisR-209" vertex="1">
          <mxGeometry x="30" width="487" height="30" as="geometry">
            <mxRectangle width="487" height="30" as="alternateBounds" />
          </mxGeometry>
        </mxCell>
        <mxCell id="jDI96cK5oBP2eikoeisR-221" value="" style="shape=tableRow;horizontal=0;startSize=0;swimlaneHead=0;swimlaneBody=0;fillColor=none;collapsible=0;dropTarget=0;points=[[0,0.5],[1,0.5]];portConstraint=eastwest;top=0;left=0;right=0;bottom=0;rounded=0;fontFamily=Courier New;fontSize=16;strokeColor=#000000;" parent="jDI96cK5oBP2eikoeisR-202" vertex="1">
          <mxGeometry y="125" width="517" height="30" as="geometry" />
        </mxCell>
        <mxCell id="jDI96cK5oBP2eikoeisR-222" value="" style="shape=partialRectangle;connectable=0;fillColor=none;top=0;left=0;bottom=0;right=0;editable=1;overflow=hidden;whiteSpace=wrap;html=1;rounded=0;fontFamily=Courier New;fontSize=16;strokeColor=#000000;" parent="jDI96cK5oBP2eikoeisR-221" vertex="1">
          <mxGeometry width="30" height="30" as="geometry">
            <mxRectangle width="30" height="30" as="alternateBounds" />
          </mxGeometry>
        </mxCell>
        <mxCell id="jDI96cK5oBP2eikoeisR-223" value="&lt;span style=&quot;background-color: transparent;&quot;&gt;nom_partenaire&amp;nbsp; &amp;nbsp; &amp;nbsp; &amp;nbsp; &amp;nbsp; &amp;nbsp; &amp;nbsp; &amp;nbsp; &amp;nbsp; &amp;nbsp; &amp;nbsp;&amp;nbsp;&lt;b style=&quot;color: light-dark(rgb(0, 0, 0), rgb(255, 255, 255));&quot;&gt;varchar(30)&lt;/b&gt;&lt;/span&gt;" style="shape=partialRectangle;connectable=0;fillColor=none;top=0;left=0;bottom=0;right=0;align=left;spacingLeft=6;overflow=hidden;whiteSpace=wrap;html=1;rounded=0;fontFamily=Courier New;fontSize=16;strokeColor=#000000;" parent="jDI96cK5oBP2eikoeisR-221" vertex="1">
          <mxGeometry x="30" width="487" height="30" as="geometry">
            <mxRectangle width="487" height="30" as="alternateBounds" />
          </mxGeometry>
        </mxCell>
        <mxCell id="jDI96cK5oBP2eikoeisR-224" value="" style="shape=tableRow;horizontal=0;startSize=0;swimlaneHead=0;swimlaneBody=0;fillColor=none;collapsible=0;dropTarget=0;points=[[0,0.5],[1,0.5]];portConstraint=eastwest;top=0;left=0;right=0;bottom=0;rounded=0;fontFamily=Courier New;fontSize=16;strokeColor=#000000;" parent="jDI96cK5oBP2eikoeisR-202" vertex="1">
          <mxGeometry y="155" width="517" height="30" as="geometry" />
        </mxCell>
        <mxCell id="jDI96cK5oBP2eikoeisR-225" value="" style="shape=partialRectangle;connectable=0;fillColor=none;top=0;left=0;bottom=0;right=0;editable=1;overflow=hidden;whiteSpace=wrap;html=1;rounded=0;fontFamily=Courier New;fontSize=16;strokeColor=#000000;" parent="jDI96cK5oBP2eikoeisR-224" vertex="1">
          <mxGeometry width="30" height="30" as="geometry">
            <mxRectangle width="30" height="30" as="alternateBounds" />
          </mxGeometry>
        </mxCell>
        <mxCell id="jDI96cK5oBP2eikoeisR-226" value="&lt;span style=&quot;background-color: transparent;&quot;&gt;rome_code&amp;nbsp; &amp;nbsp; &amp;nbsp; &amp;nbsp; &amp;nbsp; &amp;nbsp; &amp;nbsp; &amp;nbsp; &amp;nbsp; &amp;nbsp; &amp;nbsp; &amp;nbsp; &amp;nbsp; &amp;nbsp;&lt;b style=&quot;color: light-dark(rgb(0, 0, 0), rgb(255, 255, 255));&quot;&gt;varchar(5)&lt;/b&gt;&lt;/span&gt;" style="shape=partialRectangle;connectable=0;fillColor=none;top=0;left=0;bottom=0;right=0;align=left;spacingLeft=6;overflow=hidden;whiteSpace=wrap;html=1;rounded=0;fontFamily=Courier New;fontSize=16;strokeColor=#000000;" parent="jDI96cK5oBP2eikoeisR-224" vertex="1">
          <mxGeometry x="30" width="487" height="30" as="geometry">
            <mxRectangle width="487" height="30" as="alternateBounds" />
          </mxGeometry>
        </mxCell>
        <mxCell id="jDI96cK5oBP2eikoeisR-212" value="" style="shape=tableRow;horizontal=0;startSize=0;swimlaneHead=0;swimlaneBody=0;fillColor=none;collapsible=0;dropTarget=0;points=[[0,0.5],[1,0.5]];portConstraint=eastwest;top=0;left=0;right=0;bottom=0;rounded=0;fontFamily=Courier New;fontSize=16;strokeColor=#000000;" parent="jDI96cK5oBP2eikoeisR-202" vertex="1">
          <mxGeometry y="185" width="517" height="30" as="geometry" />
        </mxCell>
        <mxCell id="jDI96cK5oBP2eikoeisR-213" value="" style="shape=partialRectangle;connectable=0;fillColor=none;top=0;left=0;bottom=0;right=0;editable=1;overflow=hidden;whiteSpace=wrap;html=1;rounded=0;fontFamily=Courier New;fontSize=16;strokeColor=#000000;" parent="jDI96cK5oBP2eikoeisR-212" vertex="1">
          <mxGeometry width="30" height="30" as="geometry">
            <mxRectangle width="30" height="30" as="alternateBounds" />
          </mxGeometry>
        </mxCell>
        <mxCell id="jDI96cK5oBP2eikoeisR-214" value="&lt;span style=&quot;background-color: transparent;&quot;&gt;rome_libelle&amp;nbsp;&amp;nbsp;&lt;font color=&quot;rgba(0, 0, 0, 0)&quot;&gt;&amp;nbsp; &amp;nbsp; &amp;nbsp; &amp;nbsp; &amp;nbsp; &amp;nbsp; &amp;nbsp; &amp;nbsp; &amp;nbsp; &amp;nbsp; &amp;nbsp;&amp;nbsp;&lt;/font&gt;&lt;b style=&quot;color: light-dark(rgb(0, 0, 0), rgb(255, 255, 255));&quot;&gt;varchar(100)&lt;/b&gt;&lt;/span&gt;" style="shape=partialRectangle;connectable=0;fillColor=none;top=0;left=0;bottom=0;right=0;align=left;spacingLeft=6;overflow=hidden;whiteSpace=wrap;html=1;rounded=0;fontFamily=Courier New;fontSize=16;strokeColor=#000000;" parent="jDI96cK5oBP2eikoeisR-212" vertex="1">
          <mxGeometry x="30" width="487" height="30" as="geometry">
            <mxRectangle width="487" height="30" as="alternateBounds" />
          </mxGeometry>
        </mxCell>
        <mxCell id="jDI96cK5oBP2eikoeisR-215" value="" style="shape=tableRow;horizontal=0;startSize=0;swimlaneHead=0;swimlaneBody=0;fillColor=none;collapsible=0;dropTarget=0;points=[[0,0.5],[1,0.5]];portConstraint=eastwest;top=0;left=0;right=0;bottom=0;rounded=0;fontFamily=Courier New;fontSize=16;strokeColor=#000000;" parent="jDI96cK5oBP2eikoeisR-202" vertex="1">
          <mxGeometry y="215" width="517" height="30" as="geometry" />
        </mxCell>
        <mxCell id="jDI96cK5oBP2eikoeisR-216" value="" style="shape=partialRectangle;connectable=0;fillColor=none;top=0;left=0;bottom=0;right=0;editable=1;overflow=hidden;whiteSpace=wrap;html=1;rounded=0;fontFamily=Courier New;fontSize=16;strokeColor=#000000;" parent="jDI96cK5oBP2eikoeisR-215" vertex="1">
          <mxGeometry width="30" height="30" as="geometry">
            <mxRectangle width="30" height="30" as="alternateBounds" />
          </mxGeometry>
        </mxCell>
        <mxCell id="jDI96cK5oBP2eikoeisR-217" value="appellation_rome&amp;nbsp; &amp;nbsp; &amp;nbsp; &amp;nbsp; &amp;nbsp; &amp;nbsp; &amp;nbsp; &amp;nbsp; &amp;nbsp; &amp;nbsp;&amp;nbsp;&lt;b&gt;varchar(100)&lt;/b&gt;" style="shape=partialRectangle;connectable=0;fillColor=none;top=0;left=0;bottom=0;right=0;align=left;spacingLeft=6;overflow=hidden;whiteSpace=wrap;html=1;rounded=0;fontFamily=Courier New;fontSize=16;strokeColor=#000000;" parent="jDI96cK5oBP2eikoeisR-215" vertex="1">
          <mxGeometry x="30" width="487" height="30" as="geometry">
            <mxRectangle width="487" height="30" as="alternateBounds" />
          </mxGeometry>
        </mxCell>
        <mxCell id="jDI96cK5oBP2eikoeisR-218" value="" style="shape=tableRow;horizontal=0;startSize=0;swimlaneHead=0;swimlaneBody=0;fillColor=none;collapsible=0;dropTarget=0;points=[[0,0.5],[1,0.5]];portConstraint=eastwest;top=0;left=0;right=0;bottom=0;rounded=0;fontFamily=Courier New;fontSize=16;strokeColor=#000000;" parent="jDI96cK5oBP2eikoeisR-202" vertex="1">
          <mxGeometry y="245" width="517" height="30" as="geometry" />
        </mxCell>
        <mxCell id="jDI96cK5oBP2eikoeisR-219" value="" style="shape=partialRectangle;connectable=0;fillColor=none;top=0;left=0;bottom=0;right=0;editable=1;overflow=hidden;whiteSpace=wrap;html=1;rounded=0;fontFamily=Courier New;fontSize=16;strokeColor=#000000;" parent="jDI96cK5oBP2eikoeisR-218" vertex="1">
          <mxGeometry width="30" height="30" as="geometry">
            <mxRectangle width="30" height="30" as="alternateBounds" />
          </mxGeometry>
        </mxCell>
        <mxCell id="jDI96cK5oBP2eikoeisR-220" value="difficile_a_pourvoir&amp;nbsp; &amp;nbsp; &amp;nbsp; &amp;nbsp; &amp;nbsp; &amp;nbsp; &amp;nbsp; &amp;nbsp;&amp;nbsp;&lt;b&gt;boolean&lt;/b&gt;" style="shape=partialRectangle;connectable=0;fillColor=none;top=0;left=0;bottom=0;right=0;align=left;spacingLeft=6;overflow=hidden;whiteSpace=wrap;html=1;rounded=0;fontFamily=Courier New;fontSize=16;strokeColor=#000000;" parent="jDI96cK5oBP2eikoeisR-218" vertex="1">
          <mxGeometry x="30" width="487" height="30" as="geometry">
            <mxRectangle width="487" height="30" as="alternateBounds" />
          </mxGeometry>
        </mxCell>
        <mxCell id="jDI96cK5oBP2eikoeisR-227" value="" style="shape=tableRow;horizontal=0;startSize=0;swimlaneHead=0;swimlaneBody=0;fillColor=none;collapsible=0;dropTarget=0;points=[[0,0.5],[1,0.5]];portConstraint=eastwest;top=0;left=0;right=0;bottom=0;rounded=0;fontFamily=Courier New;fontSize=16;strokeColor=#000000;" parent="jDI96cK5oBP2eikoeisR-202" vertex="1">
          <mxGeometry y="275" width="517" height="30" as="geometry" />
        </mxCell>
        <mxCell id="jDI96cK5oBP2eikoeisR-228" value="" style="shape=partialRectangle;connectable=0;fillColor=none;top=0;left=0;bottom=0;right=0;editable=1;overflow=hidden;whiteSpace=wrap;html=1;rounded=0;fontFamily=Courier New;fontSize=16;strokeColor=#000000;" parent="jDI96cK5oBP2eikoeisR-227" vertex="1">
          <mxGeometry width="30" height="30" as="geometry">
            <mxRectangle width="30" height="30" as="alternateBounds" />
          </mxGeometry>
        </mxCell>
        <mxCell id="jDI96cK5oBP2eikoeisR-229" value="accessible_travailleurs_handicapes&amp;nbsp; &lt;b style=&quot;color: light-dark(rgb(0, 0, 0), rgb(255, 255, 255)); background-color: transparent;&quot;&gt;boolean&lt;/b&gt;" style="shape=partialRectangle;connectable=0;fillColor=none;top=0;left=0;bottom=0;right=0;align=left;spacingLeft=6;overflow=hidden;whiteSpace=wrap;html=1;rounded=0;fontFamily=Courier New;fontSize=16;strokeColor=#000000;" parent="jDI96cK5oBP2eikoeisR-227" vertex="1">
          <mxGeometry x="30" width="487" height="30" as="geometry">
            <mxRectangle width="487" height="30" as="alternateBounds" />
          </mxGeometry>
        </mxCell>
        <mxCell id="7cm1uGuYmRt7C3BRz6BK-1" value="" style="shape=tableRow;horizontal=0;startSize=0;swimlaneHead=0;swimlaneBody=0;fillColor=none;collapsible=0;dropTarget=0;points=[[0,0.5],[1,0.5]];portConstraint=eastwest;top=0;left=0;right=0;bottom=0;rounded=0;fontFamily=Courier New;fontSize=16;strokeColor=#000000;" parent="jDI96cK5oBP2eikoeisR-202" vertex="1">
          <mxGeometry y="305" width="517" height="30" as="geometry" />
        </mxCell>
        <mxCell id="7cm1uGuYmRt7C3BRz6BK-2" value="" style="shape=partialRectangle;connectable=0;fillColor=none;top=0;left=0;bottom=0;right=0;editable=1;overflow=hidden;whiteSpace=wrap;html=1;rounded=0;fontFamily=Courier New;fontSize=16;strokeColor=#000000;" parent="7cm1uGuYmRt7C3BRz6BK-1" vertex="1">
          <mxGeometry width="30" height="30" as="geometry">
            <mxRectangle width="30" height="30" as="alternateBounds" />
          </mxGeometry>
        </mxCell>
        <mxCell id="7cm1uGuYmRt7C3BRz6BK-3" value="&lt;font&gt;&lt;font style=&quot;color: rgb(0, 0, 0); background-color: rgb(230, 255, 204);&quot;&gt;metier_data&lt;/font&gt;&lt;font style=&quot;color: rgb(0, 0, 0);&quot;&gt;&amp;nbsp; &amp;nbsp; &amp;nbsp; &amp;nbsp; &amp;nbsp; &amp;nbsp; &amp;nbsp; &amp;nbsp; &amp;nbsp; &amp;nbsp; &amp;nbsp; &amp;nbsp; &amp;nbsp;&lt;/font&gt;&lt;b style=&quot;color: light-dark(rgb(0, 0, 0), rgb(237, 237, 237)); background-color: transparent;&quot;&gt;varchar(2)&lt;/b&gt;&lt;/font&gt;" style="shape=partialRectangle;connectable=0;fillColor=none;top=0;left=0;bottom=0;right=0;align=left;spacingLeft=6;overflow=hidden;whiteSpace=wrap;html=1;rounded=0;fontFamily=Courier New;fontSize=16;strokeColor=#000000;" parent="7cm1uGuYmRt7C3BRz6BK-1" vertex="1">
          <mxGeometry x="30" width="487" height="30" as="geometry">
            <mxRectangle width="487" height="30" as="alternateBounds" />
          </mxGeometry>
        </mxCell>
        <mxCell id="jDI96cK5oBP2eikoeisR-230" style="edgeStyle=none;rounded=1;orthogonalLoop=1;jettySize=auto;html=1;curved=0;entryX=-0.002;entryY=0.155;entryDx=0;entryDy=0;entryPerimeter=0;exitX=1.001;exitY=0.046;exitDx=0;exitDy=0;exitPerimeter=0;" parent="1" source="C7LOxqXwbHzqQDy3l2-N-77" target="-QC0LfeOqHy5VNt_hiCN-1" edge="1">
          <mxGeometry relative="1" as="geometry">
            <mxPoint x="-2707" y="1504" as="targetPoint" />
            <Array as="points" />
            <mxPoint x="-3165" y="1497" as="sourcePoint" />
          </mxGeometry>
        </mxCell>
        <mxCell id="jDI96cK5oBP2eikoeisR-232" style="edgeStyle=none;rounded=1;orthogonalLoop=1;jettySize=auto;html=1;curved=0;entryX=0.821;entryY=1.017;entryDx=0;entryDy=0;entryPerimeter=0;exitX=0.5;exitY=0;exitDx=0;exitDy=0;" parent="1" source="jDI96cK5oBP2eikoeisR-183" target="-QC0LfeOqHy5VNt_hiCN-11" edge="1">
          <mxGeometry relative="1" as="geometry">
            <mxPoint x="-2480" y="1653" as="targetPoint" />
            <Array as="points">
              <mxPoint x="-1804" y="1763" />
              <mxPoint x="-2394" y="1758" />
            </Array>
          </mxGeometry>
        </mxCell>
        <mxCell id="jDI96cK5oBP2eikoeisR-233" style="edgeStyle=none;rounded=1;orthogonalLoop=1;jettySize=auto;html=1;curved=0;entryX=0.166;entryY=1.007;entryDx=0;entryDy=0;entryPerimeter=0;" parent="1" source="jDI96cK5oBP2eikoeisR-202" edge="1" target="-QC0LfeOqHy5VNt_hiCN-11">
          <mxGeometry relative="1" as="geometry">
            <mxPoint x="-2664" y="1656" as="targetPoint" />
            <Array as="points">
              <mxPoint x="-2817" y="1714" />
              <mxPoint x="-2664" y="1714" />
            </Array>
          </mxGeometry>
        </mxCell>
        <mxCell id="jDI96cK5oBP2eikoeisR-253" value="1" style="text;html=1;align=center;verticalAlign=middle;resizable=0;points=[];autosize=1;strokeColor=none;fillColor=none;rounded=1;fontStyle=1;fontSize=16;arcSize=50;" parent="1" vertex="1">
          <mxGeometry x="-1731" y="1463" width="27" height="31" as="geometry" />
        </mxCell>
        <mxCell id="jDI96cK5oBP2eikoeisR-259" value="*" style="text;html=1;align=center;verticalAlign=middle;resizable=0;points=[];autosize=1;strokeColor=none;fillColor=none;rounded=1;strokeWidth=1;fontSize=30;fontStyle=1;arcSize=50;" parent="1" vertex="1">
          <mxGeometry x="-1985" y="1213" width="30" height="48" as="geometry" />
        </mxCell>
        <mxCell id="jDI96cK5oBP2eikoeisR-260" value="*" style="text;html=1;align=center;verticalAlign=middle;resizable=0;points=[];autosize=1;strokeColor=none;fillColor=none;rounded=1;strokeWidth=1;fontSize=30;fontStyle=1;arcSize=0;" parent="1" vertex="1">
          <mxGeometry x="-1814" y="1461" width="30" height="48" as="geometry" />
        </mxCell>
        <mxCell id="jDI96cK5oBP2eikoeisR-262" value="1" style="text;html=1;align=center;verticalAlign=middle;resizable=0;points=[];autosize=1;strokeColor=none;fillColor=none;rounded=1;fontStyle=1;fontSize=16;" parent="1" vertex="1">
          <mxGeometry x="-1992" y="1112" width="27" height="31" as="geometry" />
        </mxCell>
        <mxCell id="jDI96cK5oBP2eikoeisR-263" value="1" style="text;html=1;align=center;verticalAlign=middle;resizable=0;points=[];autosize=1;strokeColor=none;fillColor=none;rounded=1;fontStyle=1;fontSize=16;" parent="1" vertex="1">
          <mxGeometry x="-2475" y="1141" width="27" height="31" as="geometry" />
        </mxCell>
        <mxCell id="jDI96cK5oBP2eikoeisR-265" value="1" style="text;html=1;align=center;verticalAlign=middle;resizable=0;points=[];autosize=1;strokeColor=none;fillColor=none;rounded=1;fontStyle=1;fontSize=16;arcSize=50;" parent="1" vertex="1">
          <mxGeometry x="-1549" y="1227" width="27" height="31" as="geometry" />
        </mxCell>
        <mxCell id="jDI96cK5oBP2eikoeisR-266" value="1" style="text;html=1;align=center;verticalAlign=middle;resizable=0;points=[];autosize=1;strokeColor=none;fillColor=none;rounded=1;fontStyle=1;fontSize=16;arcSize=50;" parent="1" vertex="1">
          <mxGeometry x="-2969" y="1169" width="27" height="31" as="geometry" />
        </mxCell>
        <mxCell id="jDI96cK5oBP2eikoeisR-267" value="1" style="text;html=1;align=center;verticalAlign=middle;resizable=0;points=[];autosize=1;strokeColor=none;fillColor=none;rounded=1;fontStyle=1;fontSize=16;arcSize=50;" parent="1" vertex="1">
          <mxGeometry x="-3419" y="1168" width="27" height="31" as="geometry" />
        </mxCell>
        <mxCell id="jDI96cK5oBP2eikoeisR-268" value="*" style="text;html=1;align=center;verticalAlign=middle;resizable=0;points=[];autosize=1;strokeColor=none;fillColor=none;rounded=1;strokeWidth=1;fontSize=30;fontStyle=1;arcSize=50;" parent="1" vertex="1">
          <mxGeometry x="-2472" y="1214" width="30" height="48" as="geometry" />
        </mxCell>
        <mxCell id="jDI96cK5oBP2eikoeisR-271" value="*" style="text;html=1;align=center;verticalAlign=middle;resizable=0;points=[];autosize=1;strokeColor=none;fillColor=none;rounded=1;strokeWidth=1;fontSize=30;fontStyle=1;arcSize=50;" parent="1" vertex="1">
          <mxGeometry x="-3417" y="1217" width="30" height="48" as="geometry" />
        </mxCell>
        <mxCell id="jDI96cK5oBP2eikoeisR-272" value="*" style="text;html=1;align=center;verticalAlign=middle;resizable=0;points=[];autosize=1;strokeColor=none;fillColor=none;rounded=1;strokeWidth=1;fontSize=30;fontStyle=1;arcSize=50;" parent="1" vertex="1">
          <mxGeometry x="-2968" y="1212" width="30" height="48" as="geometry" />
        </mxCell>
        <mxCell id="jDI96cK5oBP2eikoeisR-273" value="*" style="text;html=1;align=center;verticalAlign=middle;resizable=0;points=[];autosize=1;strokeColor=none;fillColor=none;rounded=1;strokeWidth=1;fontSize=30;fontStyle=1;arcSize=50;" parent="1" vertex="1">
          <mxGeometry x="-1549" y="1390" width="30" height="48" as="geometry" />
        </mxCell>
        <mxCell id="jDI96cK5oBP2eikoeisR-274" value="*" style="text;html=1;align=center;verticalAlign=middle;resizable=0;points=[];autosize=1;strokeColor=none;fillColor=none;rounded=1;strokeWidth=1;fontSize=30;fontStyle=1;arcSize=0;" parent="1" vertex="1">
          <mxGeometry x="-2473" y="1334" width="30" height="48" as="geometry" />
        </mxCell>
        <mxCell id="jDI96cK5oBP2eikoeisR-275" value="*" style="text;html=1;align=center;verticalAlign=middle;resizable=0;points=[];autosize=1;strokeColor=none;fillColor=none;rounded=1;strokeWidth=1;fontSize=30;fontStyle=1;arcSize=50;" parent="1" vertex="1">
          <mxGeometry x="-1550" y="1263" width="30" height="48" as="geometry" />
        </mxCell>
        <mxCell id="jDI96cK5oBP2eikoeisR-285" value="*" style="text;html=1;align=center;verticalAlign=middle;resizable=0;points=[];autosize=1;strokeColor=none;fillColor=none;rounded=1;strokeWidth=1;fontSize=30;fontStyle=1;arcSize=0;" parent="1" vertex="1">
          <mxGeometry x="-2117" y="1465.5" width="30" height="48" as="geometry" />
        </mxCell>
        <mxCell id="jDI96cK5oBP2eikoeisR-287" value="*" style="text;html=1;align=center;verticalAlign=middle;resizable=0;points=[];autosize=1;strokeColor=none;fillColor=none;rounded=1;strokeWidth=1;fontSize=30;fontStyle=1;arcSize=0;" parent="1" vertex="1">
          <mxGeometry x="-1983" y="1336" width="30" height="48" as="geometry" />
        </mxCell>
        <mxCell id="jDI96cK5oBP2eikoeisR-288" value="*" style="text;html=1;align=center;verticalAlign=middle;resizable=0;points=[];autosize=1;strokeColor=none;fillColor=none;rounded=1;strokeWidth=1;fontSize=30;fontStyle=1;arcSize=50;" parent="1" vertex="1">
          <mxGeometry x="-2970" y="1336" width="30" height="48" as="geometry" />
        </mxCell>
        <mxCell id="jDI96cK5oBP2eikoeisR-289" value="1" style="text;html=1;align=center;verticalAlign=middle;resizable=0;points=[];autosize=1;strokeColor=none;fillColor=none;rounded=1;fontStyle=1;fontSize=16;" parent="1" vertex="1">
          <mxGeometry x="-2668" y="1448" width="27" height="31" as="geometry" />
        </mxCell>
        <mxCell id="jDI96cK5oBP2eikoeisR-290" value="1" style="text;html=1;align=center;verticalAlign=middle;resizable=0;points=[];autosize=1;strokeColor=none;fillColor=none;rounded=1;fontStyle=1;fontSize=16;" parent="1" vertex="1">
          <mxGeometry x="-2608" y="1447" width="27" height="31" as="geometry" />
        </mxCell>
        <mxCell id="jDI96cK5oBP2eikoeisR-293" value="1" style="text;html=1;align=center;verticalAlign=middle;resizable=0;points=[];autosize=1;strokeColor=none;fillColor=none;rounded=1;fontStyle=1;fontSize=16;" parent="1" vertex="1">
          <mxGeometry x="-2414" y="1447" width="27" height="31" as="geometry" />
        </mxCell>
        <mxCell id="jDI96cK5oBP2eikoeisR-294" value="1" style="text;html=1;align=center;verticalAlign=middle;resizable=0;points=[];autosize=1;strokeColor=none;fillColor=none;rounded=1;fontStyle=1;fontSize=16;" parent="1" vertex="1">
          <mxGeometry x="-2473" y="1448" width="27" height="31" as="geometry" />
        </mxCell>
        <mxCell id="jDI96cK5oBP2eikoeisR-298" value="*" style="text;html=1;align=center;verticalAlign=middle;resizable=0;points=[];autosize=1;strokeColor=none;fillColor=none;rounded=1;strokeWidth=1;fontSize=30;fontStyle=1;arcSize=50;" parent="1" vertex="1">
          <mxGeometry x="-2768" y="1504" width="30" height="48" as="geometry" />
        </mxCell>
        <mxCell id="jDI96cK5oBP2eikoeisR-299" value="*" style="text;html=1;align=center;verticalAlign=middle;resizable=0;points=[];autosize=1;strokeColor=none;fillColor=none;rounded=1;strokeWidth=1;fontSize=30;fontStyle=1;arcSize=50;" parent="1" vertex="1">
          <mxGeometry x="-2394" y="1682" width="30" height="48" as="geometry" />
        </mxCell>
        <mxCell id="jDI96cK5oBP2eikoeisR-301" value="*" style="text;html=1;align=center;verticalAlign=middle;resizable=0;points=[];autosize=1;strokeColor=none;fillColor=none;rounded=1;strokeWidth=1;fontSize=30;fontStyle=1;arcSize=50;" parent="1" vertex="1">
          <mxGeometry x="-2527" y="1680" width="30" height="48" as="geometry" />
        </mxCell>
        <mxCell id="jDI96cK5oBP2eikoeisR-302" value="*" style="text;html=1;align=center;verticalAlign=middle;resizable=0;points=[];autosize=1;strokeColor=none;fillColor=none;rounded=1;strokeWidth=1;fontSize=30;fontStyle=1;arcSize=50;" parent="1" vertex="1">
          <mxGeometry x="-2664" y="1677.5" width="30" height="48" as="geometry" />
        </mxCell>
        <mxCell id="jDI96cK5oBP2eikoeisR-303" value="1" style="text;html=1;align=center;verticalAlign=middle;resizable=0;points=[];autosize=1;strokeColor=none;fillColor=none;rounded=1;fontStyle=1;fontSize=16;" parent="1" vertex="1">
          <mxGeometry x="-2817" y="1739" width="27" height="31" as="geometry" />
        </mxCell>
        <mxCell id="jDI96cK5oBP2eikoeisR-304" value="1" style="text;html=1;align=center;verticalAlign=middle;resizable=0;points=[];autosize=1;strokeColor=none;fillColor=none;rounded=1;fontStyle=1;fontSize=16;" parent="1" vertex="1">
          <mxGeometry x="-1805.5" y="1776" width="27" height="31" as="geometry" />
        </mxCell>
        <mxCell id="jDI96cK5oBP2eikoeisR-305" value="1" style="text;html=1;align=center;verticalAlign=middle;resizable=0;points=[];autosize=1;strokeColor=none;fillColor=none;rounded=1;fontStyle=1;fontSize=16;" parent="1" vertex="1">
          <mxGeometry x="-3162" y="1507.5" width="27" height="31" as="geometry" />
        </mxCell>
        <mxCell id="jDI96cK5oBP2eikoeisR-306" value="1" style="text;html=1;align=center;verticalAlign=middle;resizable=0;points=[];autosize=1;strokeColor=none;fillColor=none;rounded=1;fontStyle=1;fontSize=16;" parent="1" vertex="1">
          <mxGeometry x="-2258.5" y="1841" width="27" height="31" as="geometry" />
        </mxCell>
        <mxCell id="jDI96cK5oBP2eikoeisR-329" value="1" style="text;html=1;align=center;verticalAlign=middle;resizable=0;points=[];autosize=1;strokeColor=none;fillColor=none;rounded=1;fontStyle=1;fontSize=16;" parent="1" vertex="1">
          <mxGeometry x="-2319" y="1466" width="27" height="31" as="geometry" />
        </mxCell>
        <mxCell id="jDI96cK5oBP2eikoeisR-336" value="1" style="text;html=1;align=center;verticalAlign=middle;resizable=0;points=[];autosize=1;strokeColor=none;fillColor=none;rounded=1;fontStyle=1;fontSize=16;" parent="1" vertex="1">
          <mxGeometry x="-2318" y="1515" width="27" height="31" as="geometry" />
        </mxCell>
        <mxCell id="jDI96cK5oBP2eikoeisR-337" value="*" style="text;html=1;align=center;verticalAlign=middle;resizable=0;points=[];autosize=1;strokeColor=none;fillColor=none;rounded=1;strokeWidth=1;fontSize=30;fontStyle=1;arcSize=50;" parent="1" vertex="1">
          <mxGeometry x="-3420" y="1338" width="30" height="48" as="geometry" />
        </mxCell>
        <mxCell id="jDI96cK5oBP2eikoeisR-338" value="1" style="text;html=1;align=center;verticalAlign=middle;resizable=0;points=[];autosize=1;strokeColor=none;fillColor=none;rounded=1;fontStyle=1;fontSize=16;" parent="1" vertex="1">
          <mxGeometry x="-2527" y="1447" width="27" height="31" as="geometry" />
        </mxCell>
        <mxCell id="C7LOxqXwbHzqQDy3l2-N-447" value="&lt;font style=&quot;font-size: 24px;&quot;&gt;Langue&lt;/font&gt;" style="shape=table;startSize=30;container=1;collapsible=0;childLayout=tableLayout;fixedRows=1;rowLines=0;fontStyle=1;align=center;resizeLast=1;html=1;fillColor=#ffff88;strokeColor=#36393d;rounded=0;fontFamily=Courier New;fontSize=16;" parent="1" vertex="1">
          <mxGeometry x="-1698" y="1626" width="360" height="120" as="geometry" />
        </mxCell>
        <mxCell id="C7LOxqXwbHzqQDy3l2-N-448" value="" style="shape=tableRow;horizontal=0;startSize=0;swimlaneHead=0;swimlaneBody=0;fillColor=none;collapsible=0;dropTarget=0;points=[[0,0.5],[1,0.5]];portConstraint=eastwest;top=0;left=0;right=0;bottom=1;rounded=0;fontFamily=Courier New;fontSize=16;strokeColor=#000000;" parent="C7LOxqXwbHzqQDy3l2-N-447" vertex="1">
          <mxGeometry y="30" width="360" height="30" as="geometry" />
        </mxCell>
        <mxCell id="C7LOxqXwbHzqQDy3l2-N-449" value="PK" style="shape=partialRectangle;connectable=0;fillColor=none;top=0;left=0;bottom=0;right=0;fontStyle=1;overflow=hidden;whiteSpace=wrap;html=1;rounded=0;fontFamily=Courier New;fontSize=16;strokeColor=#000000;" parent="C7LOxqXwbHzqQDy3l2-N-448" vertex="1">
          <mxGeometry width="30" height="30" as="geometry">
            <mxRectangle width="30" height="30" as="alternateBounds" />
          </mxGeometry>
        </mxCell>
        <mxCell id="C7LOxqXwbHzqQDy3l2-N-450" value="&lt;u&gt;langue_id&lt;/u&gt;&amp;nbsp; &amp;nbsp; &amp;nbsp; &amp;nbsp; &amp;nbsp; &amp;nbsp; &amp;nbsp;serial" style="shape=partialRectangle;connectable=0;fillColor=none;top=0;left=0;bottom=0;right=0;align=left;spacingLeft=6;fontStyle=1;overflow=hidden;whiteSpace=wrap;html=1;rounded=0;fontFamily=Courier New;fontSize=16;strokeColor=#000000;" parent="C7LOxqXwbHzqQDy3l2-N-448" vertex="1">
          <mxGeometry x="30" width="330" height="30" as="geometry">
            <mxRectangle width="330" height="30" as="alternateBounds" />
          </mxGeometry>
        </mxCell>
        <mxCell id="C7LOxqXwbHzqQDy3l2-N-454" value="" style="shape=tableRow;horizontal=0;startSize=0;swimlaneHead=0;swimlaneBody=0;fillColor=none;collapsible=0;dropTarget=0;points=[[0,0.5],[1,0.5]];portConstraint=eastwest;top=0;left=0;right=0;bottom=0;rounded=0;fontFamily=Courier New;fontSize=16;strokeColor=#000000;" parent="C7LOxqXwbHzqQDy3l2-N-447" vertex="1">
          <mxGeometry y="60" width="360" height="30" as="geometry" />
        </mxCell>
        <mxCell id="C7LOxqXwbHzqQDy3l2-N-455" value="" style="shape=partialRectangle;connectable=0;fillColor=none;top=0;left=0;bottom=0;right=0;editable=1;overflow=hidden;whiteSpace=wrap;html=1;rounded=0;fontFamily=Courier New;fontSize=16;strokeColor=#000000;" parent="C7LOxqXwbHzqQDy3l2-N-454" vertex="1">
          <mxGeometry width="30" height="30" as="geometry">
            <mxRectangle width="30" height="30" as="alternateBounds" />
          </mxGeometry>
        </mxCell>
        <mxCell id="C7LOxqXwbHzqQDy3l2-N-456" value="&lt;div&gt;&lt;span style=&quot;background-color: transparent;&quot;&gt;langue_libelle&amp;nbsp; &amp;nbsp; &amp;nbsp; &amp;nbsp;&amp;nbsp;&lt;/span&gt;&lt;b&gt;varchar(3&lt;/b&gt;&lt;b style=&quot;background-color: transparent; color: light-dark(rgb(0, 0, 0), rgb(255, 255, 255));&quot;&gt;0)&lt;/b&gt;&lt;/div&gt;" style="shape=partialRectangle;connectable=0;fillColor=none;top=0;left=0;bottom=0;right=0;align=left;spacingLeft=6;overflow=hidden;whiteSpace=wrap;html=1;rounded=0;fontFamily=Courier New;fontSize=16;strokeColor=#000000;" parent="C7LOxqXwbHzqQDy3l2-N-454" vertex="1">
          <mxGeometry x="30" width="330" height="30" as="geometry">
            <mxRectangle width="330" height="30" as="alternateBounds" />
          </mxGeometry>
        </mxCell>
        <mxCell id="C7LOxqXwbHzqQDy3l2-N-466" value="" style="shape=tableRow;horizontal=0;startSize=0;swimlaneHead=0;swimlaneBody=0;fillColor=none;collapsible=0;dropTarget=0;points=[[0,0.5],[1,0.5]];portConstraint=eastwest;top=0;left=0;right=0;bottom=0;rounded=0;fontFamily=Courier New;fontSize=16;strokeColor=#000000;" parent="C7LOxqXwbHzqQDy3l2-N-447" vertex="1">
          <mxGeometry y="90" width="360" height="30" as="geometry" />
        </mxCell>
        <mxCell id="C7LOxqXwbHzqQDy3l2-N-467" value="" style="shape=partialRectangle;connectable=0;fillColor=none;top=0;left=0;bottom=0;right=0;editable=1;overflow=hidden;whiteSpace=wrap;html=1;rounded=0;fontFamily=Courier New;fontSize=16;strokeColor=#000000;" parent="C7LOxqXwbHzqQDy3l2-N-466" vertex="1">
          <mxGeometry width="30" height="30" as="geometry">
            <mxRectangle width="30" height="30" as="alternateBounds" />
          </mxGeometry>
        </mxCell>
        <mxCell id="C7LOxqXwbHzqQDy3l2-N-468" value="&lt;div&gt;langue_&lt;span style=&quot;background-color: transparent; color: light-dark(rgb(0, 0, 0), rgb(255, 255, 255));&quot;&gt;code_exigence&lt;/span&gt;&lt;span style=&quot;background-color: transparent; color: light-dark(rgb(0, 0, 0), rgb(255, 255, 255));&quot;&gt;&amp;nbsp;&amp;nbsp;&lt;/span&gt;&lt;b style=&quot;background-color: transparent; color: light-dark(rgb(0, 0, 0), rgb(255, 255, 255));&quot;&gt;varchar(1)&lt;/b&gt;&lt;/div&gt;" style="shape=partialRectangle;connectable=0;fillColor=none;top=0;left=0;bottom=0;right=0;align=left;spacingLeft=6;overflow=hidden;whiteSpace=wrap;html=1;rounded=0;fontFamily=Courier New;fontSize=16;strokeColor=#000000;" parent="C7LOxqXwbHzqQDy3l2-N-466" vertex="1">
          <mxGeometry x="30" width="330" height="30" as="geometry">
            <mxRectangle width="330" height="30" as="alternateBounds" />
          </mxGeometry>
        </mxCell>
        <mxCell id="C7LOxqXwbHzqQDy3l2-N-440" value="&lt;font style=&quot;font-size: 18px;&quot;&gt;Offre_Langue&lt;/font&gt;" style="shape=table;startSize=30;container=1;collapsible=0;childLayout=tableLayout;fixedRows=1;rowLines=0;fontStyle=1;align=center;resizeLast=1;html=1;whiteSpace=wrap;fillColor=#eeeeee;strokeColor=#36393d;fontFamily=Courier New;fontSize=16;" parent="1" vertex="1">
          <mxGeometry x="-2081" y="1627.5" width="270" height="90" as="geometry" />
        </mxCell>
        <mxCell id="C7LOxqXwbHzqQDy3l2-N-441" value="" style="shape=tableRow;horizontal=0;startSize=0;swimlaneHead=0;swimlaneBody=0;fillColor=none;collapsible=0;dropTarget=0;points=[[0,0.5],[1,0.5]];portConstraint=eastwest;top=0;left=0;right=0;bottom=0;html=1;fontFamily=Courier New;fontSize=16;strokeColor=#000000;" parent="C7LOxqXwbHzqQDy3l2-N-440" vertex="1">
          <mxGeometry y="30" width="270" height="30" as="geometry" />
        </mxCell>
        <mxCell id="C7LOxqXwbHzqQDy3l2-N-442" value="PK,FK1" style="shape=partialRectangle;connectable=0;fillColor=none;top=0;left=0;bottom=0;right=0;fontStyle=1;overflow=hidden;html=1;whiteSpace=wrap;fontFamily=Courier New;fontSize=16;strokeColor=#000000;" parent="C7LOxqXwbHzqQDy3l2-N-441" vertex="1">
          <mxGeometry width="60" height="30" as="geometry">
            <mxRectangle width="60" height="30" as="alternateBounds" />
          </mxGeometry>
        </mxCell>
        <mxCell id="C7LOxqXwbHzqQDy3l2-N-443" value="offre_id" style="shape=partialRectangle;connectable=0;fillColor=none;top=0;left=0;bottom=0;right=0;align=left;spacingLeft=6;fontStyle=5;overflow=hidden;html=1;whiteSpace=wrap;fontFamily=Courier New;fontSize=16;strokeColor=#000000;" parent="C7LOxqXwbHzqQDy3l2-N-441" vertex="1">
          <mxGeometry x="60" width="210" height="30" as="geometry">
            <mxRectangle width="210" height="30" as="alternateBounds" />
          </mxGeometry>
        </mxCell>
        <mxCell id="C7LOxqXwbHzqQDy3l2-N-444" value="" style="shape=tableRow;horizontal=0;startSize=0;swimlaneHead=0;swimlaneBody=0;fillColor=none;collapsible=0;dropTarget=0;points=[[0,0.5],[1,0.5]];portConstraint=eastwest;top=0;left=0;right=0;bottom=1;html=1;fontFamily=Courier New;fontSize=16;strokeColor=#000000;" parent="C7LOxqXwbHzqQDy3l2-N-440" vertex="1">
          <mxGeometry y="60" width="270" height="30" as="geometry" />
        </mxCell>
        <mxCell id="C7LOxqXwbHzqQDy3l2-N-445" value="PK,FK2" style="shape=partialRectangle;connectable=0;fillColor=none;top=0;left=0;bottom=0;right=0;fontStyle=1;overflow=hidden;html=1;whiteSpace=wrap;fontFamily=Courier New;fontSize=16;strokeColor=#000000;" parent="C7LOxqXwbHzqQDy3l2-N-444" vertex="1">
          <mxGeometry width="60" height="30" as="geometry">
            <mxRectangle width="60" height="30" as="alternateBounds" />
          </mxGeometry>
        </mxCell>
        <mxCell id="C7LOxqXwbHzqQDy3l2-N-446" value="langue_id" style="shape=partialRectangle;connectable=0;fillColor=none;top=0;left=0;bottom=0;right=0;align=left;spacingLeft=6;fontStyle=5;overflow=hidden;html=1;whiteSpace=wrap;fontFamily=Courier New;fontSize=16;strokeColor=#000000;" parent="C7LOxqXwbHzqQDy3l2-N-444" vertex="1">
          <mxGeometry x="60" width="210" height="30" as="geometry">
            <mxRectangle width="210" height="30" as="alternateBounds" />
          </mxGeometry>
        </mxCell>
        <mxCell id="jDI96cK5oBP2eikoeisR-341" style="edgeStyle=none;rounded=1;orthogonalLoop=1;jettySize=auto;html=1;entryX=1;entryY=0.201;entryDx=0;entryDy=0;entryPerimeter=0;startArrow=classic;startFill=1;endArrow=none;curved=0;exitX=0.976;exitY=0.818;exitDx=0;exitDy=0;exitPerimeter=0;" parent="1" target="-QC0LfeOqHy5VNt_hiCN-1" edge="1">
          <mxGeometry relative="1" as="geometry">
            <mxPoint x="-2080.72" y="1644.264" as="sourcePoint" />
            <mxPoint x="-2249.9399999999996" y="1513.754" as="targetPoint" />
            <Array as="points">
              <mxPoint x="-2167" y="1644" />
              <mxPoint x="-2166" y="1520" />
            </Array>
          </mxGeometry>
        </mxCell>
        <mxCell id="jDI96cK5oBP2eikoeisR-342" style="edgeStyle=none;rounded=0;orthogonalLoop=1;jettySize=auto;html=1;exitX=0.001;exitY=0.14;exitDx=0;exitDy=0;exitPerimeter=0;" parent="1" edge="1">
          <mxGeometry relative="1" as="geometry">
            <mxPoint x="-1699" y="1645" as="sourcePoint" />
            <mxPoint x="-1812" y="1646" as="targetPoint" />
          </mxGeometry>
        </mxCell>
        <mxCell id="jDI96cK5oBP2eikoeisR-343" value="1" style="text;html=1;align=center;verticalAlign=middle;resizable=0;points=[];autosize=1;strokeColor=none;fillColor=none;rounded=1;fontStyle=1;fontSize=16;arcSize=50;" parent="1" vertex="1">
          <mxGeometry x="-1726" y="1615" width="27" height="31" as="geometry" />
        </mxCell>
        <mxCell id="jDI96cK5oBP2eikoeisR-344" value="*" style="text;html=1;align=center;verticalAlign=middle;resizable=0;points=[];autosize=1;strokeColor=none;fillColor=none;rounded=1;strokeWidth=1;fontSize=30;fontStyle=1;arcSize=0;" parent="1" vertex="1">
          <mxGeometry x="-1811" y="1613" width="30" height="48" as="geometry" />
        </mxCell>
        <mxCell id="eq7bmqrXvHVogV1owovV-10" value="&lt;font style=&quot;font-size: 17px;&quot;&gt;Localisation&lt;/font&gt;" style="shape=table;startSize=41;container=1;collapsible=0;childLayout=tableLayout;fixedRows=1;rowLines=0;fontStyle=1;align=center;resizeLast=1;html=1;fillColor=#CCCCCC;strokeColor=#36393d;rounded=0;fontFamily=Courier New;fontSize=15;swimlaneHead=1;perimeterSpacing=0;left=1;" parent="1" vertex="1">
          <mxGeometry x="-1590" y="1876" width="180" height="221" as="geometry">
            <mxRectangle x="-1428" y="1956" width="174" height="38" as="alternateBounds" />
          </mxGeometry>
        </mxCell>
        <mxCell id="eq7bmqrXvHVogV1owovV-11" value="" style="shape=tableRow;horizontal=0;startSize=0;swimlaneHead=0;swimlaneBody=0;fillColor=#CCCCCC;collapsible=0;dropTarget=0;points=[[0,0.5],[1,0.5]];portConstraint=eastwest;top=0;left=0;right=0;bottom=1;rounded=0;fontFamily=Courier New;fontSize=13;fontStyle=4;strokeColor=#000000;" parent="eq7bmqrXvHVogV1owovV-10" vertex="1">
          <mxGeometry y="41" width="180" height="30" as="geometry" />
        </mxCell>
        <mxCell id="eq7bmqrXvHVogV1owovV-12" value="PK" style="shape=partialRectangle;connectable=0;fillColor=none;top=0;left=0;bottom=0;right=0;fontStyle=1;overflow=hidden;whiteSpace=wrap;html=1;rounded=0;fontFamily=Courier New;fontSize=13;strokeColor=#000000;" parent="eq7bmqrXvHVogV1owovV-11" vertex="1">
          <mxGeometry width="30" height="30" as="geometry">
            <mxRectangle width="30" height="30" as="alternateBounds" />
          </mxGeometry>
        </mxCell>
        <mxCell id="eq7bmqrXvHVogV1owovV-13" value="&lt;u&gt;offre_id&lt;/u&gt;" style="shape=partialRectangle;connectable=0;fillColor=none;top=0;left=0;bottom=0;right=0;align=left;spacingLeft=6;fontStyle=1;overflow=hidden;whiteSpace=wrap;html=1;rounded=0;fontFamily=Courier New;fontSize=13;strokeColor=#000000;" parent="eq7bmqrXvHVogV1owovV-11" vertex="1">
          <mxGeometry x="30" width="150" height="30" as="geometry">
            <mxRectangle width="150" height="30" as="alternateBounds" />
          </mxGeometry>
        </mxCell>
        <mxCell id="eq7bmqrXvHVogV1owovV-14" value="" style="shape=tableRow;horizontal=0;startSize=0;swimlaneHead=0;swimlaneBody=0;fillColor=#CCCCCC;collapsible=0;dropTarget=0;points=[[0,0.5],[1,0.5]];portConstraint=eastwest;top=0;left=0;right=0;bottom=0;rounded=0;fontFamily=Courier New;fontSize=13;strokeColor=#000000;" parent="eq7bmqrXvHVogV1owovV-10" vertex="1">
          <mxGeometry y="71" width="180" height="30" as="geometry" />
        </mxCell>
        <mxCell id="eq7bmqrXvHVogV1owovV-15" value="" style="shape=partialRectangle;connectable=0;fillColor=none;top=0;left=0;bottom=0;right=0;editable=1;overflow=hidden;whiteSpace=wrap;html=1;rounded=0;fontFamily=Courier New;fontSize=13;strokeColor=#000000;" parent="eq7bmqrXvHVogV1owovV-14" vertex="1">
          <mxGeometry width="30" height="30" as="geometry">
            <mxRectangle width="30" height="30" as="alternateBounds" />
          </mxGeometry>
        </mxCell>
        <mxCell id="eq7bmqrXvHVogV1owovV-16" value="description_lieu" style="shape=partialRectangle;connectable=0;fillColor=none;top=0;left=0;bottom=0;right=0;align=left;spacingLeft=6;overflow=hidden;whiteSpace=wrap;html=1;rounded=0;fontFamily=Courier New;fontSize=13;strokeColor=#000000;" parent="eq7bmqrXvHVogV1owovV-14" vertex="1">
          <mxGeometry x="30" width="150" height="30" as="geometry">
            <mxRectangle width="150" height="30" as="alternateBounds" />
          </mxGeometry>
        </mxCell>
        <mxCell id="eq7bmqrXvHVogV1owovV-17" value="" style="shape=tableRow;horizontal=0;startSize=0;swimlaneHead=0;swimlaneBody=0;fillColor=#CCCCCC;collapsible=0;dropTarget=0;points=[[0,0.5],[1,0.5]];portConstraint=eastwest;top=0;left=0;right=0;bottom=0;rounded=0;fontFamily=Courier New;fontSize=13;strokeColor=#000000;" parent="eq7bmqrXvHVogV1owovV-10" vertex="1">
          <mxGeometry y="101" width="180" height="30" as="geometry" />
        </mxCell>
        <mxCell id="eq7bmqrXvHVogV1owovV-18" value="" style="shape=partialRectangle;connectable=0;fillColor=none;top=0;left=0;bottom=0;right=0;editable=1;overflow=hidden;whiteSpace=wrap;html=1;rounded=0;fontFamily=Courier New;fontSize=13;strokeColor=#000000;" parent="eq7bmqrXvHVogV1owovV-17" vertex="1">
          <mxGeometry width="30" height="30" as="geometry">
            <mxRectangle width="30" height="30" as="alternateBounds" />
          </mxGeometry>
        </mxCell>
        <mxCell id="eq7bmqrXvHVogV1owovV-19" value="&lt;span style=&quot;background-color: transparent;&quot;&gt;code_postal&lt;/span&gt;" style="shape=partialRectangle;connectable=0;fillColor=none;top=0;left=0;bottom=0;right=0;align=left;spacingLeft=6;overflow=hidden;whiteSpace=wrap;html=1;rounded=0;fontFamily=Courier New;fontSize=13;strokeColor=#000000;" parent="eq7bmqrXvHVogV1owovV-17" vertex="1">
          <mxGeometry x="30" width="150" height="30" as="geometry">
            <mxRectangle width="150" height="30" as="alternateBounds" />
          </mxGeometry>
        </mxCell>
        <mxCell id="eq7bmqrXvHVogV1owovV-20" value="" style="shape=tableRow;horizontal=0;startSize=0;swimlaneHead=0;swimlaneBody=0;fillColor=#CCCCCC;collapsible=0;dropTarget=0;points=[[0,0.5],[1,0.5]];portConstraint=eastwest;top=0;left=0;right=0;bottom=0;rounded=0;fontFamily=Courier New;fontSize=13;strokeColor=#000000;" parent="eq7bmqrXvHVogV1owovV-10" vertex="1">
          <mxGeometry y="131" width="180" height="30" as="geometry" />
        </mxCell>
        <mxCell id="eq7bmqrXvHVogV1owovV-21" value="" style="shape=partialRectangle;connectable=0;fillColor=none;top=0;left=0;bottom=0;right=0;editable=1;overflow=hidden;whiteSpace=wrap;html=1;rounded=0;fontFamily=Courier New;fontSize=13;strokeColor=#000000;" parent="eq7bmqrXvHVogV1owovV-20" vertex="1">
          <mxGeometry width="30" height="30" as="geometry">
            <mxRectangle width="30" height="30" as="alternateBounds" />
          </mxGeometry>
        </mxCell>
        <mxCell id="eq7bmqrXvHVogV1owovV-22" value="&lt;span style=&quot;background-color: transparent;&quot;&gt;code_commune&lt;/span&gt;" style="shape=partialRectangle;connectable=0;fillColor=none;top=0;left=0;bottom=0;right=0;align=left;spacingLeft=6;overflow=hidden;whiteSpace=wrap;html=1;rounded=0;fontFamily=Courier New;fontSize=13;strokeColor=#000000;" parent="eq7bmqrXvHVogV1owovV-20" vertex="1">
          <mxGeometry x="30" width="150" height="30" as="geometry">
            <mxRectangle width="150" height="30" as="alternateBounds" />
          </mxGeometry>
        </mxCell>
        <mxCell id="eq7bmqrXvHVogV1owovV-23" value="" style="shape=tableRow;horizontal=0;startSize=0;swimlaneHead=0;swimlaneBody=0;fillColor=#CCCCCC;collapsible=0;dropTarget=0;points=[[0,0.5],[1,0.5]];portConstraint=eastwest;top=0;left=0;right=0;bottom=0;rounded=0;fontFamily=Courier New;fontSize=13;strokeColor=#000000;" parent="eq7bmqrXvHVogV1owovV-10" vertex="1">
          <mxGeometry y="161" width="180" height="30" as="geometry" />
        </mxCell>
        <mxCell id="eq7bmqrXvHVogV1owovV-24" value="" style="shape=partialRectangle;connectable=0;fillColor=none;top=0;left=0;bottom=0;right=0;editable=1;overflow=hidden;whiteSpace=wrap;html=1;rounded=0;fontFamily=Courier New;fontSize=13;strokeColor=#000000;" parent="eq7bmqrXvHVogV1owovV-23" vertex="1">
          <mxGeometry width="30" height="30" as="geometry">
            <mxRectangle width="30" height="30" as="alternateBounds" />
          </mxGeometry>
        </mxCell>
        <mxCell id="eq7bmqrXvHVogV1owovV-25" value="&lt;span style=&quot;background-color: transparent;&quot;&gt;latitude&lt;/span&gt;" style="shape=partialRectangle;connectable=0;fillColor=none;top=0;left=0;bottom=0;right=0;align=left;spacingLeft=6;overflow=hidden;whiteSpace=wrap;html=1;rounded=0;fontFamily=Courier New;fontSize=13;strokeColor=#000000;" parent="eq7bmqrXvHVogV1owovV-23" vertex="1">
          <mxGeometry x="30" width="150" height="30" as="geometry">
            <mxRectangle width="150" height="30" as="alternateBounds" />
          </mxGeometry>
        </mxCell>
        <mxCell id="eq7bmqrXvHVogV1owovV-26" value="" style="shape=tableRow;horizontal=0;startSize=0;swimlaneHead=0;swimlaneBody=0;fillColor=#CCCCCC;collapsible=0;dropTarget=0;points=[[0,0.5],[1,0.5]];portConstraint=eastwest;top=0;left=0;right=0;bottom=0;rounded=0;fontFamily=Courier New;fontSize=13;strokeColor=#000000;" parent="eq7bmqrXvHVogV1owovV-10" vertex="1">
          <mxGeometry y="191" width="180" height="30" as="geometry" />
        </mxCell>
        <mxCell id="eq7bmqrXvHVogV1owovV-27" value="" style="shape=partialRectangle;connectable=0;fillColor=none;top=0;left=0;bottom=0;right=0;editable=1;overflow=hidden;whiteSpace=wrap;html=1;rounded=0;fontFamily=Courier New;fontSize=13;strokeColor=#000000;" parent="eq7bmqrXvHVogV1owovV-26" vertex="1">
          <mxGeometry width="30" height="30" as="geometry">
            <mxRectangle width="30" height="30" as="alternateBounds" />
          </mxGeometry>
        </mxCell>
        <mxCell id="eq7bmqrXvHVogV1owovV-28" value="longitude" style="shape=partialRectangle;connectable=0;fillColor=none;top=0;left=0;bottom=0;right=0;align=left;spacingLeft=6;overflow=hidden;whiteSpace=wrap;html=1;rounded=0;fontFamily=Courier New;fontSize=13;strokeColor=#000000;" parent="eq7bmqrXvHVogV1owovV-26" vertex="1">
          <mxGeometry x="30" width="150" height="30" as="geometry">
            <mxRectangle width="150" height="30" as="alternateBounds" />
          </mxGeometry>
        </mxCell>
        <mxCell id="eq7bmqrXvHVogV1owovV-44" value="" style="endArrow=none;html=1;rounded=0;entryX=1;entryY=0;entryDx=0;entryDy=0;exitX=0;exitY=1;exitDx=0;exitDy=0;" parent="1" source="eq7bmqrXvHVogV1owovV-10" target="eq7bmqrXvHVogV1owovV-10" edge="1">
          <mxGeometry width="50" height="50" relative="1" as="geometry">
            <mxPoint x="-1596" y="2163" as="sourcePoint" />
            <mxPoint x="-1298" y="1875" as="targetPoint" />
          </mxGeometry>
        </mxCell>
        <mxCell id="eq7bmqrXvHVogV1owovV-65" value="" style="endArrow=none;html=1;rounded=0;entryX=0;entryY=0;entryDx=0;entryDy=0;exitX=1;exitY=1;exitDx=0;exitDy=0;" parent="1" source="eq7bmqrXvHVogV1owovV-10" target="eq7bmqrXvHVogV1owovV-10" edge="1">
          <mxGeometry width="50" height="50" relative="1" as="geometry">
            <mxPoint x="-1324" y="2170" as="sourcePoint" />
            <mxPoint x="-1582.5" y="1871" as="targetPoint" />
          </mxGeometry>
        </mxCell>
        <mxCell id="eq7bmqrXvHVogV1owovV-66" value="Attributs originaux" style="text;html=1;align=center;verticalAlign=middle;whiteSpace=wrap;rounded=0;fontStyle=2" parent="1" vertex="1">
          <mxGeometry x="-1560.5" y="2098" width="113" height="30" as="geometry" />
        </mxCell>
        <mxCell id="eq7bmqrXvHVogV1owovV-67" value="Nouveaux attributs grâce aux transformations" style="text;html=1;align=center;verticalAlign=middle;whiteSpace=wrap;rounded=0;fontStyle=0;fontColor=#000000;labelBackgroundColor=#E6FFCC;fontSize=18;" parent="1" vertex="1">
          <mxGeometry x="-2462" y="2161" width="473" height="30" as="geometry" />
        </mxCell>
        <mxCell id="mLzMRkuIWdSsUBek81Hs-4" value="*" style="text;html=1;align=center;verticalAlign=middle;resizable=0;points=[];autosize=1;strokeColor=none;fillColor=none;rounded=1;strokeWidth=1;fontSize=30;fontStyle=1;arcSize=0;" parent="1" vertex="1">
          <mxGeometry x="-2111" y="1609.5" width="30" height="48" as="geometry" />
        </mxCell>
        <mxCell id="a-MxpuJv2dlms3FZHuWc-2" value="" style="endArrow=none;html=1;rounded=0;entryX=0.065;entryY=0.02;entryDx=0;entryDy=0;entryPerimeter=0;exitX=0.999;exitY=1.007;exitDx=0;exitDy=0;exitPerimeter=0;dashed=1;dashPattern=1 4;" parent="1" edge="1">
          <mxGeometry width="50" height="50" relative="1" as="geometry">
            <mxPoint x="-3168" y="1697" as="sourcePoint" />
            <mxPoint x="-3602" y="1698" as="targetPoint" />
          </mxGeometry>
        </mxCell>
        <mxCell id="a-MxpuJv2dlms3FZHuWc-3" value="" style="endArrow=none;html=1;rounded=0;entryX=0.065;entryY=0.02;entryDx=0;entryDy=0;entryPerimeter=0;exitX=0.999;exitY=1.007;exitDx=0;exitDy=0;exitPerimeter=0;dashed=1;dashPattern=1 4;" parent="1" edge="1">
          <mxGeometry width="50" height="50" relative="1" as="geometry">
            <mxPoint x="-3168" y="1725" as="sourcePoint" />
            <mxPoint x="-3602" y="1726" as="targetPoint" />
          </mxGeometry>
        </mxCell>
        <mxCell id="a-MxpuJv2dlms3FZHuWc-5" value="" style="endArrow=none;html=1;rounded=0;entryX=0.065;entryY=0.02;entryDx=0;entryDy=0;entryPerimeter=0;exitX=0.999;exitY=1.007;exitDx=0;exitDy=0;exitPerimeter=0;dashed=1;dashPattern=1 4;" parent="1" edge="1">
          <mxGeometry width="50" height="50" relative="1" as="geometry">
            <mxPoint x="-3168" y="1906" as="sourcePoint" />
            <mxPoint x="-3602" y="1907" as="targetPoint" />
          </mxGeometry>
        </mxCell>
        <mxCell id="a-MxpuJv2dlms3FZHuWc-6" value="" style="endArrow=none;html=1;rounded=0;entryX=0.065;entryY=0.02;entryDx=0;entryDy=0;entryPerimeter=0;exitX=0.999;exitY=1.007;exitDx=0;exitDy=0;exitPerimeter=0;dashed=1;dashPattern=1 4;" parent="1" edge="1">
          <mxGeometry width="50" height="50" relative="1" as="geometry">
            <mxPoint x="-3169" y="1937" as="sourcePoint" />
            <mxPoint x="-3603" y="1938" as="targetPoint" />
          </mxGeometry>
        </mxCell>
        <mxCell id="a-MxpuJv2dlms3FZHuWc-7" value="" style="endArrow=none;html=1;rounded=0;entryX=0.065;entryY=0.02;entryDx=0;entryDy=0;entryPerimeter=0;exitX=0.998;exitY=0.087;exitDx=0;exitDy=0;exitPerimeter=0;dashed=1;dashPattern=1 4;" parent="1" edge="1">
          <mxGeometry width="50" height="50" relative="1" as="geometry">
            <mxPoint x="-2558.0339999999997" y="1927.6099999999997" as="sourcePoint" />
            <mxPoint x="-3043" y="1928" as="targetPoint" />
          </mxGeometry>
        </mxCell>
        <mxCell id="a-MxpuJv2dlms3FZHuWc-8" value="" style="endArrow=none;html=1;rounded=0;entryX=0.065;entryY=0.02;entryDx=0;entryDy=0;entryPerimeter=0;exitX=0.998;exitY=0.087;exitDx=0;exitDy=0;exitPerimeter=0;dashed=1;dashPattern=1 4;" parent="1" edge="1">
          <mxGeometry width="50" height="50" relative="1" as="geometry">
            <mxPoint x="-2557.98" y="2016.39" as="sourcePoint" />
            <mxPoint x="-3042.98" y="2016.39" as="targetPoint" />
          </mxGeometry>
        </mxCell>
        <mxCell id="a-MxpuJv2dlms3FZHuWc-9" value="" style="endArrow=none;html=1;rounded=0;entryX=0.065;entryY=0.02;entryDx=0;entryDy=0;entryPerimeter=0;exitX=0.998;exitY=0.087;exitDx=0;exitDy=0;exitPerimeter=0;dashed=1;dashPattern=1 4;" parent="1" edge="1">
          <mxGeometry width="50" height="50" relative="1" as="geometry">
            <mxPoint x="-2558" y="2046" as="sourcePoint" />
            <mxPoint x="-3043" y="2046" as="targetPoint" />
          </mxGeometry>
        </mxCell>
        <mxCell id="a-MxpuJv2dlms3FZHuWc-10" value="" style="endArrow=none;html=1;rounded=0;entryX=0.065;entryY=0.02;entryDx=0;entryDy=0;entryPerimeter=0;exitX=0.998;exitY=0.087;exitDx=0;exitDy=0;exitPerimeter=0;dashed=1;dashPattern=1 4;" parent="1" edge="1">
          <mxGeometry width="50" height="50" relative="1" as="geometry">
            <mxPoint x="-2558" y="2075" as="sourcePoint" />
            <mxPoint x="-3043" y="2075" as="targetPoint" />
          </mxGeometry>
        </mxCell>
        <mxCell id="a-MxpuJv2dlms3FZHuWc-11" value="" style="endArrow=none;html=1;rounded=0;entryX=0.065;entryY=0.02;entryDx=0;entryDy=0;entryPerimeter=0;exitX=0.998;exitY=0.087;exitDx=0;exitDy=0;exitPerimeter=0;dashed=1;dashPattern=1 4;" parent="1" edge="1">
          <mxGeometry width="50" height="50" relative="1" as="geometry">
            <mxPoint x="-2557.97" y="1894.39" as="sourcePoint" />
            <mxPoint x="-3042.97" y="1894.39" as="targetPoint" />
          </mxGeometry>
        </mxCell>
        <mxCell id="a-MxpuJv2dlms3FZHuWc-12" value="" style="endArrow=none;html=1;rounded=0;exitX=0.998;exitY=0.087;exitDx=0;exitDy=0;exitPerimeter=0;dashed=1;dashPattern=1 4;" parent="1" edge="1">
          <mxGeometry width="50" height="50" relative="1" as="geometry">
            <mxPoint x="-2056" y="2027" as="sourcePoint" />
            <mxPoint x="-2436" y="2027" as="targetPoint" />
          </mxGeometry>
        </mxCell>
        <mxCell id="a-MxpuJv2dlms3FZHuWc-14" value="" style="endArrow=none;html=1;rounded=0;exitX=0.998;exitY=0.087;exitDx=0;exitDy=0;exitPerimeter=0;dashed=1;dashPattern=1 4;" parent="1" edge="1">
          <mxGeometry width="50" height="50" relative="1" as="geometry">
            <mxPoint x="-1641" y="1935" as="sourcePoint" />
            <mxPoint x="-1941" y="1935" as="targetPoint" />
          </mxGeometry>
        </mxCell>
        <mxCell id="a-MxpuJv2dlms3FZHuWc-15" value="" style="endArrow=none;html=1;rounded=0;exitX=0.998;exitY=0.087;exitDx=0;exitDy=0;exitPerimeter=0;dashed=1;dashPattern=1 4;" parent="1" edge="1">
          <mxGeometry width="50" height="50" relative="1" as="geometry">
            <mxPoint x="-1641" y="1994" as="sourcePoint" />
            <mxPoint x="-1941" y="1994" as="targetPoint" />
          </mxGeometry>
        </mxCell>
        <mxCell id="a-MxpuJv2dlms3FZHuWc-16" value="" style="endArrow=none;html=1;rounded=0;exitX=0.998;exitY=0.087;exitDx=0;exitDy=0;exitPerimeter=0;dashed=1;dashPattern=1 4;" parent="1" edge="1">
          <mxGeometry width="50" height="50" relative="1" as="geometry">
            <mxPoint x="-1641" y="2055" as="sourcePoint" />
            <mxPoint x="-1941" y="2055" as="targetPoint" />
          </mxGeometry>
        </mxCell>
        <mxCell id="g42hDst7DQJScSwPhzBg-9" value="" style="endArrow=none;html=1;rounded=0;entryX=0.065;entryY=0.02;entryDx=0;entryDy=0;entryPerimeter=0;exitX=0.999;exitY=1.007;exitDx=0;exitDy=0;exitPerimeter=0;dashed=1;dashPattern=1 4;" parent="1" edge="1">
          <mxGeometry width="50" height="50" relative="1" as="geometry">
            <mxPoint x="-3169" y="1997" as="sourcePoint" />
            <mxPoint x="-3603" y="1998" as="targetPoint" />
          </mxGeometry>
        </mxCell>
      </root>
    </mxGraphModel>
  </diagram>
</mxfile>
